<svg width="169" height="161" viewBox="0 0 169 161" fill="none" xmlns="http://www.w3.org/2000/svg">
<g filter="url(#filter0_d)">
<path d="M127.936 34.2234C127.948 34.3157 127.968 34.4066 127.997 34.4951C128.118 34.7236 128.223 34.9599 128.312 35.2026C128.312 35.2026 128.368 35.4495 128.396 35.573C128.423 35.6965 128.507 36.0669 128.563 36.3139L128.635 36.6349C128.707 36.956 128.78 37.277 128.858 37.6228L128.885 37.7463C128.975 38.1414 128.91 38.5453 128.9 38.9627C128.938 39.0661 128.962 39.174 128.972 39.2837C128.962 39.6468 128.931 40.009 128.88 40.3686L128.935 40.6156C128.876 41.0441 128.768 41.4838 128.689 41.9426C128.611 42.4014 128.364 43.2617 128.157 43.957C127.951 44.6524 127.833 44.9383 127.637 45.4497C127.584 45.5593 127.54 45.6734 127.506 45.7906C127.318 46.2223 127.16 46.6731 126.953 47.135L126.726 47.6272C126.506 48.1442 126.26 48.6666 125.971 49.2249C125.668 49.8382 125.34 50.4571 124.963 51.0871C124.874 51.2834 124.769 51.472 124.649 51.6509C124.386 52.0993 124.149 52.5421 123.862 52.9961C123.575 53.4501 123.364 53.783 123.116 54.1764L122.46 55.1807L121.62 56.408L120.895 57.4536C120.305 58.2875 119.689 59.1269 118.876 60.0108C118.063 60.8948 116.857 62.568 115.815 63.8151L115.544 64.1098C114.559 65.2661 113.475 66.4447 112.459 67.5819L112.076 67.9538C111.036 69.0966 109.984 70.1899 108.829 71.2809L108.464 71.6225C107.32 72.7628 106.14 73.8593 104.946 75.0108L104.688 75.2505C103.954 75.909 103.245 76.562 102.53 77.1903L101.966 77.6808L100.155 79.2049L99.6482 79.6046C98.3826 80.6685 97.1059 81.6829 95.818 82.6479L95.5956 82.6981C94.4448 83.5803 93.3873 84.4156 92.1019 85.2763L91.8302 85.3375C90.7751 86.0685 89.7446 86.7938 88.6784 87.4753L88.2289 87.7843L85.2796 89.6688L84.7751 89.9642L81.8665 91.6839L81.4218 91.7841L78.3866 93.4026L78.189 93.4471L74.8653 95.0528L74.6677 95.0973L73.0358 95.8026L72.4183 95.9418L71.2222 96.393L70.8517 96.4766L69.1975 97.083L68.5306 97.2334L67.1227 97.5507L64.7762 98.0797L63.1213 98.4528C57.5767 99.4172 53.7648 98.5119 51.7747 96.1318L56.2342 101.407C56.4906 101.738 56.7661 102.039 57.0472 102.365L61.3387 107.47C63.3534 109.845 67.2641 110.728 72.6852 109.791C73.2286 109.669 73.7721 109.546 74.3402 109.418L74.8836 109.296L76.0691 109.029L76.662 108.895L78.1193 108.566L78.7614 108.422L80.3966 107.845L80.7177 107.773L81.9081 107.297L82.5256 107.158C84.207 106.441 85.921 105.64 87.6486 104.783L87.8215 104.744L90.8568 103.126L91.1285 103.065L91.3261 103.02L94.2347 101.3L94.4817 101.245L94.7534 101.183C95.7567 100.568 96.7353 99.9581 97.7275 99.2933L97.9004 99.2543L98.1968 99.1875C99.2328 98.4868 100.293 97.7806 101.343 97.025L101.516 96.986C102.678 96.1531 103.859 95.29 105.029 94.3775L105.152 94.3497L109.037 91.0865L109.185 91.0531C109.312 90.971 109.43 90.8748 109.536 90.7664C110.174 90.2592 110.782 89.7329 111.39 89.2065L111.916 88.7765L114.069 86.8121L114.217 86.7787C115.422 85.6766 116.622 84.5498 117.761 83.3847L118.125 83.0431C119.225 81.9386 120.227 80.8564 121.397 79.7105L121.75 79.3194C122.815 78.1711 123.824 77.0092 124.859 75.8418L125.105 75.5527C126.173 74.3 127.135 73.0449 128.197 71.7675L130.087 69.2135C130.139 69.1479 130.184 69.0769 130.221 69.0016L130.793 68.198L131.632 66.9708L132.283 65.9418L133.029 64.7615L133.245 64.4533L133.821 63.441L134.16 62.8715C134.502 62.2408 134.83 61.6219 135.143 61.015L135.267 60.9872L136.023 59.3895L136.224 58.9028L136.464 58.3556L136.59 57.9901C136.837 57.398 137.066 56.8014 137.276 56.2004L137.377 55.8403C137.583 55.145 137.771 54.4799 137.909 53.8259C137.909 53.8259 138.069 53.0374 138.133 52.6335L138.078 52.3866L138.166 51.7437C138.166 51.7437 138.105 51.4721 138.195 51.296L138.123 50.975C138.039 50.6046 138.129 50.1952 138.119 49.808C138.093 49.7543 138.08 49.695 138.08 49.6351L137.863 48.672L137.713 48.0052C137.694 47.8713 137.664 47.7392 137.624 47.6101C137.608 47.4842 137.58 47.3601 137.54 47.2396C137.451 47.006 137.347 46.778 137.231 46.5568L137.164 46.2605C136.993 45.9788 136.802 45.7096 136.593 45.455L127.029 34.1164C127.333 34.1366 127.635 34.1723 127.936 34.2234Z" fill="#FE5D00"/>
<path d="M127.513 33.6177L127.474 33.4448L137.069 44.8025L137.102 44.9507L127.513 33.6177Z" fill="#FE5D00"/>
<path d="M127.94 34.2483C127.931 34.19 127.918 34.1323 127.901 34.0754L137.465 45.414C137.489 45.4687 137.502 45.5273 137.504 45.5869L127.94 34.2483Z" fill="#FE5D00"/>
<path d="M128.282 34.846L128.243 34.6731L137.807 46.0116L137.846 46.1845L128.282 34.846Z" fill="#FE5D00"/>
<path d="M128.572 35.6616C128.571 35.6019 128.558 35.5431 128.533 35.4888L138.097 46.8273C138.122 46.8816 138.135 46.9405 138.136 47.0002L128.572 35.6616Z" fill="#FE5D00"/>
<path d="M128.774 36.4478L128.735 36.2749L138.299 47.6135L138.343 47.811L128.774 36.4478Z" fill="#FE5D00"/>
<path d="M128.917 37.2972L128.873 37.0996L138.437 48.4382C138.437 48.4382 138.464 48.5616 138.481 48.6357L128.917 37.2972Z" fill="#FE5D00"/>
<path d="M128.989 38.2161C128.989 38.2161 128.989 38.2161 128.945 38.0186L138.509 49.3571C138.509 49.3571 138.542 49.5053 138.553 49.5547L128.989 38.2161Z" fill="#FE5D00"/>
<path d="M128.969 39.1536C128.968 39.0854 128.953 39.018 128.925 38.9561L138.489 50.2946C138.517 50.3656 138.534 50.4406 138.539 50.5168L128.969 39.1536Z" fill="#FE5D00"/>
<path d="M128.882 40.1595L128.832 39.9373L138.396 51.2758L138.446 51.4981L128.882 40.1595Z" fill="#FE5D00"/>
<path d="M128.734 41.2052C128.727 41.1293 128.71 41.0547 128.684 40.983L138.248 52.3215L138.298 52.5438L128.71 41.2108" fill="#FE5D00"/>
<path d="M128.515 42.3185C128.492 42.2372 128.473 42.1548 128.459 42.0716L138.146 53.3823L138.073 53.6323L128.509 42.2938" fill="#FE5D00"/>
<path d="M128.226 43.4479L128.294 43.1731L137.858 54.5116C137.881 54.5929 137.899 54.6753 137.913 54.7586L128.349 43.4201" fill="#FE5D00"/>
<path d="M127.84 44.6254L127.933 44.345L137.497 55.6835L137.404 55.9639L127.84 44.6254Z" fill="#FE5D00"/>
<path d="M127.391 45.8415L127.484 45.5611L137.048 56.8996L136.955 57.18L127.391 45.8415Z" fill="#FE5D00"/>
<path d="M126.893 47.0956L127.005 46.785L136.574 58.1483L136.457 58.4342L126.893 47.0956Z" fill="#FE5D00"/>
<path d="M126.281 48.401L126.423 48.1095L136.011 59.4425C135.957 59.5436 135.911 59.6494 135.875 59.7587L126.281 48.401Z" fill="#FE5D00"/>
<path d="M125.67 49.7324L125.831 49.4106L135.401 60.7738L135.234 61.0709L125.67 49.7324Z" fill="#FE5D00"/>
<path d="M124.906 51.1766C124.962 51.0711 125.026 50.9699 125.098 50.874L134.662 62.2125L134.476 62.5399L124.906 51.1766Z" fill="#FE5D00"/>
<path d="M124.087 52.5041L124.278 52.2014L133.842 63.54L133.657 63.8673L124.087 52.5041Z" fill="#FE5D00"/>
<path d="M123.194 53.9509C123.279 53.85 123.349 53.738 123.404 53.6179L132.974 64.9812L132.763 65.3141L123.194 53.9509Z" fill="#FE5D00"/>
<path d="M122.256 55.4336L122.467 55.1007L132.031 66.4392L131.796 66.7777L122.232 55.4391" fill="#FE5D00"/>
<path d="M121.203 56.9687L121.432 56.6055L131.027 67.9632L130.767 68.3073L121.203 56.9687Z" fill="#FE5D00"/>
<path d="M120.09 58.4904L120.35 58.1464L129.938 69.4793L129.679 69.8234L120.09 58.4904Z" fill="#FE5D00"/>
<path d="M118.937 60.0483L119.197 59.7042L128.761 71.0428L128.501 71.3868L118.937 60.0483Z" fill="#FE5D00"/>
<path d="M117.684 61.6288L117.968 61.2792L127.557 72.6122L127.248 72.9674L117.684 61.6288Z" fill="#FE5D00"/>
<path d="M116.401 63.1896L116.71 62.8345L126.274 74.173L125.965 74.5282L116.401 63.1896Z" fill="#FE5D00"/>
<path d="M115.051 64.7915L115.355 64.4116L124.924 75.7749L124.615 76.13L115.051 64.7915Z" fill="#FE5D00"/>
<path d="M113.679 66.3207L113.988 65.9656L123.558 77.3288L123.243 77.6593L113.679 66.3207Z" fill="#FE5D00"/>
<path d="M112.261 67.86C112.385 67.752 112.497 67.6311 112.595 67.4993L122.165 78.8625L121.85 79.193L112.261 67.86Z" fill="#FE5D00"/>
<path d="M110.839 69.3744L111.154 69.0439L120.742 80.3769L120.403 80.7129L110.839 69.3744Z" fill="#FE5D00"/>
<path d="M109.359 70.8746L109.699 70.5386L119.263 81.8772L118.923 82.2132L109.359 70.8746Z" fill="#FE5D00"/>
<path d="M107.807 72.3925L108.171 72.0508L117.735 83.3894L117.396 83.7255L107.807 72.3925Z" fill="#FE5D00"/>
<path d="M106.271 73.8546L106.635 73.513L116.199 84.8516L115.859 85.1876L106.271 73.8546Z" fill="#FE5D00"/>
<path d="M104.725 75.2938L105.089 74.9522L114.653 86.2908L114.289 86.6324L104.725 75.2938Z" fill="#FE5D00"/>
<path d="M103.229 76.8256L103.593 76.4839L113.187 87.8416L112.817 88.1586L103.229 76.8256Z" fill="#FE5D00"/>
<path d="M101.514 78.0936L101.883 77.7767L111.478 89.1344L111.108 89.4513L101.514 78.0936Z" fill="#FE5D00"/>
<path d="M99.8604 79.5052L100.255 79.1827L109.819 90.5213L109.449 90.8382L99.8604 79.5052Z" fill="#FE5D00"/>
<path d="M98.2354 80.8309L98.6052 80.514L108.175 91.8772L107.799 92.1695L98.2354 80.8309Z" fill="#FE5D00"/>
<path d="M96.6378 82.1251L97.0322 81.8026L106.602 93.1658L106.226 93.4581L96.6378 82.1251Z" fill="#FE5D00"/>
<path d="M94.8954 83.4007L95.2954 83.1029L104.865 94.4661L104.465 94.7639L94.8954 83.4007Z" fill="#FE5D00"/>
<path d="M93.2304 84.6323L93.6113 84.3648L103.2 95.6978L102.8 95.9956L93.2304 84.6323Z" fill="#FE5D00"/>
<path d="M91.5102 85.8758L91.9158 85.6027L101.48 96.9412L101.074 97.2143L91.5102 85.8758Z" fill="#FE5D00"/>
<path d="M89.9477 87.0066L90.3533 86.7335L99.9173 98.072L99.5117 98.3451L89.9477 87.0066Z" fill="#FE5D00"/>
<path d="M88.132 88.1692L88.5376 87.8961L98.1016 99.2347L97.7207 99.5022L88.132 88.1692Z" fill="#FE5D00"/>
<path d="M86.4565 89.2478L86.843 89.0049L96.4317 100.338L96.0205 100.586L86.4565 89.2478Z" fill="#FE5D00"/>
<path d="M60.2163 70.2495C74.8083 51.3895 99.7139 33.8376 115.879 31.05C132.043 28.2624 133.324 41.3125 118.732 60.1726C104.14 79.0326 79.24 96.6092 63.1 99.3912C46.96 102.173 45.7534 89.1064 60.2163 70.2495Z" fill="url(#paint0_linear)"/>
<path d="M115.974 31.0283C99.8098 33.8159 74.9041 51.3678 60.3122 70.2279C52.0397 80.968 48.8724 89.8306 50.6757 94.9517C49.372 89.7439 52.5813 81.1832 60.5174 70.9082C75.0847 52.0538 100.009 34.4716 116.174 31.684C123.124 30.5065 127.329 32.2317 128.7 36.1266C127.591 31.7833 123.32 29.7617 115.974 31.0283Z" fill="url(#paint1_linear)"/>
<path d="M65.6648 69.3069C77.5784 53.8793 97.8881 39.5433 111.179 37.2478C124.47 34.9524 125.425 45.6366 113.517 61.0889C101.608 76.5412 81.2932 90.8525 68.0025 93.1479C54.7117 95.4434 53.732 84.7648 65.6648 69.3069Z" fill="#FE5D00"/>
<path d="M112.98 59.2892C101.066 74.7168 80.7566 89.0528 67.4658 91.3483C62.1188 92.2682 58.7866 91.073 57.4851 88.408C58.1041 92.4206 61.6527 94.3455 68.0236 93.2467C81.2402 90.968 101.624 76.6153 113.538 61.1877C120.65 51.9806 123.141 44.4903 121.203 40.3857C121.916 44.5847 119.149 51.307 112.98 59.2892Z" fill="#FE5D00"/>
<path style="mix-blend-mode:multiply" d="M111.179 37.2479C97.9621 39.5266 77.5782 53.8793 65.6646 69.3069C58.5519 78.514 56.0617 86.0043 57.9992 90.1089C57.3381 85.7944 60.0312 79.0888 66.1754 71.1122C78.1137 55.679 98.3932 41.3239 111.69 39.0531C117.037 38.1332 120.393 39.3228 121.67 41.9934C121.098 38.074 117.55 36.1491 111.179 37.2479Z" fill="url(#paint2_linear)"/>
<path style="mix-blend-mode:multiply" d="M118.058 59.7275C103.49 78.582 78.5656 96.1642 62.4257 98.9462C59.429 99.6807 56.2797 99.4854 53.3968 98.3865C56.4313 99.9159 59.9205 100.283 63.2071 99.4188C79.3471 96.6368 104.277 79.0793 118.839 60.2001C129.935 45.8652 131.824 34.9031 125.02 31.662C130.875 35.2987 128.71 45.9595 118.058 59.7275Z" fill="url(#paint3_linear)"/>
</g>
<defs>
<filter id="filter0_d" x="0.130859" y="0.655273" width="168.422" height="159.503" filterUnits="userSpaceOnUse" color-interpolation-filters="sRGB">
<feFlood flood-opacity="0" result="BackgroundImageFix"/>
<feColorMatrix in="SourceAlpha" type="matrix" values="0 0 0 0 0 0 0 0 0 0 0 0 0 0 0 0 0 0 127 0"/>
<feOffset dx="-10" dy="10"/>
<feGaussianBlur stdDeviation="20"/>
<feColorMatrix type="matrix" values="0 0 0 0 0.898039 0 0 0 0 0.788235 0 0 0 0 0.34902 0 0 0 0.5 0"/>
<feBlend mode="normal" in2="BackgroundImageFix" result="effect1_dropShadow"/>
<feBlend mode="normal" in="SourceGraphic" in2="effect1_dropShadow" result="shape"/>
</filter>
<linearGradient id="paint0_linear" x1="195.495" y1="-9.01956" x2="17.6767" y2="2.25558" gradientUnits="userSpaceOnUse">
<stop stop-color="#FE5D00"/>
<stop offset="0.244792" stop-color="#EC8143"/>
<stop offset="0.458333" stop-color="#EAA47C"/>
<stop offset="0.6" stop-color="#E89E74"/>
<stop offset="0.677083" stop-color="#EB9666"/>
<stop offset="0.765625" stop-color="#ED864B"/>
<stop offset="0.875" stop-color="#F2742A"/>
<stop offset="1" stop-color="#FE5D00"/>
</linearGradient>
<linearGradient id="paint1_linear" x1="-63449.5" y1="617704" x2="-62691.9" y2="618552" gradientUnits="userSpaceOnUse">
<stop stop-color="#AD3A00"/>
<stop offset="0.02" stop-color="#B6520F"/>
<stop offset="0.06" stop-color="#C77E2A"/>
<stop offset="0.11" stop-color="#D4A13F"/>
<stop offset="0.15" stop-color="#DDBA4F"/>
<stop offset="0.18" stop-color="#E3C958"/>
<stop offset="0.21" stop-color="#E5CE5B"/>
<stop offset="0.56" stop-color="#E2D178"/>
<stop offset="0.63" stop-color="#E3D073"/>
<stop offset="0.72" stop-color="#E4CF64"/>
<stop offset="0.76" stop-color="#E5CE5B"/>
<stop offset="0.85" stop-color="#C8822C"/>
<stop offset="0.94" stop-color="#AD3A00"/>
<stop offset="0.95" stop-color="#C04603"/>
<stop offset="0.97" stop-color="#D95606"/>
<stop offset="0.99" stop-color="#E86008"/>
<stop offset="1" stop-color="#ED6309"/>
</linearGradient>
<linearGradient id="paint2_linear" x1="-49642" y1="502808" x2="-49163.8" y2="503264" gradientUnits="userSpaceOnUse">
<stop stop-color="#750900"/>
<stop offset="0.1" stop-color="#8D1C00"/>
<stop offset="0.32" stop-color="#CA4B00"/>
<stop offset="0.34" stop-color="#CE4E00"/>
<stop offset="0.67" stop-color="#EA9226"/>
<stop offset="0.68" stop-color="#E99A2E"/>
<stop offset="0.74" stop-color="#E7AF41"/>
<stop offset="0.8" stop-color="#E6BE4F"/>
<stop offset="0.88" stop-color="#E5C657"/>
<stop offset="0.99" stop-color="#E5C959"/>
</linearGradient>
<linearGradient id="paint3_linear" x1="291246" y1="707126" x2="288642" y2="709494" gradientUnits="userSpaceOnUse">
<stop stop-color="#750900"/>
<stop offset="0.16" stop-color="#8D1C00"/>
<stop offset="0.48" stop-color="#CA4B00"/>
<stop offset="0.5" stop-color="#CE4E00"/>
<stop offset="1" stop-color="#750900"/>
</linearGradient>
</defs>
</svg>
