<svg width="127" height="128" viewBox="0 0 127 128" fill="none" xmlns="http://www.w3.org/2000/svg">
<g filter="url(#filter0_d)">
<path fill-rule="evenodd" clip-rule="evenodd" d="M86.3644 64.3853C86.367 67.4639 85.7703 70.5128 84.6085 73.3575C83.4467 76.2022 81.7425 78.7869 79.5936 80.9636C77.4447 83.1402 74.8932 84.8662 72.0852 86.0427C69.2771 87.2192 66.2676 87.8231 63.229 87.8198C62.8188 87.8198 62.4037 87.8198 61.9985 87.7852C61.393 87.7555 60.7924 87.6961 60.2015 87.6219C55.8461 87.0442 51.7454 85.2141 48.3848 82.3483C46.2187 80.4998 44.3992 78.271 43.0135 75.7686C42.8719 75.5114 42.7352 75.2739 42.5985 74.987C42.5985 74.987 42.5985 74.987 42.5985 74.9622C42.4569 74.6803 42.325 74.3983 42.1981 74.1113C41.7932 73.212 41.4474 72.2865 41.1629 71.341C40.9468 70.6517 40.7659 69.9515 40.6209 69.2434C40.5183 68.7487 40.4304 68.254 40.3621 67.7296C40.2049 66.6286 40.1266 65.5175 40.1277 64.4051C40.1277 63.757 40.1521 63.109 40.2107 62.4757C40.24 62.0701 40.2839 61.6693 40.3377 61.2686C40.6303 59.0059 41.254 56.8 42.1883 54.7236C44.0208 50.6233 46.9789 47.1437 50.7097 44.6999C54.4404 42.256 58.7863 40.9512 63.229 40.9409H63.9565C64.2153 40.9409 64.4741 40.9409 64.7329 40.9805C66.0494 41.0647 67.3563 41.2633 68.6393 41.5741C69.3717 41.7522 70.1042 41.96 70.7927 42.2074C71.281 42.3706 71.74 42.5537 72.2038 42.7516C72.5505 42.9 72.8875 43.0533 73.2244 43.2166L73.4002 43.3007C75.6331 44.4072 77.6759 45.8705 79.4501 47.6344C79.7041 47.8817 79.9384 48.1291 80.1924 48.4012C80.3535 48.5793 80.5146 48.7623 80.6806 48.9454C80.9492 49.2521 81.208 49.5736 81.4619 49.8952C83.4739 52.51 84.9137 55.5286 85.6857 58.7505C86.1371 60.5939 86.365 62.4861 86.3644 64.3853Z" fill="white"/>
</g>
<path style="mix-blend-mode:screen" opacity="0.3" fill-rule="evenodd" clip-rule="evenodd" d="M52.4575 84.2767C45.2461 78.1914 45.4545 79.2983 42.0065 73.5339C38.5585 67.7694 33.6831 66.2454 33.6831 59.8179C33.6831 52.3316 47.085 47.3372 50.5651 43.8828C54.0452 40.4284 63.4431 31.5839 71.264 33.2256C79.0849 34.8672 81.5066 46.4121 84.2757 50.2729C87.0448 54.1337 91.1023 53.9679 93.1123 59.7752C95.1223 65.5824 86.6332 70.903 83.677 76.2396C80.7207 81.5763 63.4645 93.5651 52.4575 84.2767Z" fill="url(#paint0_radial)"/>
<path style="mix-blend-mode:screen" d="M62.5067 98.5858C81.8685 98.5858 97.5644 82.8854 97.5644 63.5179C97.5644 44.1504 81.8685 28.45 62.5067 28.45C43.1448 28.45 27.449 44.1504 27.449 63.5179C27.449 82.8854 43.1448 98.5858 62.5067 98.5858Z" fill="url(#paint1_radial)"/>
<path style="mix-blend-mode:screen" d="M91.2951 71.2179C95.5504 55.3101 86.108 38.9637 70.2049 34.7072C54.3017 30.4507 37.9601 39.8959 33.7049 55.8036C29.4496 71.7114 38.892 88.0578 54.7951 92.3143C70.6983 96.5708 87.0399 87.1256 91.2951 71.2179Z" fill="url(#paint2_radial)"/>
<path style="mix-blend-mode:screen" opacity="0.3" fill-rule="evenodd" clip-rule="evenodd" d="M44.6528 80.1156C35.6612 73.3352 44.5031 67.4584 41.007 55.7905C34.9716 35.6631 51.9498 39.8875 61.7005 40.2137C71.4513 40.5399 83.0249 40.6094 87.0022 48.6946C90.9794 56.7798 90.7442 72.116 84.8638 78.4793C78.9835 84.8427 62.2351 93.3931 44.6528 80.1156Z" fill="url(#paint3_radial)"/>
<path style="mix-blend-mode:screen" opacity="0.3" fill-rule="evenodd" clip-rule="evenodd" d="M37.4249 61.7373C36.7995 50.5078 46.9939 53.4542 53.6441 43.2461C65.1108 25.6373 72.8462 41.3371 78.8976 48.9571C84.949 56.5771 92.3636 65.5018 88.7606 73.7581C85.1575 82.0144 73.2578 91.7252 64.6457 91.3616C56.0336 90.998 38.6491 83.7416 37.4249 61.7373Z" fill="url(#paint4_radial)"/>
<path style="mix-blend-mode:screen" d="M90.077 68.6452C92.5074 53.4161 82.1356 39.0997 66.911 36.6685C51.6863 34.2374 37.3741 44.6122 34.9436 59.8413C32.5132 75.0704 42.885 89.3868 58.1097 91.818C73.3343 94.2491 87.6466 83.8743 90.077 68.6452Z" fill="url(#paint5_radial)"/>
<path fill-rule="evenodd" clip-rule="evenodd" d="M87.8314 64.3143C87.8358 70.5692 85.5251 76.6043 81.3447 81.2559C77.1642 85.9075 71.4102 88.8463 65.1919 89.5056C64.6574 89.5645 64.08 89.6019 63.5134 89.6233C63.1819 89.6233 62.8451 89.6233 62.5083 89.6233C57.5868 89.6232 52.7726 88.1846 48.6574 85.4844C48.358 85.2973 48.0694 85.0994 47.7807 84.8855C47.2461 84.5166 46.7436 84.1209 46.2518 83.7038C43.6165 81.5013 41.4574 78.7849 39.9063 75.7202C38.9103 73.7652 38.1787 71.6865 37.7306 69.5386C37.4973 68.4241 37.3401 67.295 37.2602 66.1591C37.2121 65.5495 37.1907 64.9292 37.1907 64.3089C37.1949 57.594 39.8628 51.1552 44.6085 46.4061C49.3543 41.6569 55.7901 38.9856 62.503 38.9785C63.0376 38.9785 63.6042 38.9785 64.1495 39.032C66.2979 39.1702 68.4197 39.5836 70.4629 40.2619C71.083 40.4597 71.6817 40.6897 72.2805 40.9463C72.7242 41.1282 73.1572 41.326 73.5902 41.5399C77.3719 43.3894 80.6342 46.1511 83.083 49.5761C85.5317 53.0011 87.0901 56.9817 87.6175 61.1593C87.7543 62.2055 87.8257 63.2592 87.8314 64.3143Z" fill="url(#paint6_radial)"/>
<path fill-rule="evenodd" clip-rule="evenodd" d="M73.6108 41.546L73.3596 41.5781C73.0955 41.6268 72.8235 41.6084 72.5684 41.5246C72.3847 41.4555 72.1973 41.3966 72.0071 41.3481C71.7024 41.3 71.4137 41.1717 71.109 41.1289C70.7953 41.0688 70.4889 40.9756 70.1949 40.8508C70.0005 40.7758 69.7852 40.7758 69.5908 40.8508C69.3829 40.883 69.1704 40.8394 68.9921 40.7279C68.762 40.6462 68.5235 40.5906 68.2811 40.5621C67.6396 40.4284 66.9981 40.2199 66.3619 40.0594C65.9811 39.976 65.5915 39.94 65.2019 39.9525C64.8811 39.9525 64.5978 40.0434 64.2824 40.0434C64.0795 40.0361 63.8776 40.0128 63.6783 39.9739C63.4645 39.9364 63.2453 39.9739 63.0315 39.9471C62.764 39.8723 62.4811 39.8723 62.2136 39.9471C61.9941 40.0067 61.7674 40.0355 61.54 40.0327C61.2581 40.0543 60.9789 40.1026 60.7061 40.1771C60.2216 40.2978 59.7245 40.3606 59.2253 40.3642C58.8848 40.316 58.5393 40.316 58.1989 40.3642C58.0171 40.4338 57.9263 40.6316 57.798 40.7599C57.529 41.0004 57.2755 41.2576 57.0389 41.53C56.7971 41.7873 56.6501 42.1191 56.6219 42.4711C56.6616 42.8069 56.7612 43.1329 56.9159 43.4336C57.0602 43.7384 57.1084 44.0165 56.793 44.2143C56.3979 44.4873 55.9634 44.6983 55.5046 44.84C55.3742 44.9024 55.2293 44.9284 55.0854 44.9152C54.9414 44.9021 54.8036 44.8502 54.6867 44.7651C54.5958 44.6849 54.537 44.5352 54.4248 44.471C54.3125 44.4068 54.1789 44.471 54.0559 44.5084C53.7461 44.6121 53.4301 44.6961 53.1097 44.7598C52.9119 44.7918 52.7408 44.8988 52.5484 44.9309C52.3559 44.963 52.1474 44.8025 51.9069 44.8614C51.5722 44.9705 51.2288 45.051 50.8805 45.102C50.6054 45.0953 50.3366 45.018 50.1 44.8774C49.9771 44.8025 49.945 44.733 49.806 44.7758C49.67 44.8274 49.5501 44.9141 49.4585 45.0271C49.373 45.1501 49.3463 45.2998 49.2607 45.4228C49.1752 45.5458 49.0897 45.6902 49.0095 45.8399C48.8634 46.1156 48.6972 46.3801 48.5123 46.6313C48.3787 46.8078 48.2878 47.0484 48.1435 47.2088C48.0395 47.2924 47.9265 47.3641 47.8067 47.4227C47.5447 47.6099 47.2721 47.7757 47.0101 47.9575C46.5183 48.3425 46.0532 48.7703 45.5561 49.1446C45.1321 49.4285 44.6764 49.6618 44.1983 49.8397C43.9256 49.952 43.6637 50.0322 43.375 50.1445C43.2599 50.1741 43.15 50.221 43.0489 50.2836C42.9608 50.3944 42.8821 50.5125 42.8137 50.6365C42.5609 50.9181 42.337 51.2245 42.1455 51.5509C42.0426 51.7413 41.9602 51.942 41.8996 52.1498C41.8033 52.4386 41.6483 52.6845 41.5521 52.9893C41.3543 53.5829 41.3169 54.2085 41.0923 54.8021C40.9572 55.1382 40.8 55.4651 40.6219 55.7806C40.3973 56.3457 40.2655 56.9434 40.2317 57.5506C40.1923 57.907 40.2049 58.2673 40.2691 58.6201C40.3182 58.9887 40.3325 59.3611 40.3119 59.7323C40.265 60.134 40.0886 60.5094 39.8094 60.8018C39.5795 61.0799 39.232 61.1868 38.9754 61.4328C38.7311 61.6351 38.5371 61.8914 38.4088 62.1814C38.3917 62.3216 38.3828 62.4627 38.382 62.6039C38.3286 62.9194 38.2484 63.2135 38.2056 63.529C38.1619 63.9124 38.1423 64.2981 38.1468 64.684C38.1468 64.8818 38.1468 65.085 38.1468 65.2829C38.1468 65.4807 38.227 65.6465 38.2377 65.8176C38.2484 65.9887 38.2377 66.085 38.2377 66.2133C38.2377 66.3417 38.3232 66.5181 38.3606 66.6625C38.4462 67.0154 38.5103 67.3577 38.5798 67.732C38.6549 68.0588 38.7513 68.3803 38.8685 68.6945C39.0037 69.127 39.1091 69.5683 39.1839 70.0153C39.2481 70.3522 39.2481 70.6944 39.2962 71.0366C39.3443 71.3789 39.3977 71.5714 39.4084 71.8548C39.4084 72.2719 39.3229 72.6836 39.3176 73.1007C39.3811 73.809 39.5283 74.5072 39.7559 75.1808C39.804 75.3733 39.8521 75.5658 39.9056 75.753C37.9544 71.8899 37.0249 67.5913 37.2057 63.2669C37.3865 58.9426 38.6715 54.7366 40.9383 51.0499C43.2051 47.3633 46.3781 44.3188 50.1548 42.2067C53.9315 40.0946 58.1861 38.9854 62.513 38.9846C63.0475 38.9846 63.6088 38.9846 64.1541 39.0381C67.4402 39.2462 70.6533 40.0983 73.6108 41.546Z" fill="url(#paint7_linear)"/>
<path style="mix-blend-mode:screen" d="M58.8073 59.9791C65.6769 55.8876 69.1202 48.9998 66.4981 44.5947C63.876 40.1895 56.1814 39.9352 49.3118 44.0266C42.4422 48.1181 38.9989 55.0059 41.621 59.411C44.2431 63.8162 51.9377 64.0705 58.8073 59.9791Z" fill="url(#paint8_radial)"/>
<g opacity="0.5">
<g style="mix-blend-mode:multiply" opacity="0.4">
<path style="mix-blend-mode:multiply" opacity="0.4" fill-rule="evenodd" clip-rule="evenodd" d="M59.5632 71.362C59.5606 71.3425 59.5606 71.3227 59.5632 71.3032C59.7217 71.4478 59.8381 71.6325 59.8999 71.838C59.7716 71.8166 59.6166 71.5011 59.5632 71.362Z" fill="url(#paint9_linear)"/>
<path style="mix-blend-mode:multiply" opacity="0.4" fill-rule="evenodd" clip-rule="evenodd" d="M87.6377 61.1701C87.5348 60.9813 87.4149 60.8023 87.2795 60.6354C86.9992 60.3103 86.6261 60.0789 86.2104 59.9723C85.9056 59.8707 85.5528 59.7263 85.2909 59.9723C85.0337 60.2482 84.8177 60.5598 84.6494 60.8974C84.5371 61.1059 84.3661 61.5337 84.0881 61.5819C83.8101 61.63 83.4787 61.2396 83.3022 61.0471C83.035 60.7797 82.9013 60.3306 82.5966 60.1167C82.3543 59.9586 82.0963 59.826 81.8268 59.721C81.3348 59.5394 80.8167 59.4383 80.2926 59.4215C79.947 59.3643 79.6173 59.2349 79.325 59.0419C78.9799 58.9136 78.6211 58.8256 78.2558 58.7798L77.315 58.5766C77.0014 58.5448 76.7067 58.4115 76.4757 58.197C76.1816 57.8761 75.9732 57.4697 75.6578 57.1756C75.0804 56.6409 74.4068 56.9885 73.6959 56.9885C73.1078 56.9885 72.6267 56.6195 72.0333 56.4537C71.3384 56.2987 70.7503 56.1971 70.3066 55.5875C69.8629 54.9779 70.0286 54.4057 69.8041 53.8122C69.3658 52.6464 67.7727 52.2882 66.6715 52.2079C65.7894 52.1598 64.9822 52.47 64.1162 52.4914C63.3571 52.4914 62.7103 52.3149 62.2238 52.9887C61.7373 53.6624 61.1546 54.4485 60.7323 55.1918C60.3078 55.7665 59.9491 56.3871 59.6632 57.042C59.5509 57.3949 59.5723 57.7959 59.476 58.1542C59.3303 58.6452 59.1026 59.1081 58.8025 59.5231C58.4542 59.8789 58.0379 60.1608 57.5783 60.352C57.2257 60.5699 56.9084 60.8404 56.6374 61.1541C56.2599 61.5216 55.9164 61.9225 55.611 62.3519C55.5003 62.5601 55.3598 62.751 55.1941 62.9187C55.0177 63.0631 54.8038 63.1433 54.6328 63.293C54.4617 63.4427 54.3869 63.5818 54.2425 63.7048C53.9812 63.9297 53.6597 64.0729 53.3177 64.1165C52.7831 64.1165 52.2485 63.7101 51.8048 64.2555C51.4674 64.6218 51.2771 65.0997 51.2703 65.5977C51.3868 65.9779 51.5984 66.3221 51.885 66.5977C52.2753 67.095 53.0558 67.9078 52.8793 68.6297C52.8098 68.9131 52.58 69.0681 52.6441 69.3729C52.7147 69.651 52.7524 69.9363 52.7564 70.2232C52.7564 70.4157 52.6709 70.8221 52.7564 70.9985C52.8419 71.175 53.4086 71.4049 53.6491 71.5333C54.1837 71.7632 54.6488 72.1001 55.178 72.3728C55.4823 72.5945 55.8061 72.7878 56.1456 72.9503C56.4986 73.0181 56.8558 73.0609 57.2148 73.0787C57.4393 73.1214 57.7012 73.1482 57.9258 73.207C58.1503 73.2658 58.2412 73.3888 58.4069 73.4316C59.0909 73.5065 59.781 73.5065 60.465 73.4316C60.8724 73.4971 61.2899 73.4509 61.6732 73.2979C61.8586 73.1932 62.0086 73.0354 62.1038 72.8449C62.1991 72.6543 62.2353 72.4397 62.2077 72.2284C62.1483 71.8055 62.0238 71.3942 61.8389 71.0092C61.7821 70.7612 61.6922 70.522 61.5716 70.298C61.454 70.1376 61.3043 70.1376 61.16 70.036C61.0156 69.9344 60.898 69.7045 60.588 69.651C60.3575 69.6218 60.1249 69.6852 59.9411 69.8275C59.6685 70.0253 59.1767 70.4852 59.2622 70.8435C59.3247 71.0121 59.4253 71.164 59.5562 71.2873C59.5562 71.1001 59.6364 70.9558 59.6632 70.7526C60.1977 70.8809 60.9836 71.0253 61.3791 71.4477C61.3064 71.6335 61.1802 71.7936 61.0166 71.9078C60.8529 72.022 60.6591 72.0852 60.4597 72.0894C59.8075 72.0894 59.2034 72.1856 58.6902 71.7204C58.2732 71.3408 58.2358 70.8221 57.9899 70.3355C57.8812 70.0895 57.7371 69.8607 57.5623 69.6563C57.4166 69.4912 57.2877 69.3121 57.1774 69.1216C56.9742 68.8061 56.755 68.2928 57.0544 67.9826C57.4541 67.675 57.8905 67.4181 58.3534 67.218C58.9575 66.8704 59.5883 66.5656 60.1924 66.218C61.0424 65.7367 61.7266 65.1058 62.7477 65.0309C63.6027 64.9554 64.4577 65.1763 65.1693 65.6565C65.5254 66.0125 65.7833 66.4546 65.9177 66.9399C66.1195 67.3664 66.4222 67.7372 66.7998 68.0201C67.2542 68.3569 67.7353 68.6778 68.2004 69.0093C68.8152 69.4478 69.2695 69.5761 69.6919 70.2446C70.2692 71.3357 70.7091 72.4942 71.0016 73.6936C71.1797 74.286 71.326 74.8876 71.4399 75.4957C71.5839 75.9473 71.7626 76.3871 71.9745 76.8111C72.1135 77.1961 72.2927 77.5653 72.5091 77.9127C72.6347 78.0717 72.729 78.2532 72.7871 78.4474C72.9421 79.2067 72.2044 79.7522 71.8248 80.3083C71.3579 80.8893 70.9829 81.5385 70.7129 82.2333C70.5365 82.8055 70.7503 83.0942 70.8572 83.6129C71.0443 84.522 70.6274 85.0781 70.0447 85.7038C69.747 86.0374 69.3828 86.3052 68.9755 86.4898C67.8566 87.0424 66.849 87.7965 66.0033 88.7143C65.7877 89.0266 65.5113 89.2922 65.1907 89.495C67.3478 89.2697 69.4665 88.7646 71.4934 87.9924C76.7977 85.9715 81.2711 82.2293 84.198 77.3647C87.1248 72.5 88.336 66.794 87.6377 61.1594V61.1701ZM59.3852 61.4909C59.2569 61.8171 58.471 61.9936 58.1717 62.0845C58.0594 62.1166 57.8883 62.1701 57.7868 62.0845C57.5088 61.8599 58.4497 61.1487 58.4443 61.1594L58.1717 61.0257C58.4122 61.0257 58.4817 60.7316 58.7063 60.737C58.8186 60.7772 58.9248 60.833 59.0217 60.9027C59.2141 61.0311 59.4867 61.2236 59.3852 61.4909ZM67.8903 55.6089C67.6818 56.7585 66.4149 57.5713 65.3938 57.935C64.8944 58.1182 64.3647 58.2053 63.8329 58.1916C63.3407 58.2452 62.8442 58.2452 62.3521 58.1916C61.5075 57.9831 61.2829 57.3895 61.5502 56.9992C61.3898 56.5874 61.16 56.2131 61.3524 55.7907C61.5078 55.4782 61.6865 55.1779 61.887 54.8923C62.2398 54.3576 62.7958 54.3576 63.3624 54.1651C64.5652 53.7747 65.8055 53.3576 66.9869 54.0207C67.2812 54.162 67.5253 54.3897 67.6868 54.6735C67.8482 54.9573 67.9192 55.2836 67.8903 55.6089ZM79.2555 79.3725C78.785 80.8216 77.5234 81.5114 76.2137 81.9766C75.5081 82.244 74.8666 82.6076 74.1823 82.9071C74.0003 83.0241 73.7942 83.0984 73.5794 83.1243C73.3646 83.1502 73.1467 83.1272 72.9421 83.0568C72.807 83.013 72.6841 82.9382 72.5831 82.8383C72.4822 82.7383 72.406 82.6162 72.3608 82.4815C72.3156 82.3469 72.3026 82.2035 72.3227 82.0629C72.3429 81.9223 72.3958 81.7883 72.477 81.6718C72.8298 81.0302 73.5462 80.4901 73.4072 79.6773C73.3027 79.1836 73.2757 78.6767 73.327 78.1747C73.4081 77.3699 73.4438 76.5611 73.4339 75.7523C72.8993 76.779 72.8566 75.9181 72.8993 75.3459C72.8968 75.1468 72.9474 74.9506 73.0461 74.7776C73.1448 74.6046 73.2879 74.4611 73.4606 74.362C74.7757 73.4583 76.5879 74.362 77.78 75.0679C78.5244 75.5659 79.0872 76.2921 79.3838 77.1373C79.6014 77.8747 79.5561 78.6648 79.2555 79.3725ZM78.8385 64.2769C78.4483 64.2769 77.8816 63.8117 77.6197 63.5925C77.3661 63.3459 77.1286 63.0834 76.9087 62.8064C76.6694 62.5822 76.4527 62.3351 76.2618 62.0685C76.0974 61.7243 75.9633 61.3664 75.8609 60.999C75.6828 60.4854 75.4573 59.9895 75.1873 59.5178C75.0804 59.8493 75.0537 59.5178 75.3156 59.4001C75.5523 59.3388 75.8007 59.3388 76.0373 59.4001C76.5542 59.4892 77.0203 59.7651 77.347 60.1755C77.7587 60.63 78.2398 61.0364 78.6407 61.4963C79.0416 61.9562 79.6457 62.5978 79.6618 63.1005C79.6725 63.5336 79.2501 64.2769 78.8385 64.2769Z" fill="url(#paint10_linear)"/>
<path style="mix-blend-mode:multiply" opacity="0.4" fill-rule="evenodd" clip-rule="evenodd" d="M82.8907 49.3047C82.6358 49.5061 82.3639 49.685 82.0781 49.8394C81.8678 50.0327 81.6445 50.2113 81.4099 50.3742C81.0694 50.4601 80.7094 50.4222 80.3942 50.2672C79.6992 49.9838 79.2609 49.7325 78.5285 49.9892C78.3162 50.0473 78.1001 50.0902 77.8817 50.1175C77.6946 50.1603 77.6465 50.2619 77.4166 50.2619C76.9836 50.2619 76.5826 49.8501 76.3047 49.5453C76.1905 49.4009 76.0389 49.2907 75.8664 49.2265C75.6939 49.1624 75.5071 49.1469 75.3264 49.1817C74.8666 49.1817 74.3321 49.31 74.2305 49.8555C74.1075 50.5132 74.9094 51.0159 75.3317 51.3474C75.9465 51.834 75.2622 51.9623 75.011 52.4169C74.7597 52.8714 75.2462 53.112 74.888 53.4863C74.1931 54.2403 72.5573 54.7964 71.6378 54.267C70.9963 53.8927 70.6916 53.1976 70.1891 52.6628C69.9058 52.3634 69.5583 52.1281 69.275 51.8287C68.8601 51.3544 68.5309 50.8116 68.302 50.2244C68.5212 50.818 68.147 49.9785 68.024 49.278C68.0167 48.9996 68.0676 48.7227 68.1737 48.4652C68.2325 48.1604 68.0615 48.0374 67.9278 47.7967C67.6819 47.3315 67.281 46.9465 67.6552 46.4492C67.8879 46.1435 68.1473 45.8589 68.4303 45.599C68.7012 45.2822 69.0184 45.0082 69.3712 44.7862C69.4193 44.5669 68.7297 43.9039 68.58 43.7167C68.2485 43.2386 67.8726 42.7928 67.4574 42.3852C67.2863 42.2355 66.9549 42.0804 66.848 41.8826C66.6128 41.4334 67.3131 40.8719 67.6178 40.658C68.0976 40.3359 68.6721 40.1851 69.2482 40.2302C69.6385 40.2302 70.0501 40.2302 70.4617 40.2677C71.0818 40.4655 71.6806 40.6955 72.2793 40.9521C72.723 41.134 73.156 41.3318 73.589 41.5457C77.2692 43.3446 80.4604 46.0065 82.8907 49.3047Z" fill="url(#paint11_linear)"/>
<path style="mix-blend-mode:multiply" opacity="0.4" fill-rule="evenodd" clip-rule="evenodd" d="M75.5981 54.679C76.1327 54.8073 76.6405 54.9624 77.1537 55.1388C77.1236 55.1897 77.1119 55.2494 77.1207 55.3078C77.1295 55.3663 77.1581 55.4199 77.2018 55.4597C77.0011 55.6607 76.7529 55.8078 76.4802 55.8875C76.3532 55.9198 76.2204 55.9221 76.0924 55.8943C75.9644 55.8664 75.8445 55.8092 75.7424 55.727C75.4858 55.5827 75.1758 55.572 75.2079 55.2244C75.2399 54.8768 75.5821 54.7271 75.8921 54.6897L75.5981 54.679Z" fill="url(#paint12_linear)"/>
<path style="mix-blend-mode:multiply" opacity="0.4" fill-rule="evenodd" clip-rule="evenodd" d="M46.8073 84.7631C46.9837 84.8647 47.1654 84.9609 47.3419 85.0572C46.9922 85.1497 46.6339 85.2052 46.2727 85.2229C46.1925 84.8807 46.0214 84.5064 44.9309 83.8594C45.5744 84.1216 46.2011 84.4234 46.8073 84.7631Z" fill="url(#paint13_linear)"/>
<path style="mix-blend-mode:multiply" opacity="0.4" fill-rule="evenodd" clip-rule="evenodd" d="M69.6505 80.9664C69.4589 81.3144 69.3665 81.7084 69.3832 82.1054C69.3832 82.4851 69.3832 82.8701 69.3832 83.2497C69.309 83.7333 69.0713 84.1769 68.7097 84.5064C68.3224 84.9349 67.8965 85.3269 67.4374 85.6774C67.2129 85.8753 67.0899 86.148 66.9028 86.3619C66.7157 86.5758 66.4538 86.7469 66.288 86.9661C66.1472 87.1978 65.9662 87.4024 65.7535 87.5704C65.4547 87.8075 65.1725 88.0648 64.9088 88.3404C64.4544 88.7682 63.9947 89.2334 63.4922 89.6452C63.1608 89.6452 62.824 89.6452 62.4872 89.6452C57.5657 89.6451 52.7514 88.2065 48.6362 85.5063C48.9302 85.5812 49.2243 85.6614 49.5183 85.7149C49.8123 85.7683 50.1437 85.902 50.4645 85.9876C51.0997 86.0706 51.7431 86.0706 52.3783 85.9876C53.2747 86.0205 54.1678 86.1152 55.0512 86.271C55.6304 86.4154 56.2361 86.4154 56.8153 86.271C57.3412 86.1169 57.8472 85.9015 58.3228 85.6293C59.3171 85.0464 60.4985 85.0946 61.5303 84.517C61.974 84.2818 62.3268 83.9021 62.7598 83.6347C63.0096 83.4616 63.2744 83.3113 63.551 83.1856C63.7595 83.116 63.9466 83.1107 64.1604 83.0305C64.695 82.8326 65.2296 82.7257 65.7374 82.4957C66.3584 82.2986 66.9301 81.9709 67.4141 81.5347C67.8982 81.0985 68.2834 80.5638 68.544 79.9665C68.6601 79.5747 68.7071 79.1658 68.683 78.758C68.683 78.5761 68.683 78.389 68.683 78.2232C68.6787 78.0505 68.6425 77.88 68.576 77.7206C68.4477 77.266 68.6883 77.0949 68.8006 76.7206C68.9128 76.3463 69.0304 76.0789 69.116 75.7207C69.231 75.3203 69.2084 74.8928 69.0518 74.5068C68.9984 74.325 68.8807 74.0951 68.8487 73.9346C68.8211 73.7578 68.8086 73.5789 68.8113 73.3999C68.8864 73.7205 68.9995 74.0311 69.148 74.325C69.3731 74.6778 69.5358 75.0667 69.6292 75.4747C69.6181 75.8658 69.5497 76.2531 69.426 76.6244C69.3191 77.0575 69.5009 77.3356 69.4902 77.7687C69.4744 77.9475 69.4852 78.1277 69.5222 78.3034C69.5757 78.5173 69.5917 78.7045 69.6345 78.913C69.7147 79.2606 69.9552 79.5921 70.0354 79.9183C70.1637 80.3194 69.827 80.6563 69.6505 80.9664Z" fill="url(#paint14_linear)"/>
</g>
<path style="mix-blend-mode:multiply" opacity="0.4" fill-rule="evenodd" clip-rule="evenodd" d="M50.1365 81.3894C50.1328 82.019 49.9743 82.638 49.6751 83.1919C49.3758 83.7458 48.945 84.2176 48.4205 84.5657C48.2236 84.7175 48.0057 84.84 47.7737 84.9293C47.2391 84.5603 46.7366 84.1646 46.2448 83.7476C43.6095 81.5451 41.4505 78.8286 39.8993 75.764C38.9033 73.809 38.1717 71.7303 37.7236 69.5824C37.4903 68.4679 37.3331 67.3388 37.2532 66.2029C37.3387 66.1173 37.4242 66.0318 37.5151 65.9302C37.5731 66.7266 37.7534 67.5094 38.0497 68.2509C38.2261 68.8498 38.4346 69.4327 38.5843 70.0369C38.6641 70.5159 38.8464 70.9719 39.1189 71.3738C39.2934 71.6041 39.5312 71.7787 39.8031 71.8764C40.033 71.978 40.2094 72.1705 40.4393 72.2561C40.9716 72.452 41.5346 72.5516 42.1018 72.5502C42.3348 72.5226 42.5706 72.5693 42.7754 72.6839C42.9411 72.7801 43.0854 72.9138 43.2458 73.0208C43.615 73.2715 43.954 73.5639 44.2562 73.8924C44.7159 74.4271 44.6999 75.133 45.0687 75.7051C45.2101 75.921 45.408 76.0939 45.6408 76.2052C45.8736 76.3164 46.1324 76.3617 46.3891 76.3361C47.5011 76.3361 48.474 77.6462 49.062 78.4751C49.6524 79.3443 50.0213 80.3448 50.1365 81.3894Z" fill="url(#paint15_linear)"/>
</g>
<path style="mix-blend-mode:screen" opacity="0.5" fill-rule="evenodd" clip-rule="evenodd" d="M29.8992 52.234C29.8992 52.234 26.9537 64.4207 29.7335 67.5114C33.7107 71.9658 50.1063 57.5065 67.9131 51.3624C85.72 45.2183 93.6424 54.4799 95.0965 53.8864C96.5505 53.2928 89.5582 35.4006 65.2509 33.7001C40.9436 31.9997 33.7321 42.7799 29.8992 52.234Z" fill="url(#paint16_linear)"/>
<path style="mix-blend-mode:screen" opacity="0.5" fill-rule="evenodd" clip-rule="evenodd" d="M97.5644 61.6033C97.5644 82.5488 77.9721 101.227 58.1499 99.3609C37.3013 97.3984 27.449 82.9339 27.449 61.9883C27.449 41.0427 39.0226 32.2944 59.9567 32.2944C80.8909 32.2944 97.5644 40.663 97.5644 61.6033Z" fill="url(#paint17_radial)"/>
<g style="mix-blend-mode:screen" opacity="0.5">
<path style="mix-blend-mode:screen" opacity="0.5" d="M60.8725 99.7572C59.9531 99.7572 59.0389 99.7144 58.1248 99.6289C38.169 97.7466 27.1833 84.3836 27.1833 61.9889C27.1833 41.8294 37.907 32.0437 59.9584 32.0437C84.0145 32.0437 97.8333 42.824 97.8333 61.6199C97.8333 72.0365 93.0542 82.3623 84.7308 89.9609C77.7759 96.26 69.2173 99.7572 60.8725 99.7572ZM59.9584 32.5624C38.2652 32.5624 27.7179 42.1876 27.7179 61.9728C27.7179 84.052 38.5325 97.2279 58.1889 99.0781C67.2287 99.9283 76.7763 96.4418 84.3833 89.5117C92.5945 82.0254 97.3094 71.8654 97.3094 61.5878C97.2988 43.1501 83.6884 32.5624 59.9584 32.5624Z" fill="url(#paint18_radial)"/>
</g>
<path style="mix-blend-mode:screen" opacity="0.5" fill-rule="evenodd" clip-rule="evenodd" d="M29.4343 55.7904C34.487 63.0646 41.2892 68.9493 49.2138 72.902L61.06 64.4478C61.06 64.4478 53.1162 44.7695 52.1753 33.9946C52.17 34.0053 30.5569 36.3207 29.4343 55.7904Z" fill="url(#paint19_linear)"/>
<path fill-rule="evenodd" clip-rule="evenodd" d="M29.8932 57.3737C31.1975 59.2239 35.2015 54.7588 38.5694 50.0799C41.9372 45.401 43.8029 42.6685 43.3325 39.9948C42.8621 37.3211 35.3138 42.1338 32.6409 45.8181C29.968 49.5024 28.6797 55.6412 29.8932 57.3737Z" fill="white"/>
<path fill-rule="evenodd" clip-rule="evenodd" d="M30.0862 58.1064C30.0862 58.1064 28.3328 59.9566 29.3324 61.4378C30.3321 62.9191 31.6311 61.9084 31.4333 60.8443C31.2356 59.7802 30.8507 58.2883 30.0862 58.1064Z" fill="white"/>
<path fill-rule="evenodd" clip-rule="evenodd" d="M79.3404 90.7727C77.9132 91.0338 76.6156 91.7685 75.6572 92.8582C74.0855 94.6709 76.3842 94.3768 77.6779 93.302C78.9715 92.2272 79.3404 91.2807 79.3404 90.7727Z" fill="#BFFFFF"/>
<path style="mix-blend-mode:screen" fill-rule="evenodd" clip-rule="evenodd" d="M78.038 93.0945C78.038 93.0945 62.61 99.8856 48.5613 93.5544C48.5613 93.5544 58.59 104.538 78.038 93.0945Z" fill="url(#paint20_radial)"/>
<path style="mix-blend-mode:screen" fill-rule="evenodd" clip-rule="evenodd" d="M33.6831 44.4227C33.6831 44.4227 37.8956 36.4017 55.3977 33.728C72.8998 31.0544 85.3342 39.2037 89.846 43.4549C89.846 43.4549 77.9783 33.9312 58.5731 35.621C39.1679 37.3107 33.6831 44.4227 33.6831 44.4227Z" fill="url(#paint21_radial)"/>
<path style="mix-blend-mode:screen" opacity="0.5" fill-rule="evenodd" clip-rule="evenodd" d="M89.8452 57.8011C90.3798 54.1007 96.3884 52.689 96.3884 52.689C95.945 51.2224 95.3891 49.7922 94.7259 48.4111C94.7259 48.4111 92.5448 48.7587 85.2692 53.2237C77.9936 57.6888 59.0748 74.565 44.3311 76.1692C29.5874 77.7734 28.5557 73.5437 28.5557 73.5437L29.0368 75.319C29.0368 75.319 45.2613 80.03 42.9358 83.463C40.1507 87.6232 31.9128 83.0031 31.9128 83.0031L32.3726 83.8587C32.3726 83.8587 44.2242 89.1633 63.036 87.6714C81.8479 86.1795 93.3413 78.3403 93.3413 78.3403C96.6664 72.9929 97.5431 62.4265 97.5431 62.4265C97.5431 62.4265 89.2999 61.5014 89.8452 57.8011ZM55.3969 81.5326C49.6448 83.062 43.2833 80.3615 43.016 78.9873C42.6632 77.1424 58.7273 72.2977 60.4754 72.4368C62.2235 72.5758 63.5546 79.3616 55.3969 81.5326ZM87.8512 59.6994C89.7757 59.8331 92.4058 63.1163 91.5291 64.3355C90.6524 65.5547 87.4075 67.2605 86.2314 66.0306C85.0553 64.8008 85.7182 59.555 87.8512 59.6994ZM89.8452 79.3616C86.4025 82.4684 74.4867 85.1421 72.3217 83.8587C69.622 82.2545 89.3747 64.7045 93.4215 65.2125C97.4683 65.7205 93.2932 76.2601 89.8452 79.3616Z" fill="url(#paint22_linear)"/>
<path style="mix-blend-mode:screen" opacity="0.5" fill-rule="evenodd" clip-rule="evenodd" d="M38.3188 91.372C38.3188 91.372 43.9694 95.2916 63.3051 93.3238C82.6408 91.3559 90.4243 83.105 90.4243 83.105L88.286 85.8589C84.8121 88.1567 81.0957 90.0647 77.2041 91.5484C70.7892 94.0029 58.0609 93.8585 55.404 98.9973C55.3987 99.0347 44.8621 97.4305 38.3188 91.372Z" fill="url(#paint23_linear)"/>
<defs>
<filter id="filter0_d" x="0.127686" y="0.940918" width="126.237" height="126.879" filterUnits="userSpaceOnUse" color-interpolation-filters="sRGB">
<feFlood flood-opacity="0" result="BackgroundImageFix"/>
<feColorMatrix in="SourceAlpha" type="matrix" values="0 0 0 0 0 0 0 0 0 0 0 0 0 0 0 0 0 0 127 0"/>
<feOffset/>
<feGaussianBlur stdDeviation="20"/>
<feColorMatrix type="matrix" values="0 0 0 0 0.0855556 0 0 0 0 0.404161 0 0 0 0 0.641667 0 0 0 1 0"/>
<feBlend mode="normal" in2="BackgroundImageFix" result="effect1_dropShadow"/>
<feBlend mode="normal" in="SourceGraphic" in2="effect1_dropShadow" result="shape"/>
</filter>
<radialGradient id="paint0_radial" cx="0" cy="0" r="1" gradientUnits="userSpaceOnUse" gradientTransform="translate(63.7853 70.0207) scale(44.0119 44.0247)">
<stop stop-color="#31D1F9"/>
<stop offset="1" stop-opacity="0"/>
</radialGradient>
<radialGradient id="paint1_radial" cx="0" cy="0" r="1" gradientUnits="userSpaceOnUse" gradientTransform="translate(14296.6 4627.96) scale(4598.17 4599.51)">
<stop stop-color="#31D1F9"/>
<stop offset="1" stop-opacity="0"/>
</radialGradient>
<radialGradient id="paint2_radial" cx="0" cy="0" r="1" gradientUnits="userSpaceOnUse" gradientTransform="translate(12165.2 3944.48) scale(3324.2 3325.17)">
<stop stop-color="#31D1F9"/>
<stop offset="1" stop-opacity="0"/>
</radialGradient>
<radialGradient id="paint3_radial" cx="0" cy="0" r="1" gradientUnits="userSpaceOnUse" gradientTransform="translate(10425.8 3885.15) scale(3471.51 3300.84)">
<stop stop-color="#31D1F9"/>
<stop offset="1" stop-opacity="0"/>
</radialGradient>
<radialGradient id="paint4_radial" cx="0" cy="0" r="1" gradientUnits="userSpaceOnUse" gradientTransform="translate(2355.23 12660.6) rotate(49.7982) scale(3636.7 3903.31)">
<stop stop-color="#31D1F9"/>
<stop offset="1" stop-opacity="0"/>
</radialGradient>
<radialGradient id="paint5_radial" cx="0" cy="0" r="1" gradientUnits="userSpaceOnUse" gradientTransform="translate(62.5091 64.2439) scale(27.9157 27.9239)">
<stop stop-color="#FFFFF9"/>
<stop offset="0.09" stop-color="#F9F9F3"/>
<stop offset="0.22" stop-color="#E8E8E3"/>
<stop offset="0.36" stop-color="#CCCCC7"/>
<stop offset="0.52" stop-color="#A5A5A1"/>
<stop offset="0.68" stop-color="#737370" stop-opacity="0"/>
<stop offset="0.86" stop-color="#373736" stop-opacity="0"/>
<stop offset="1" stop-opacity="0"/>
</radialGradient>
<radialGradient id="paint6_radial" cx="0" cy="0" r="1" gradientUnits="userSpaceOnUse" gradientTransform="translate(50.1703 48.7642) scale(42.4563 42.4687)">
<stop offset="0.01" stop-color="#B1FFFF"/>
<stop offset="0.29" stop-color="#B1FDFF"/>
<stop offset="0.44" stop-color="#AFF5FF"/>
<stop offset="0.55" stop-color="#ACE8FF"/>
<stop offset="0.62" stop-color="#A9DBFF"/>
<stop offset="0.65" stop-color="#A2D7FE"/>
<stop offset="0.7" stop-color="#8FCAFC"/>
<stop offset="0.76" stop-color="#6FB5F9"/>
<stop offset="0.82" stop-color="#4399F4"/>
<stop offset="0.89" stop-color="#0C75EE"/>
<stop offset="0.91" stop-color="#006DED"/>
</radialGradient>
<linearGradient id="paint7_linear" x1="37.1792" y1="57.3635" x2="73.6108" y2="57.3635" gradientUnits="userSpaceOnUse">
<stop offset="0.01" stop-color="#B0E1FF"/>
<stop offset="0.29" stop-color="#ADDEFF"/>
<stop offset="0.5" stop-color="#A5D5FF"/>
<stop offset="0.68" stop-color="#98C5FF"/>
<stop offset="0.85" stop-color="#85AEFF"/>
<stop offset="1" stop-color="#6D93FF"/>
</linearGradient>
<radialGradient id="paint8_radial" cx="0" cy="0" r="1" gradientUnits="userSpaceOnUse" gradientTransform="translate(54.2605 51.9538) rotate(-30.7773) scale(14.5082 9.297)">
<stop stop-color="white"/>
<stop offset="0.17" stop-color="#C5C5C5"/>
<stop offset="0.4" stop-color="#808080"/>
<stop offset="0.6" stop-color="#494949" stop-opacity="0"/>
<stop offset="0.78" stop-color="#212121" stop-opacity="0"/>
<stop offset="0.92" stop-color="#090909" stop-opacity="0"/>
<stop offset="1" stop-opacity="0"/>
</radialGradient>
<linearGradient id="paint9_linear" x1="59.5739" y1="71.5599" x2="59.9106" y2="71.5599" gradientUnits="userSpaceOnUse">
<stop stop-color="#E8DDFF"/>
<stop offset="1" stop-color="#AA8AD8"/>
</linearGradient>
<linearGradient id="paint10_linear" x1="6723.86" y1="3010.59" x2="9223.48" y2="3010.59" gradientUnits="userSpaceOnUse">
<stop stop-color="#E8DDFF"/>
<stop offset="1" stop-color="#AA8AD8"/>
</linearGradient>
<linearGradient id="paint11_linear" x1="3470.51" y1="543.801" x2="3954.82" y2="543.801" gradientUnits="userSpaceOnUse">
<stop stop-color="#E8DDFF"/>
<stop offset="1" stop-color="#AA8AD8"/>
</linearGradient>
<linearGradient id="paint12_linear" x1="528.799" y1="116.669" x2="536.325" y2="116.669" gradientUnits="userSpaceOnUse">
<stop stop-color="#E8DDFF"/>
<stop offset="1" stop-color="#AA8AD8"/>
</linearGradient>
<linearGradient id="paint13_linear" x1="456.334" y1="226.898" x2="467.208" y2="226.898" gradientUnits="userSpaceOnUse">
<stop stop-color="#E8DDFF"/>
<stop offset="1" stop-color="#AA8AD8"/>
</linearGradient>
<linearGradient id="paint14_linear" x1="3853.98" y1="1686.07" x2="4713.01" y2="1686.07" gradientUnits="userSpaceOnUse">
<stop stop-color="#E8DDFF"/>
<stop offset="1" stop-color="#AA8AD8"/>
</linearGradient>
<linearGradient id="paint15_linear" x1="2050.41" y1="1734.24" x2="2361.15" y2="1734.24" gradientUnits="userSpaceOnUse">
<stop stop-color="#E8DDFF"/>
<stop offset="1" stop-color="#AA8AD8"/>
</linearGradient>
<linearGradient id="paint16_linear" x1="28.5467" y1="50.9346" x2="95.2782" y2="50.9346" gradientUnits="userSpaceOnUse">
<stop stop-color="#A4FFE8"/>
<stop offset="0.2" stop-color="#78BBAA"/>
<stop offset="0.42" stop-color="#4E796E"/>
<stop offset="0.61" stop-color="#2C453F"/>
<stop offset="0.78" stop-color="#141F1D"/>
<stop offset="0.91" stop-color="#050808"/>
<stop offset="1"/>
</linearGradient>
<radialGradient id="paint17_radial" cx="0" cy="0" r="1" gradientUnits="userSpaceOnUse" gradientTransform="translate(62.5067 65.8918) scale(34.3307 34.3407)">
<stop offset="0.89"/>
<stop offset="0.9" stop-color="#000506"/>
<stop offset="0.92" stop-color="#001217"/>
<stop offset="0.94" stop-color="#002932"/>
<stop offset="0.96" stop-color="#004858"/>
<stop offset="0.99" stop-color="#006F89"/>
<stop offset="1" stop-color="#008BAB"/>
</radialGradient>
<radialGradient id="paint18_radial" cx="0" cy="0" r="1" gradientUnits="userSpaceOnUse" gradientTransform="translate(14405.2 4773.34) scale(4572.47 4382.42)">
<stop offset="0.89" stop-opacity="0"/>
<stop offset="0.9" stop-color="#000506"/>
<stop offset="0.92" stop-color="#001217"/>
<stop offset="0.94" stop-color="#002932"/>
<stop offset="0.96" stop-color="#004858"/>
<stop offset="0.99" stop-color="#006F89"/>
<stop offset="1" stop-color="#008BAB"/>
</radialGradient>
<linearGradient id="paint19_linear" x1="34.5984" y1="42.5397" x2="62.6531" y2="62.1782" gradientUnits="userSpaceOnUse">
<stop stop-color="#BDFFE8"/>
<stop offset="0.2" stop-color="#8BBBAA"/>
<stop offset="0.42" stop-color="#5A796E"/>
<stop offset="0.895833" stop-color="#171F1D" stop-opacity="0"/>
</linearGradient>
<radialGradient id="paint20_radial" cx="0" cy="0" r="1" gradientUnits="userSpaceOnUse" gradientTransform="translate(63.5807 95.1064) rotate(-12.0982) scale(10.6193 10.6221)">
<stop stop-color="#2C63D9"/>
<stop offset="1" stop-opacity="0"/>
</radialGradient>
<radialGradient id="paint21_radial" cx="0" cy="0" r="1" gradientUnits="userSpaceOnUse" gradientTransform="translate(11385.3 250.235) scale(2127.45 425.091)">
<stop stop-color="#2C63D9"/>
<stop offset="1" stop-opacity="0"/>
</radialGradient>
<linearGradient id="paint22_linear" x1="14137.2" y1="4445.15" x2="14137.2" y2="1522.29" gradientUnits="userSpaceOnUse">
<stop stop-color="#BDFFE8"/>
<stop offset="0.2" stop-color="#8BBBAA"/>
<stop offset="0.42" stop-color="#5A796E"/>
<stop offset="0.651042" stop-color="#171F1D" stop-opacity="0"/>
</linearGradient>
<linearGradient id="paint23_linear" x1="8284.52" y1="1944.01" x2="13362.7" y2="1944.01" gradientUnits="userSpaceOnUse">
<stop stop-color="#BDFFE8"/>
<stop offset="0.2" stop-color="#8BBBAA"/>
<stop offset="0.42" stop-color="#5A796E"/>
<stop offset="0.61" stop-color="#33453F" stop-opacity="0"/>
</linearGradient>
</defs>
</svg>
