<svg width="134" height="129" viewBox="0 0 134 129" fill="none" xmlns="http://www.w3.org/2000/svg">
<g filter="url(#filter0_d)">
<path d="M41.3596 64.511C41.4123 65.0875 41.4884 65.6506 41.5945 66.2118C41.8237 67.4064 42.1791 68.5733 42.6547 69.6928C43.7223 72.2095 45.2974 74.4789 47.2819 76.3593C49.1525 78.149 51.2985 79.6266 53.6378 80.7358C54.8959 81.3398 56.1982 81.847 57.5335 82.2529C58.6637 82.6032 59.814 82.885 60.9781 83.0967C62.0858 83.2878 63.2025 83.4223 64.3238 83.4995C65.4394 83.5713 66.5697 83.588 67.7032 83.5561C68.9013 83.511 70.0963 83.403 71.2831 83.2323C72.6919 83.0365 74.0868 82.751 75.4593 82.3775C78.6105 81.478 81.5877 80.0538 84.2655 78.1647C91.1128 73.3088 94.3592 66.3142 93.7611 59.5627L93.3019 54.7231C93.9417 61.4661 90.6953 68.4607 83.813 73.3368C81.1283 75.2142 78.1532 76.6374 75.0068 77.5496C72.4758 78.2734 69.8664 78.6877 67.2358 78.7834C66.1167 78.8232 64.9963 78.7998 63.8799 78.7133C62.758 78.6415 61.641 78.5071 60.5341 78.3105C57.9903 77.8683 55.519 77.0802 53.1889 75.9681C50.851 74.8565 48.7053 73.3791 46.8329 71.5915C44.8497 69.7102 43.2747 67.441 42.2058 64.9251C41.7367 63.8019 41.3853 62.6331 41.1572 61.4374C41.0476 60.8812 40.9676 60.3196 40.9174 59.7549L41.3596 64.511Z" fill="#FE5D00"/>
<path d="M46.8546 71.5529C37.6131 62.6637 39.1869 49.0244 50.3728 41.0877C61.5586 33.1511 78.1113 33.9439 87.3412 42.8398C96.571 51.7357 94.9941 65.4235 83.823 73.3049C72.652 81.1863 56.0845 80.4487 46.8546 71.5529Z" fill="url(#paint0_linear)"/>
<path d="M50.3648 41.0895C40.8591 47.8382 38.3034 58.6983 43.4188 67.2618C38.6214 58.7638 41.2449 48.1291 50.6007 41.498C61.7816 33.5798 78.3393 34.3542 87.5691 43.25C88.8902 44.5107 90.0363 45.9427 90.9769 47.5079C89.9946 45.7683 88.7599 44.184 87.313 42.8065C78.1034 33.9456 61.5458 33.1712 50.3648 41.0895Z" fill="url(#paint1_linear)"/>
<path style="mix-blend-mode:multiply" d="M83.5161 72.7933C72.3756 80.7816 55.7776 79.9371 46.5477 71.0412C45.2272 69.7801 44.0812 68.3481 43.14 66.7834C44.1266 68.5413 45.3706 70.1417 46.8308 71.5315C56.0606 80.4274 72.6416 81.1883 83.7992 73.2835C93.3166 66.528 95.8705 55.6378 90.7183 47.0645C95.5157 55.5625 92.8486 66.1757 83.5161 72.7933Z" fill="url(#paint2_linear)"/>
<path d="M50.242 69.1974C42.7047 61.9389 44.0334 50.76 53.1225 44.3141C62.2115 37.8682 75.8407 38.4501 83.3583 45.7823C90.8759 53.1144 89.5933 64.1576 80.4226 70.6508C71.2518 77.1439 57.7928 76.4792 50.242 69.1974Z" fill="#FE5D00"/>
<path d="M80.0625 69.2316C70.9268 75.7045 57.3978 75.0803 49.847 67.7985C48.8561 66.8512 47.985 65.7861 47.2532 64.627C48.0923 66.2143 49.182 67.6557 50.4804 68.8957C58.0312 76.1775 71.5603 76.8017 80.696 70.3288C88.6033 64.7208 90.625 55.6319 86.1163 48.5236C89.7883 55.4769 87.5765 63.913 80.0625 69.2316Z" fill="url(#paint3_linear)"/>
<path style="mix-blend-mode:multiply" d="M53.4267 44.0386C45.5194 49.6466 43.4976 58.7355 48.0063 65.8438C44.4232 58.9637 46.6418 50.5393 54.1006 45.2058C63.2363 38.733 76.7721 39.3689 84.3094 46.6273C85.2986 47.5761 86.1695 48.641 86.9032 49.7988C86.0617 48.2078 84.9698 46.7625 83.6692 45.5184C76.1449 38.1747 62.5624 37.5657 53.4267 44.0386Z" fill="url(#paint4_linear)"/>
<path d="M45.2227 69.8145C45.2968 69.9429 45.3777 70.083 45.5403 70.1759L46.0414 75.0069L45.7355 74.6388L45.2829 69.8109" fill="#FE5D00"/>
<path d="M44.0116 68.197L44.2408 68.5939L44.7 73.4334L44.4642 73.0249L44.0116 68.197Z" fill="#FE5D00"/>
<path d="M42.9877 66.5144C43.0618 66.6428 43.136 66.7712 43.2101 66.8996L43.6442 71.7225C43.5701 71.5941 43.4892 71.4541 43.4151 71.3257L42.9626 66.4978" fill="#FE5D00"/>
<path d="M42.1725 64.7866C42.238 64.9147 42.3099 65.0394 42.3882 65.1601L42.8474 69.9997C42.7733 69.8713 42.6992 69.7429 42.6251 69.6145L42.1725 64.7866Z" fill="#FE5D00"/>
<path d="M41.5487 62.9877C41.6161 63.1044 41.6902 63.2328 41.6642 63.4035L42.1351 68.2363C42.0678 68.1196 41.9936 67.9912 42.0196 67.8205L41.5604 62.981" fill="#FE5D00"/>
<path d="M41.1392 61.1247L41.2246 61.5423L41.6838 66.3818C41.6097 66.2534 41.624 66.0895 41.5917 65.9526L41.1392 61.1247Z" fill="#FE5D00"/>
<path d="M40.9037 59.7302L41.363 64.5698L40.9105 59.7419" fill="#FE5D00"/>
<path d="M93.3307 55.628L93.3171 55.2001L93.758 60.0348C93.8254 60.1515 93.7809 60.3172 93.79 60.4676L93.3307 55.628Z" fill="#FE5D00"/>
<path d="M93.3176 57.4715C93.3153 57.3327 93.3247 57.1872 93.3341 57.0417L93.7934 61.8813L93.7652 62.3178L93.3176 57.4715Z" fill="#FE5D00"/>
<path d="M93.1083 59.317L93.1733 58.8904L93.6258 63.7183L93.5559 64.1633L93.1083 59.317Z" fill="#FE5D00"/>
<path d="M92.7043 61.1554L92.8178 60.7319L93.2703 65.5598L93.1568 65.9833L92.7043 61.1554Z" fill="#FE5D00"/>
<path d="M92.1195 62.9759L92.2649 62.5807L92.7175 67.4086L92.5671 67.8222L92.1195 62.9759Z" fill="#FE5D00"/>
<path d="M91.3297 64.7489L91.5236 64.3568L91.9762 69.1847L91.789 69.5884L91.3297 64.7489Z" fill="#FE5D00"/>
<path d="M90.3966 66.5214L90.639 66.1325L91.0798 70.9671L90.8558 71.361L90.3966 66.5214Z" fill="#FE5D00"/>
<path d="M89.209 68.1387L89.4883 67.7596L89.9475 72.5992L89.6683 72.9783L89.209 68.1387Z" fill="#FE5D00"/>
<path d="M87.8663 69.7351L88.2007 69.3708L88.6484 74.2171L88.3256 74.5746L87.8663 69.7351Z" fill="#FE5D00"/>
<path d="M86.327 71.2755L86.6934 70.9395L87.1342 75.7741L86.7863 76.115L86.327 71.2755Z" fill="#FE5D00"/>
<path d="M84.6362 72.6938L85.0681 72.4444L85.5274 77.284L85.0954 77.5334L84.6362 72.6938Z" fill="#FE5D00"/>
<path d="M82.8212 74.0058L83.2765 73.7429L83.7358 78.5825L83.2805 78.8454L82.8212 74.0058Z" fill="#FE5D00"/>
<path d="M80.7929 75.1731L81.2365 74.9169L81.6958 79.7565L81.2522 80.0126L80.7996 75.1847" fill="#FE5D00"/>
<path d="M78.7404 76.1601L79.1957 75.8973L79.6433 80.7436L79.1997 80.9997L78.7404 76.1601Z" fill="#FE5D00"/>
<path d="M76.6344 76.9929L77.1252 76.8185L77.6047 81.693L77.1139 81.8675L76.6546 77.0279" fill="#FE5D00"/>
<path d="M74.4164 77.677L74.9158 77.5443L75.375 82.3839L74.8757 82.5165L74.4164 77.677Z" fill="#FE5D00"/>
<path d="M72.2045 78.1902L72.7057 78.0876L73.1649 82.9271L72.6638 83.0297L72.2045 78.1902Z" fill="#FE5D00"/>
<path d="M69.9679 78.5444L70.4826 78.4652L70.9418 83.3047L70.4205 83.3723L69.9679 78.5444Z" fill="#FE5D00"/>
<path d="M67.7135 78.7358L68.225 78.7051L68.6776 83.533L68.1661 83.5637L67.7135 78.7358Z" fill="#FE5D00"/>
<path d="M65.4775 78.7609L65.9975 78.772L66.45 83.5999L65.9367 83.6005L65.4775 78.7609Z" fill="#FE5D00"/>
<path d="M63.1818 78.6335L63.7036 78.6746L64.1629 83.5142L63.6411 83.4731L63.1818 78.6335Z" fill="#FE5D00"/>
<path d="M60.9818 78.3497L61.4821 78.4344L61.9413 83.2739L61.4294 83.196L60.9818 78.3497Z" fill="#FE5D00"/>
<path d="M58.8165 77.9061L59.3069 78.0276L59.7662 82.8671L59.2641 82.7524L58.8165 77.9061Z" fill="#FE5D00"/>
<path d="M56.7047 77.3139L57.1785 77.4605L57.6328 82.3185L57.1406 82.1669L56.7047 77.3139Z" fill="#FE5D00"/>
<path d="M54.6938 76.5298L55.146 76.72L55.6053 81.5596C55.4561 81.4901 55.3021 81.4389 55.1413 81.3761L54.6938 76.5298Z" fill="#FE5D00"/>
<path d="M52.6305 75.6387C52.7747 75.7267 52.9238 75.7962 53.0796 75.8774L53.5321 80.7053L53.0781 80.485L52.6305 75.6387Z" fill="#FE5D00"/>
<path d="M50.7499 74.5927L51.1757 74.8449L51.635 79.6845L51.2024 79.4206L50.7499 74.5927Z" fill="#FE5D00"/>
<path d="M48.9647 73.3223C49.0972 73.417 49.2248 73.5301 49.3573 73.6248L49.8098 78.4527L49.4123 78.1686L48.9647 73.3223Z" fill="#FE5D00"/>
<path d="M47.3278 72.0075L47.7038 72.3352L48.163 77.1747L47.7871 76.8471L47.3278 72.0075Z" fill="#FE5D00"/>
</g>
<defs>
<filter id="filter0_d" x="0.833008" y="0.615479" width="132.998" height="127.985" filterUnits="userSpaceOnUse" color-interpolation-filters="sRGB">
<feFlood flood-opacity="0" result="BackgroundImageFix"/>
<feColorMatrix in="SourceAlpha" type="matrix" values="0 0 0 0 0 0 0 0 0 0 0 0 0 0 0 0 0 0 127 0"/>
<feOffset dy="5"/>
<feGaussianBlur stdDeviation="20"/>
<feColorMatrix type="matrix" values="0 0 0 0 0.898039 0 0 0 0 0.788235 0 0 0 0 0.34902 0 0 0 0.5 0"/>
<feBlend mode="normal" in2="BackgroundImageFix" result="effect1_dropShadow"/>
<feBlend mode="normal" in="SourceGraphic" in2="effect1_dropShadow" result="shape"/>
</filter>
<linearGradient id="paint0_linear" x1="-246401" y1="640311" x2="-249934" y2="639082" gradientUnits="userSpaceOnUse">
<stop stop-color="#E7A547"/>
<stop offset="0.03" stop-color="#E89739"/>
<stop offset="0.1" stop-color="#EB8020"/>
<stop offset="0.16" stop-color="#EC7111"/>
<stop offset="0.21" stop-color="#ED6C0C"/>
<stop offset="0.32" stop-color="#E98E31"/>
<stop offset="0.56" stop-color="#E2D178"/>
<stop offset="0.6" stop-color="#E3CC73"/>
<stop offset="0.66" stop-color="#E4BF64"/>
<stop offset="0.73" stop-color="#E7A84B"/>
<stop offset="0.8" stop-color="#EA8928"/>
<stop offset="0.84" stop-color="#ED710D"/>
<stop offset="0.89" stop-color="#E7670A"/>
<stop offset="0.97" stop-color="#D64D03"/>
<stop offset="1" stop-color="#D04300"/>
</linearGradient>
<linearGradient id="paint1_linear" x1="-48011.7" y1="522673" x2="-47115.6" y2="522232" gradientUnits="userSpaceOnUse">
<stop stop-color="#AD3A00"/>
<stop offset="0.02" stop-color="#B6520F"/>
<stop offset="0.06" stop-color="#C77E2A"/>
<stop offset="0.11" stop-color="#D4A13F"/>
<stop offset="0.15" stop-color="#DDBA4F"/>
<stop offset="0.18" stop-color="#E3C958"/>
<stop offset="0.21" stop-color="#E5CE5B"/>
<stop offset="0.56" stop-color="#E2D178"/>
<stop offset="0.63" stop-color="#E3D073"/>
<stop offset="0.72" stop-color="#E4CF64"/>
<stop offset="0.76" stop-color="#E5CE5B"/>
<stop offset="0.85" stop-color="#C8822C"/>
<stop offset="0.94" stop-color="#AD3A00"/>
<stop offset="0.95" stop-color="#C04603"/>
<stop offset="0.97" stop-color="#D95606"/>
<stop offset="0.99" stop-color="#E86008"/>
<stop offset="1" stop-color="#ED6309"/>
</linearGradient>
<linearGradient id="paint2_linear" x1="-48639.3" y1="523982" x2="-47730.5" y2="523539" gradientUnits="userSpaceOnUse">
<stop stop-color="#750900"/>
<stop offset="0.16" stop-color="#8D1C00"/>
<stop offset="0.48" stop-color="#CA4B00"/>
<stop offset="0.5" stop-color="#CE4E00"/>
<stop offset="1" stop-color="#750900"/>
</linearGradient>
<linearGradient id="paint3_linear" x1="-42901.4" y1="427494" x2="-42277.6" y2="427188" gradientUnits="userSpaceOnUse">
<stop stop-color="#AD3A00"/>
<stop offset="0.01" stop-color="#B2480A"/>
<stop offset="0.02" stop-color="#BF6C23"/>
<stop offset="0.04" stop-color="#CB8B38"/>
<stop offset="0.05" stop-color="#D4A44A"/>
<stop offset="0.07" stop-color="#DBB757"/>
<stop offset="0.1" stop-color="#E0C561"/>
<stop offset="0.12" stop-color="#E3CD66"/>
<stop offset="0.18" stop-color="#E4CF68"/>
<stop offset="0.56" stop-color="#E2D178"/>
<stop offset="0.67" stop-color="#E3D073"/>
<stop offset="0.82" stop-color="#E4CF64"/>
<stop offset="0.88" stop-color="#E5CE5B"/>
<stop offset="0.92" stop-color="#E8AA40"/>
<stop offset="1" stop-color="#ED6309"/>
</linearGradient>
<linearGradient id="paint4_linear" x1="-43718.4" y1="426980" x2="-43380.8" y2="427929" gradientUnits="userSpaceOnUse">
<stop stop-color="#750900"/>
<stop offset="0.1" stop-color="#8D1C00"/>
<stop offset="0.32" stop-color="#CA4B00"/>
<stop offset="0.34" stop-color="#CE4E00"/>
<stop offset="0.55" stop-color="#EA9226"/>
<stop offset="0.58" stop-color="#E99A2E"/>
<stop offset="0.65" stop-color="#E7AF41"/>
<stop offset="0.74" stop-color="#E6BE4F"/>
<stop offset="0.84" stop-color="#E5C657"/>
<stop offset="0.99" stop-color="#E5C959"/>
</linearGradient>
</defs>
</svg>
