<svg width="137" height="136" viewBox="0 0 137 136" fill="none" xmlns="http://www.w3.org/2000/svg">
<g filter="url(#filter0_d)">
<path d="M52.3682 48.4515C52.1395 48.7755 51.9203 49.1185 51.7202 49.471C51.2944 50.2158 50.9432 51.0009 50.672 51.8148C50.0809 53.6588 49.8765 55.6048 50.0717 57.5314C50.2491 59.356 50.7155 61.1409 51.4534 62.8192C51.8457 63.7208 52.3077 64.5905 52.8351 65.4203C53.2788 66.1292 53.7657 66.8101 54.2931 67.4592C54.7898 68.0704 55.3178 68.6555 55.875 69.2123C56.4396 69.7716 57.0345 70.2996 57.6569 70.7939C58.3124 71.3275 58.9997 71.8207 59.7152 72.2707C60.5679 72.8126 61.4561 73.2964 62.3739 73.7189C64.4811 74.6875 66.7359 75.2962 69.0444 75.5196C74.9334 76.0817 79.8982 73.8427 82.6616 69.9459L84.6437 67.1543C81.8802 71.0511 76.925 73.2901 71.0264 72.728C68.7178 72.5057 66.4629 71.8969 64.356 70.9273C63.4383 70.5083 62.55 70.0276 61.6973 69.4886C60.9788 69.0386 60.2883 68.5454 59.6295 68.0118C59.0212 67.505 58.4392 66.9676 57.8856 66.4016C57.3254 65.845 56.7942 65.2598 56.2943 64.6485C55.7721 63.9955 55.2854 63.3148 54.8363 62.6096C54.3124 61.7777 53.8506 60.9083 53.4545 60.0086C52.7186 58.3363 52.2523 56.558 52.0728 54.7398C51.8796 52.8126 52.0873 50.8663 52.6827 49.0232C52.9484 48.2056 53.2964 47.4171 53.7214 46.6698C53.931 46.3269 54.1406 45.9839 54.3789 45.6599L52.3682 48.4515Z" fill="#FE5D00"/>
<path d="M52.0534 54.7391C51.2244 45.7355 58.3427 39.1709 67.9768 40.0856C77.6108 41.0002 86.0823 49.0416 86.9304 58.0547C87.7785 67.0679 80.6411 73.6229 71.0071 72.7082C61.373 71.7936 52.892 63.7713 52.0534 54.7391Z" fill="url(#paint0_linear)"/>
<path d="M67.977 40.0858C59.7914 39.3045 53.4163 43.935 52.168 50.8711C53.5211 44.116 59.7914 39.6475 67.8721 40.3907C77.5062 41.3434 85.9777 49.3562 86.8258 58.3598C86.9474 59.65 86.8994 60.9504 86.6828 62.2281C86.9558 60.8482 87.0265 59.4361 86.8925 58.0359C86.092 49.0418 77.6015 41.0005 67.977 40.0858Z" fill="url(#paint1_linear)"/>
<path style="mix-blend-mode:multiply" d="M71.0834 72.3471C61.4589 71.3943 52.9779 63.3911 52.1393 54.378C52.0118 53.1074 52.0567 51.8254 52.2727 50.5669C51.9965 51.9623 51.9227 53.3902 52.0536 54.8067C52.8921 63.8199 61.3827 71.8612 71.0072 72.7758C79.2119 73.5571 85.5869 68.9648 86.7876 61.9524C85.4154 68.6218 79.1261 73.0712 71.0834 72.3471Z" fill="url(#paint2_linear)"/>
<path d="M55.2463 55.0439C54.5602 47.679 60.3826 42.3245 68.2537 43.0677C76.1249 43.8108 83.0526 50.4325 83.7387 57.7498C84.4248 65.067 78.6025 70.4406 70.7313 69.726C62.8602 69.0115 55.9801 62.4088 55.2463 55.0439Z" fill="#FE5D00"/>
<path d="M70.9054 68.8119C63.0438 68.0592 56.1065 61.4851 55.4204 54.1298C55.3348 53.1773 55.3604 52.2181 55.4966 51.2715C55.2056 52.5197 55.1219 53.8072 55.2489 55.0825C55.935 62.4474 62.8722 69.0215 70.7339 69.7647C77.5377 70.4125 82.8169 66.4872 83.6746 60.6467C82.4262 65.9346 77.3471 69.4217 70.9054 68.8119Z" fill="url(#paint3_linear)"/>
<path style="mix-blend-mode:multiply" d="M68.2556 43.0681C61.4518 42.4202 56.1726 46.3456 55.3149 52.1861C56.5633 46.8601 61.6424 43.373 68.0841 43.9828C75.9934 44.7164 82.883 51.3095 83.6168 58.6649C83.7069 59.6172 83.6813 60.577 83.5405 61.5232C83.8315 60.275 83.9152 58.9875 83.7883 57.7121C83.0545 50.433 76.1268 43.8208 68.2556 43.0681Z" fill="url(#paint4_linear)"/>
<path d="M51.9938 53.063C51.9938 53.1773 51.9938 53.2821 51.9938 53.3965L50.0117 56.1976V55.8546L52.0033 53.063" fill="#FE5D00"/>
<path d="M52.0939 51.6338C52.0939 51.7481 52.0939 51.8529 52.0939 51.9577L50.0737 54.7589V54.4254L52.0653 51.6338" fill="#FE5D00"/>
<path d="M52.321 50.2712C52.321 50.3665 52.2734 50.4713 52.2543 50.5761L50.2627 53.3677C50.2627 53.2629 50.2627 53.1676 50.3294 53.0628L52.3115 50.2712" fill="#FE5D00"/>
<path d="M52.6819 48.9565C52.6819 49.0613 52.6152 49.1566 52.5866 49.2614L50.6045 52.053C50.6305 51.9528 50.6623 51.8542 50.6998 51.7577L52.6819 48.9565Z" fill="#FE5D00"/>
<path d="M53.168 47.718L53.0441 48.0038L51.062 50.7954C51.062 50.7002 51.1382 50.6049 51.1859 50.5096L53.168 47.718Z" fill="#FE5D00"/>
<path d="M53.7893 46.5269C53.7417 46.6126 53.694 46.7079 53.6369 46.7936L51.6548 49.5852L51.8073 49.3184L53.7893 46.5269Z" fill="#FE5D00"/>
<path d="M54.3422 45.6692L52.3506 48.5275C53.0176 47.5747 53.6751 46.622 54.3422 45.7359" fill="#FE5D00"/>
<path d="M84.245 67.6498L84.4261 67.4116L82.444 70.2032L82.2534 70.4414L84.245 67.6498Z" fill="#FE5D00"/>
<path d="M83.3771 68.6305L83.5867 68.4114L81.6047 71.203L81.395 71.4221L83.3771 68.6305Z" fill="#FE5D00"/>
<path d="M82.4127 69.4882L82.651 69.2881L80.6594 72.0892L80.4307 72.2798L82.4127 69.4882Z" fill="#FE5D00"/>
<path d="M81.3566 70.3173L81.6139 70.1362L79.6318 72.9278L79.3745 73.1089L81.3566 70.3173Z" fill="#FE5D00"/>
<path d="M80.1945 71.0223L80.4613 70.8699L78.4792 73.6615L78.2124 73.8139L80.1945 71.0223Z" fill="#FE5D00"/>
<path d="M78.9652 71.6036L79.2511 71.4797L77.269 74.2523L76.9736 74.3761L78.9652 71.5845" fill="#FE5D00"/>
<path d="M77.6605 72.0796L77.9655 71.9844L75.9929 74.776L75.688 74.8712L77.6796 72.0796" fill="#FE5D00"/>
<path d="M76.2687 72.4422L76.5927 72.366L74.6106 75.2052L74.2866 75.2814L76.2687 72.4898" fill="#FE5D00"/>
<path d="M74.8175 72.6802H75.1606L73.1785 75.4718H72.8354L74.8175 72.6802Z" fill="#FE5D00"/>
<path d="M73.2868 72.7847H73.6394L71.6477 75.5763H71.3047L73.2868 72.7847Z" fill="#FE5D00"/>
<path d="M71.724 72.7654H72.0861L70.0945 75.557H69.7324L71.724 72.7654Z" fill="#FE5D00"/>
<path d="M70.1225 72.6038H70.4846L68.5025 75.3954H68.1309L70.1225 72.6038Z" fill="#FE5D00"/>
<path d="M68.529 72.3467L68.8911 72.4229L66.909 75.205L66.5469 75.1288L68.529 72.3467Z" fill="#FE5D00"/>
<path d="M66.9777 71.8989L67.3303 72.0037L65.3482 74.8049L64.9956 74.7001L66.9777 71.8989Z" fill="#FE5D00"/>
<path d="M65.5097 71.3938L65.8432 71.5272L63.8611 74.3188L63.5181 74.1854L65.5097 71.3938Z" fill="#FE5D00"/>
<path d="M63.966 70.7173L64.2995 70.8697L62.3174 73.6709L61.9839 73.5089L63.966 70.7173Z" fill="#FE5D00"/>
<path d="M62.5541 69.9746L62.8686 70.1556L60.8865 72.9472L60.5625 72.7662L62.5541 69.9746Z" fill="#FE5D00"/>
<path d="M61.1935 69.1262L61.4984 69.3263L59.5164 72.1274L59.2114 71.9273L61.1935 69.1262Z" fill="#FE5D00"/>
<path d="M59.9074 68.1926L60.1932 68.4118L58.2112 71.2129L57.9253 70.9842L59.9074 68.1926Z" fill="#FE5D00"/>
<path d="M58.6862 67.1731L58.9626 67.4208L56.9328 70.2124L56.666 69.9742L58.6481 67.1731" fill="#FE5D00"/>
<path d="M57.5241 66.0586L57.7814 66.3158L55.7993 69.1074L55.542 68.8502L57.5241 66.0586Z" fill="#FE5D00"/>
<path d="M56.4772 64.8865L56.7154 65.1628L54.7333 67.9544C54.6489 67.8667 54.5694 67.7745 54.4951 67.6781L56.4772 64.8865Z" fill="#FE5D00"/>
<path d="M55.5224 63.6482C55.5891 63.753 55.6653 63.8483 55.732 63.9435L53.7499 66.7352L53.5308 66.4493L55.5224 63.6482Z" fill="#FE5D00"/>
<path d="M54.6669 62.3613L54.848 62.6567L52.8659 65.4483L52.6753 65.1529L54.6669 62.3613Z" fill="#FE5D00"/>
<path d="M53.9142 61.0083L54.0762 61.3227L52.0941 64.1143C52.037 64.0095 51.9798 63.9142 51.9321 63.8094L53.9142 61.0083Z" fill="#FE5D00"/>
<path d="M53.2653 59.5891L53.3987 59.9226L51.4166 62.7142C51.369 62.5999 51.3213 62.4951 51.2832 62.3902L53.2653 59.5891Z" fill="#FE5D00"/>
<path d="M52.7492 58.1599C52.7492 58.2742 52.8159 58.3886 52.854 58.4934L50.8719 61.285C50.8313 61.1757 50.7963 61.0644 50.7671 60.9515L52.7492 58.1599Z" fill="#FE5D00"/>
<path d="M52.3566 56.6929L52.4424 57.0359L50.4507 59.837C50.4507 59.7227 50.4507 59.6083 50.3745 59.494L52.3566 56.6929Z" fill="#FE5D00"/>
<path d="M52.113 55.197C52.113 55.3114 52.113 55.4257 52.113 55.54L50.1214 58.3411C50.1214 58.2173 50.1214 58.103 50.0737 57.9886L52.113 55.197Z" fill="#FE5D00"/>
</g>
<defs>
<filter id="filter0_d" x="0" y="0" width="136.999" height="135.605" filterUnits="userSpaceOnUse" color-interpolation-filters="sRGB">
<feFlood flood-opacity="0" result="BackgroundImageFix"/>
<feColorMatrix in="SourceAlpha" type="matrix" values="0 0 0 0 0 0 0 0 0 0 0 0 0 0 0 0 0 0 127 0"/>
<feOffset dy="10"/>
<feGaussianBlur stdDeviation="25"/>
<feColorMatrix type="matrix" values="0 0 0 0 0.898039 0 0 0 0 0.788235 0 0 0 0 0.34902 0 0 0 0.5 0"/>
<feBlend mode="normal" in2="BackgroundImageFix" result="effect1_dropShadow"/>
<feBlend mode="normal" in="SourceGraphic" in2="effect1_dropShadow" result="shape"/>
</filter>
<linearGradient id="paint0_linear" x1="-569283" y1="261129" x2="-570520" y2="258827" gradientUnits="userSpaceOnUse">
<stop stop-color="#E7A547"/>
<stop offset="0.03" stop-color="#E89739"/>
<stop offset="0.1" stop-color="#EB8020"/>
<stop offset="0.16" stop-color="#EC7111"/>
<stop offset="0.21" stop-color="#ED6C0C"/>
<stop offset="0.32" stop-color="#E98E31"/>
<stop offset="0.56" stop-color="#E2D178"/>
<stop offset="0.6" stop-color="#E3CC73"/>
<stop offset="0.66" stop-color="#E4BF64"/>
<stop offset="0.73" stop-color="#E7A84B"/>
<stop offset="0.8" stop-color="#EA8928"/>
<stop offset="0.84" stop-color="#ED710D"/>
<stop offset="0.89" stop-color="#E7670A"/>
<stop offset="0.97" stop-color="#D64D03"/>
<stop offset="1" stop-color="#D04300"/>
</linearGradient>
<linearGradient id="paint1_linear" x1="-402810" y1="288580" x2="-401994" y2="288807" gradientUnits="userSpaceOnUse">
<stop stop-color="#AD3A00"/>
<stop offset="0.02" stop-color="#B6520F"/>
<stop offset="0.06" stop-color="#C77E2A"/>
<stop offset="0.11" stop-color="#D4A13F"/>
<stop offset="0.15" stop-color="#DDBA4F"/>
<stop offset="0.18" stop-color="#E3C958"/>
<stop offset="0.21" stop-color="#E5CE5B"/>
<stop offset="0.56" stop-color="#E2D178"/>
<stop offset="0.63" stop-color="#E3D073"/>
<stop offset="0.72" stop-color="#E4CF64"/>
<stop offset="0.76" stop-color="#E5CE5B"/>
<stop offset="0.85" stop-color="#C8822C"/>
<stop offset="0.94" stop-color="#AD3A00"/>
<stop offset="0.95" stop-color="#C04603"/>
<stop offset="0.97" stop-color="#D95606"/>
<stop offset="0.99" stop-color="#E86008"/>
<stop offset="1" stop-color="#ED6309"/>
</linearGradient>
<linearGradient id="paint2_linear" x1="-404021" y1="288976" x2="-403197" y2="289210" gradientUnits="userSpaceOnUse">
<stop stop-color="#750900"/>
<stop offset="0.16" stop-color="#8D1C00"/>
<stop offset="0.48" stop-color="#CA4B00"/>
<stop offset="0.5" stop-color="#CE4E00"/>
<stop offset="1" stop-color="#750900"/>
</linearGradient>
<linearGradient id="paint3_linear" x1="-332473" y1="234311" x2="-331907" y2="234469" gradientUnits="userSpaceOnUse">
<stop stop-color="#AD3A00"/>
<stop offset="0.01" stop-color="#B2480A"/>
<stop offset="0.02" stop-color="#BF6C23"/>
<stop offset="0.04" stop-color="#CB8B38"/>
<stop offset="0.05" stop-color="#D4A44A"/>
<stop offset="0.07" stop-color="#DBB757"/>
<stop offset="0.1" stop-color="#E0C561"/>
<stop offset="0.12" stop-color="#E3CD66"/>
<stop offset="0.18" stop-color="#E4CF68"/>
<stop offset="0.56" stop-color="#E2D178"/>
<stop offset="0.67" stop-color="#E3D073"/>
<stop offset="0.82" stop-color="#E4CF64"/>
<stop offset="0.88" stop-color="#E5CE5B"/>
<stop offset="0.92" stop-color="#E8AA40"/>
<stop offset="1" stop-color="#ED6309"/>
</linearGradient>
<linearGradient id="paint4_linear" x1="-331540" y1="234412" x2="-331765" y2="235061" gradientUnits="userSpaceOnUse">
<stop stop-color="#750900"/>
<stop offset="0.1" stop-color="#8D1C00"/>
<stop offset="0.32" stop-color="#CA4B00"/>
<stop offset="0.34" stop-color="#CE4E00"/>
<stop offset="0.55" stop-color="#EA9226"/>
<stop offset="0.58" stop-color="#E99A2E"/>
<stop offset="0.65" stop-color="#E7AF41"/>
<stop offset="0.74" stop-color="#E6BE4F"/>
<stop offset="0.84" stop-color="#E5C657"/>
<stop offset="0.99" stop-color="#E5C959"/>
</linearGradient>
</defs>
</svg>
