<svg width="134" height="130" viewBox="0 0 134 130" fill="none" xmlns="http://www.w3.org/2000/svg">
<g filter="url(#filter0_d)">
<path d="M46.0817 69.8782C46.2933 70.4174 46.5329 70.9452 46.7995 71.4595C47.3652 72.5512 48.0378 73.5843 48.8072 74.5434C50.5632 76.6922 52.7434 78.4559 55.2117 79.7244C57.5375 80.93 60.0399 81.759 62.6256 82.1804C64.0168 82.4052 65.4225 82.5289 66.8316 82.5504C68.0302 82.5616 69.2285 82.5054 70.4208 82.3822C71.5424 82.2589 72.6641 82.0794 73.7857 81.8439C74.8992 81.6001 75.9997 81.3007 77.0832 80.9468C78.2273 80.5607 79.3504 80.1152 80.4481 79.6123C81.762 79.0096 83.0325 78.3164 84.2504 77.5376C87.0569 75.7741 89.5446 73.5485 91.6082 70.9548C96.8798 64.3047 98.0463 56.6005 95.5227 50.242L93.7169 45.6665C96.2405 52.0362 95.0628 59.7405 89.7912 66.3906C87.7288 68.9812 85.2453 71.2065 82.4446 72.9734C81.2204 73.7479 79.9464 74.441 78.6311 75.0481C77.5368 75.5558 76.4132 75.9977 75.2662 76.3714C74.1871 76.7304 73.0902 77.0335 71.9799 77.2797C70.8583 77.5152 69.7366 77.6946 68.615 77.818C67.4227 77.9409 66.2244 77.9971 65.0258 77.9862C63.6167 77.9652 62.2109 77.8415 60.8198 77.6161C58.2341 77.1947 55.7317 76.3658 53.4059 75.1602C50.9342 73.8969 48.753 72.1324 47.0014 69.9792C46.2282 69.0227 45.5555 67.9893 44.9937 66.8952C44.7271 66.381 44.4875 65.8532 44.2759 65.314L46.0817 69.8782Z" fill="#FE5D00"/>
<path d="M53.4053 75.1612C41.9199 69.1503 39.587 55.4576 48.1898 44.6021C56.7926 33.7466 73.1009 29.7992 84.5863 35.8213C96.0717 41.8434 98.4047 55.5248 89.7906 66.3915C81.1766 77.2582 64.8907 81.1833 53.4053 75.1612Z" fill="url(#paint0_linear)"/>
<path d="M48.2012 44.6017C40.8882 53.8311 41.4715 65.1015 48.8742 71.9647C41.808 65.0679 41.3481 54.0217 48.5489 44.9269C57.1517 34.0602 73.4489 30.1352 84.9342 36.1461C86.564 37.0093 88.0725 38.0839 89.4207 39.3422C87.9727 37.9393 86.3293 36.7533 84.5417 35.8209C73.1011 29.7988 56.804 33.735 48.2012 44.6017Z" fill="url(#paint1_linear)"/>
<path style="mix-blend-mode:multiply" d="M89.3634 65.987C80.7606 76.8425 64.4635 80.7676 52.9669 74.7567C51.34 73.9026 49.8317 72.8394 48.4805 71.5942C49.9421 73.018 51.6049 74.2195 53.4156 75.1604C64.901 81.1825 81.1981 77.2575 89.8009 66.3908C97.1363 57.1389 96.5306 45.8461 89.0943 38.9829C96.1044 45.9134 96.553 56.9146 89.3634 65.987Z" fill="url(#paint2_linear)"/>
<path d="M56.2534 71.5602C46.8654 66.6483 44.9587 55.4676 51.9912 46.5859C59.0238 37.7041 72.3486 34.4968 81.7253 39.4199C91.1021 44.343 93.0313 55.5237 85.9875 64.4055C78.9437 73.2872 65.6413 76.4833 56.2534 71.5602Z" fill="#FE5D00"/>
<path d="M85.0228 63.4746C77.9903 72.3563 64.6766 75.5636 55.2887 70.6405C54.0815 70.0031 52.9523 69.2279 51.9238 68.3304C53.1914 69.6338 54.6609 70.7244 56.2757 71.5601C65.6637 76.4832 78.9773 73.2759 86.0098 64.4054C92.1002 56.7235 91.4945 47.3147 85.135 41.73C90.5412 47.3932 90.8216 56.2077 85.0228 63.4746Z" fill="url(#paint3_linear)"/>
<path style="mix-blend-mode:multiply" d="M51.9907 46.5855C45.9115 54.2673 46.5172 63.6762 52.8768 69.2497C47.4369 63.6425 47.2014 54.7832 52.9553 47.5163C59.999 38.6345 73.3127 35.4272 82.7006 40.3391C83.9124 40.9733 85.0424 41.7528 86.0655 42.6605C84.8035 41.3476 83.3331 40.2525 81.7136 39.4195C72.3481 34.4965 59.0345 37.715 51.9907 46.5855Z" fill="url(#paint4_linear)"/>
<path d="M51.3306 73.9497L51.7456 74.2189L53.5514 78.7831L53.1476 78.5252L51.3306 73.9497Z" fill="#FE5D00"/>
<path d="M49.6929 72.7046L50.063 72.9962L51.8688 77.5716L51.566 77.3137L49.749 72.7494" fill="#FE5D00"/>
<path d="M48.2017 71.3589L48.5269 71.6841L50.3439 76.2483C50.23 76.1455 50.1214 76.037 50.0187 75.9231L48.2017 71.3589Z" fill="#FE5D00"/>
<path d="M46.9326 69.9009L47.2242 70.2485L49.0301 74.8128L48.7497 74.4763L46.9326 69.9009Z" fill="#FE5D00"/>
<path d="M45.8218 68.3423L46.0685 68.7124L47.8743 73.2766L47.6388 72.9065L45.8218 68.3423Z" fill="#FE5D00"/>
<path d="M44.8364 66.6714L45.0383 67.0639L46.8441 71.6281L46.6422 71.2468L44.8364 66.6714Z" fill="#FE5D00"/>
<path d="M44.2974 65.3589L46.1032 69.9343C45.4975 68.4204 44.903 66.8953 44.2974 65.3701" fill="#FE5D00"/>
<path d="M94.0291 46.5414C94.0291 46.3956 93.9394 46.261 93.8833 46.1265L95.7004 50.6907C95.7004 50.8253 95.7901 50.9711 95.8462 51.1056L94.0291 46.5414Z" fill="#FE5D00"/>
<path d="M94.5345 48.3358L94.4336 47.9097L96.2506 52.4739L96.3516 52.9001L94.5345 48.3358Z" fill="#FE5D00"/>
<path d="M94.8594 50.1859C94.8594 50.0401 94.8594 49.8943 94.8594 49.7485L96.6652 54.3128C96.6652 54.4585 96.6651 54.6043 96.7212 54.7501L94.9154 50.1859" fill="#FE5D00"/>
<path d="M94.9844 52.0809C94.9844 51.9239 94.9844 51.7781 94.9844 51.6323L96.8014 56.1966C96.8014 56.3423 96.8014 56.4994 96.8014 56.6451L94.9844 52.0809Z" fill="#FE5D00"/>
<path d="M94.9277 54.0321V53.5835L96.7336 58.1477V58.5963L94.9277 54.0321Z" fill="#FE5D00"/>
<path d="M94.6699 56.0062C94.6699 55.8604 94.6699 55.7146 94.7484 55.5688L96.5543 60.1331L96.487 60.5705L94.6699 56.0062Z" fill="#FE5D00"/>
<path d="M94.186 57.9129C94.186 57.7559 94.2645 57.6101 94.3094 57.4644L96.1152 62.0286C96.1152 62.1744 96.0367 62.3314 95.9918 62.4772L94.186 57.9129Z" fill="#FE5D00"/>
<path d="M93.5693 59.8534L93.7376 59.4048L95.5546 63.969L95.3863 64.4288L93.5693 59.8534Z" fill="#FE5D00"/>
<path d="M92.728 61.7821C92.7953 61.6363 92.8738 61.4905 92.9411 61.3335L94.7469 65.909C94.6797 66.0548 94.6124 66.2005 94.5338 66.3463L92.728 61.7821Z" fill="#FE5D00"/>
<path d="M91.6641 63.7108C91.7538 63.5762 91.8435 63.4305 91.922 63.2847L93.739 67.8489C93.6493 67.9947 93.5595 68.1405 93.481 68.2863L91.6641 63.7108Z" fill="#FE5D00"/>
<path d="M90.4185 65.5829L90.7213 65.1567L92.5271 69.721C92.4337 69.8682 92.3326 70.0105 92.2242 70.1471L90.4185 65.5829Z" fill="#FE5D00"/>
<path d="M88.9722 67.3769C89.0955 67.2423 89.2077 67.1189 89.3199 66.9731L91.1256 71.5486L90.7892 71.9411L88.9722 67.3769Z" fill="#FE5D00"/>
<path d="M87.3892 69.06L87.7593 68.6899L89.5763 73.2542L89.2062 73.6242L87.3892 69.06Z" fill="#FE5D00"/>
<path d="M85.6851 70.5845L86.0888 70.2368L87.8946 74.8123L87.4909 75.1487L85.6851 70.5845Z" fill="#FE5D00"/>
<path d="M83.8677 72.0093L84.2939 71.7065L86.0997 76.2708L85.6735 76.5735L83.8677 72.0093Z" fill="#FE5D00"/>
<path d="M81.9062 73.3092L82.3549 73.0288L84.1719 77.593L83.7233 77.8734L81.9062 73.3092Z" fill="#FE5D00"/>
<path d="M79.9072 74.4206L80.3671 74.1851L82.1841 78.7493C82.0271 78.8278 81.87 78.9063 81.7242 78.996L79.9072 74.4206Z" fill="#FE5D00"/>
<path d="M77.8325 75.3957L78.3148 75.1938L80.1206 79.7581L79.6495 79.9599L77.8325 75.3957Z" fill="#FE5D00"/>
<path d="M75.7026 76.1916L76.1962 76.0122L78.0132 80.5765L77.5197 80.7559L75.7026 76.1916Z" fill="#FE5D00"/>
<path d="M73.5381 76.887L74.0316 76.7524L75.8486 81.3167L75.3439 81.4512L73.5381 76.887Z" fill="#FE5D00"/>
<path d="M71.2836 77.4149L71.7547 77.314L73.5605 81.8782L73.0446 81.9791L71.2388 77.4149" fill="#FE5D00"/>
<path d="M69.0503 77.7621L69.5663 77.6948L71.3833 82.259L70.8673 82.3263L69.0503 77.7621Z" fill="#FE5D00"/>
<path d="M66.8193 77.9536H67.3465L69.1523 82.5178H68.6364L66.8193 77.9536Z" fill="#FE5D00"/>
<path d="M64.5981 77.9751H65.1029L66.9199 82.5393H66.404L64.5981 77.9751Z" fill="#FE5D00"/>
<path d="M62.3999 77.8296H62.8934L64.7104 82.3938H64.2057L62.3999 77.8296Z" fill="#FE5D00"/>
<path d="M60.1787 77.4927L60.6835 77.5936L62.4892 82.1578L61.9845 82.0681L60.1787 77.4927Z" fill="#FE5D00"/>
<path d="M58.0591 76.9985L58.5414 77.1331L60.3584 81.6974L59.8649 81.5628L58.0591 76.9985Z" fill="#FE5D00"/>
<path d="M56.0522 76.3267L56.5233 76.4949L58.3291 81.0591L57.8581 80.8909L56.0522 76.3267Z" fill="#FE5D00"/>
<path d="M53.9985 75.4624L54.4584 75.6755L56.2642 80.2509L55.8155 80.0266L53.9985 75.4624Z" fill="#FE5D00"/>
</g>
<defs>
<filter id="filter0_d" x="0" y="-0.000488281" width="133.801" height="129.552" filterUnits="userSpaceOnUse" color-interpolation-filters="sRGB">
<feFlood flood-opacity="0" result="BackgroundImageFix"/>
<feColorMatrix in="SourceAlpha" type="matrix" values="0 0 0 0 0 0 0 0 0 0 0 0 0 0 0 0 0 0 127 0"/>
<feOffset dx="-3" dy="7"/>
<feGaussianBlur stdDeviation="20"/>
<feColorMatrix type="matrix" values="0 0 0 0 0.898039 0 0 0 0 0.788235 0 0 0 0 0.34902 0 0 0 0.4 0"/>
<feBlend mode="normal" in2="BackgroundImageFix" result="effect1_dropShadow"/>
<feBlend mode="normal" in="SourceGraphic" in2="effect1_dropShadow" result="shape"/>
</filter>
<linearGradient id="paint0_linear" x1="138.869" y1="15.4336" x2="34.9132" y2="3.55167" gradientUnits="userSpaceOnUse">
<stop stop-color="#FE5D00"/>
<stop offset="0.244792" stop-color="#EC8143"/>
<stop offset="0.458333" stop-color="#EAA47C"/>
<stop offset="0.6" stop-color="#E89E74"/>
<stop offset="0.677083" stop-color="#EB9666"/>
<stop offset="0.765625" stop-color="#ED864B"/>
<stop offset="0.875" stop-color="#F2742A"/>
<stop offset="1" stop-color="#FE5D00"/>
</linearGradient>
<linearGradient id="paint1_linear" x1="54.063" y1="16.6733" x2="94.4844" y2="-15.7291" gradientUnits="userSpaceOnUse">
<stop stop-color="#AD3A00"/>
<stop offset="0.02" stop-color="#B6520F"/>
<stop offset="0.06" stop-color="#C77E2A"/>
<stop offset="0.11" stop-color="#D4A13F"/>
<stop offset="0.15" stop-color="#DDBA4F"/>
<stop offset="0.18" stop-color="#E3C958"/>
<stop offset="0.21" stop-color="#E5CE5B"/>
<stop offset="0.56" stop-color="#E2D178"/>
<stop offset="0.63" stop-color="#E3D073"/>
<stop offset="0.72" stop-color="#E4CF64"/>
<stop offset="0.76" stop-color="#E5CE5B"/>
<stop offset="0.85" stop-color="#C8822C"/>
<stop offset="0.94" stop-color="#AD3A00"/>
<stop offset="0.95" stop-color="#C04603"/>
<stop offset="0.97" stop-color="#D95606"/>
<stop offset="0.99" stop-color="#E86008"/>
<stop offset="1" stop-color="#ED6309"/>
</linearGradient>
<linearGradient id="paint2_linear" x1="67.4186" y1="33.731" x2="108.341" y2="1.30395" gradientUnits="userSpaceOnUse">
<stop stop-color="#750900"/>
<stop offset="0.16" stop-color="#8D1C00"/>
<stop offset="0.48" stop-color="#CA4B00"/>
<stop offset="0.5" stop-color="#CE4E00"/>
<stop offset="1" stop-color="#750900"/>
</linearGradient>
<linearGradient id="paint3_linear" x1="69.9598" y1="29.2247" x2="103.466" y2="2.20335" gradientUnits="userSpaceOnUse">
<stop stop-color="#AD3A00"/>
<stop offset="0.01" stop-color="#B2480A"/>
<stop offset="0.02" stop-color="#BF6C23"/>
<stop offset="0.04" stop-color="#CB8B38"/>
<stop offset="0.05" stop-color="#D4A44A"/>
<stop offset="0.07" stop-color="#DBB757"/>
<stop offset="0.1" stop-color="#E0C561"/>
<stop offset="0.12" stop-color="#E3CD66"/>
<stop offset="0.18" stop-color="#E4CF68"/>
<stop offset="0.56" stop-color="#E2D178"/>
<stop offset="0.67" stop-color="#E3D073"/>
<stop offset="0.82" stop-color="#E4CF64"/>
<stop offset="0.88" stop-color="#E5CE5B"/>
<stop offset="0.92" stop-color="#E8AA40"/>
<stop offset="1" stop-color="#ED6309"/>
</linearGradient>
<linearGradient id="paint4_linear" x1="-266630" y1="-370925" x2="-267323" y2="-371005" gradientUnits="userSpaceOnUse">
<stop stop-color="#750900"/>
<stop offset="0.1" stop-color="#8D1C00"/>
<stop offset="0.32" stop-color="#CA4B00"/>
<stop offset="0.34" stop-color="#CE4E00"/>
<stop offset="0.55" stop-color="#EA9226"/>
<stop offset="0.58" stop-color="#E99A2E"/>
<stop offset="0.65" stop-color="#E7AF41"/>
<stop offset="0.74" stop-color="#E6BE4F"/>
<stop offset="0.84" stop-color="#E5C657"/>
<stop offset="0.99" stop-color="#E5C959"/>
</linearGradient>
</defs>
</svg>
