<svg width="165" height="166" viewBox="0 0 165 166" fill="none" xmlns="http://www.w3.org/2000/svg">
<path style="mix-blend-mode:screen" d="M86.1042 136.632C114.766 136.632 138 113.397 138 84.7356C138 56.0742 114.766 32.8396 86.1042 32.8396C57.4428 32.8396 34.2081 56.0742 34.2081 84.7356C34.2081 113.397 57.4428 136.632 86.1042 136.632Z" fill="url(#paint0_radial)"/>
<g filter="url(#filter0_d)">
<path fill-rule="evenodd" clip-rule="evenodd" d="M124.832 83.0057C124.837 88.5793 123.753 94.0992 121.644 99.2494C119.535 104.4 116.44 109.079 112.539 113.02C108.637 116.96 104.005 120.085 98.9062 122.215C93.8079 124.345 88.3437 125.438 82.8266 125.432C82.0819 125.432 81.3283 125.432 80.5925 125.37C79.4931 125.316 78.4026 125.209 77.3299 125.074C69.4221 124.028 61.9766 120.715 55.875 115.527C51.9423 112.18 48.6388 108.145 46.1228 103.615C45.8657 103.149 45.6175 102.719 45.3692 102.199C45.3692 102.199 45.3692 102.199 45.3692 102.155C45.1121 101.644 44.8727 101.134 44.6422 100.614C43.9072 98.9858 43.2793 97.3103 42.7627 95.5985C42.3703 94.3506 42.0419 93.083 41.7786 91.8009C41.5925 90.9053 41.4329 90.0096 41.3087 89.0603C41.0234 87.067 40.8812 85.0555 40.8832 83.0415C40.8832 81.8682 40.9275 80.6949 41.0339 79.5485C41.0871 78.8141 41.1669 78.0886 41.2644 77.3631C41.7957 73.2667 42.9282 69.273 44.6245 65.5137C47.9517 58.0904 53.3224 51.7908 60.0961 47.3664C66.8698 42.942 74.7604 40.5796 82.8266 40.561H84.1476C84.6175 40.561 85.0873 40.561 85.5572 40.6327C87.9475 40.7852 90.3204 41.1448 92.6497 41.7075C93.9796 42.0299 95.3094 42.4061 96.5595 42.8539C97.4461 43.1494 98.2795 43.4808 99.1217 43.8391C99.7512 44.1078 100.363 44.3854 100.975 44.681L101.294 44.8333C105.348 46.8366 109.057 49.4857 112.278 52.6791C112.739 53.1269 113.165 53.5748 113.626 54.0674C113.918 54.3898 114.211 54.7212 114.512 55.0526C115 55.6079 115.47 56.1901 115.931 56.7722C119.584 61.5062 122.198 66.9712 123.6 72.8043C124.419 76.1415 124.833 79.5673 124.832 83.0057Z" fill="white"/>
</g>
<path fill-rule="evenodd" clip-rule="evenodd" d="M130.315 83.0768C130.325 89.1517 129.137 95.169 126.818 100.784C124.498 106.399 121.094 111.501 116.8 115.798C112.506 120.095 107.406 123.502 101.792 125.825C96.179 128.148 90.1625 129.34 84.0876 129.333C83.268 129.333 82.4387 129.333 81.6289 129.265C80.419 129.207 79.219 129.09 78.0384 128.943C69.3358 127.804 61.142 124.194 54.4271 118.542C50.0991 114.897 46.4635 110.501 43.6947 105.566C43.4118 105.059 43.1386 104.59 42.8654 104.024C42.5825 103.468 42.319 102.912 42.0653 102.346C41.2564 100.573 40.5655 98.7473 39.9969 96.8825C39.5651 95.5231 39.2036 94.1423 38.9139 92.7457C38.709 91.77 38.5334 90.7943 38.3968 89.7601C38.0828 87.5888 37.9263 85.3975 37.9285 83.2036C37.9285 81.9255 37.9285 80.6473 38.0944 79.3985C38.1529 78.5984 38.2407 77.8081 38.348 77.0178C38.8998 72.5085 40.1266 68.1078 41.9873 63.9633C45.663 55.8805 51.587 49.0261 59.0521 44.2183C66.5173 39.4105 75.2082 36.8524 84.0876 36.8494H85.5413C86.0584 36.8494 86.5755 36.8494 87.0926 36.9274C89.7232 37.0936 92.3345 37.4853 94.898 38.0982C96.3615 38.4495 97.8251 38.8593 99.2008 39.3471C100.176 39.6691 101.094 40.0301 102.02 40.4203C102.713 40.713 103.386 41.0155 104.06 41.3375L104.411 41.5033C108.873 43.6857 112.954 46.5715 116.499 50.0502C117.007 50.5381 117.475 51.0259 117.982 51.5625C118.304 51.9138 118.626 52.2748 118.958 52.6358C119.495 53.2407 120.012 53.8749 120.519 54.509C124.556 59.6427 127.456 65.5758 129.027 71.9151C129.91 75.5692 130.342 79.3176 130.315 83.0768Z" fill="url(#paint1_radial)"/>
<g style="mix-blend-mode:multiply" opacity="0.4">
<g style="mix-blend-mode:multiply" opacity="0.4">
<path fill-rule="evenodd" clip-rule="evenodd" d="M49.4691 62.3934C48.5562 64.0065 47.9695 65.7834 47.7422 67.623C47.5308 69.0403 47.4557 70.4745 47.5178 71.9062C47.7638 73.3737 48.1695 74.81 48.7276 76.1894C49.2441 77.9148 50.1677 79.4909 51.4205 80.7848C53.6353 82.9703 56.7574 83.0093 59.382 81.5653C60.7187 80.8336 61.8407 79.8384 63.2847 79.2139C65.236 78.3358 67.0703 77.526 68.4167 75.7893C69.7792 73.8921 70.5683 71.6435 70.69 69.3109C70.9193 67.9382 70.9193 66.537 70.69 65.1643C70.4309 64.0274 70.0034 62.9356 69.4217 61.925C69.0031 61.1605 68.5303 60.4268 68.0069 59.7298C67.2724 58.8833 66.3263 58.2469 65.2653 57.8857C64.6551 57.516 63.9734 57.2799 63.2652 57.193C62.3705 57.149 61.4739 57.1686 60.5821 57.2516C59.597 57.4294 58.6326 57.7073 57.7038 58.0809C56.7867 58.3833 55.8403 58.5785 54.9427 58.9492C54.0715 59.3101 53.1786 59.6164 52.2693 59.8664C51.1326 60.0976 50.0803 60.6339 49.2252 61.4177C48.9695 61.6426 48.7252 61.8803 48.4935 62.1299C48.152 62.5982 48.2593 63.0861 49.4691 62.3934Z" fill="#B9BFE2"/>
</g>
<g style="mix-blend-mode:multiply" opacity="0.4">
<path fill-rule="evenodd" clip-rule="evenodd" d="M66.2493 82.1116C66.503 81.2627 66.6786 79.6334 67.4982 79.0089C67.8649 78.7548 68.2749 78.5696 68.708 78.4626C69.0066 78.4051 69.3138 78.4093 69.6108 78.4747C69.9077 78.5401 70.1882 78.6655 70.435 78.8431C71.9083 79.6334 71.6253 81.8969 70.8155 83.097C70.113 84.1312 68.3568 85.0484 67.2348 84.2093C66.8253 83.8837 66.5164 83.4489 66.3438 82.955C66.1711 82.4612 66.1417 81.9286 66.2591 81.4189H66.464L66.2493 82.1116Z" fill="#B9BFE2"/>
</g>
<g style="mix-blend-mode:multiply" opacity="0.4">
<path fill-rule="evenodd" clip-rule="evenodd" d="M94.1066 96.1617C93.9188 97.2569 93.8501 98.3691 93.9017 99.479C94.0383 100.438 94.2239 101.388 94.4579 102.328C94.8872 103.987 95.5018 105.918 97.2971 106.553C98.8972 107.119 100.81 106.553 102.312 105.967C104.005 105.419 105.64 104.704 107.19 103.831C108.66 102.85 109.975 101.657 111.093 100.289C112.223 98.9653 112.837 97.2777 112.82 95.5373C112.741 92.8651 111.883 90.2743 110.352 88.0832C109.626 86.9082 108.505 86.0312 107.19 85.6108C105.875 85.1903 104.453 85.254 103.18 85.7903C100.878 86.6197 99.6972 89.0979 98.0093 90.7467C97.5483 91.2854 97.0564 91.7969 96.5361 92.2786C96.0002 92.7475 95.5625 93.3178 95.2482 93.9567C94.8823 94.4128 94.5559 94.8991 94.2725 95.4105C93.97 96.1617 94.1066 97.0789 94.1066 96.1617Z" fill="#B9BFE2"/>
</g>
<g style="mix-blend-mode:multiply" opacity="0.4">
<path fill-rule="evenodd" clip-rule="evenodd" d="M115.301 94.6773C115.457 94.4626 116.54 92.082 117.516 92.1893C117.984 92.2479 118.355 92.765 118.579 93.165C118.95 93.7797 119.233 94.3553 118.755 95.048C118.15 95.9457 115.662 96.6091 115.506 95.048L115.301 94.9992V94.6773Z" fill="#B9BFE2"/>
</g>
<g style="mix-blend-mode:multiply" opacity="0.4">
<path fill-rule="evenodd" clip-rule="evenodd" d="M77.7048 45.3577C77.8512 45.143 78.9342 42.7624 79.9098 42.8697C80.3782 42.9283 80.7489 43.4454 80.9733 43.8454C81.3441 44.4601 81.627 45.0357 81.149 45.7284C80.544 46.6261 78.0561 47.2895 77.9 45.6797H77.7048V45.3577Z" fill="#B9BFE2"/>
</g>
<g style="mix-blend-mode:multiply" opacity="0.4">
<path fill-rule="evenodd" clip-rule="evenodd" d="M103.355 80.1988C103.512 79.9744 104.585 77.6035 105.57 77.7108C106.039 77.7108 106.409 78.2865 106.634 78.6865C106.995 79.3012 107.287 79.867 106.809 80.5695C106.195 81.4672 103.707 82.1209 103.551 80.511H103.355V80.1988Z" fill="#B9BFE2"/>
</g>
<g style="mix-blend-mode:multiply" opacity="0.4">
<path fill-rule="evenodd" clip-rule="evenodd" d="M97.0625 68.8419C96.5063 70.3249 95.8331 71.242 96.2819 72.647C96.5064 73.33 96.6039 74.0422 96.7991 74.7349C97.1796 76.0716 98.2235 76.8912 99.1602 77.8473C100.409 79.106 101.512 79.4962 103.18 78.6962C103.717 78.4193 104.226 78.0926 104.702 77.7205C105.342 77.2881 105.854 76.6916 106.185 75.9936C106.494 75.2925 106.758 74.5723 106.975 73.8373C107.347 73.095 107.581 72.2919 107.668 71.4664C107.752 70.5827 107.702 69.6915 107.522 68.8224C107.184 67.7821 106.698 66.7962 106.078 65.8954C105.585 65.0519 104.952 64.2994 104.204 63.6708C103.533 63.2688 102.772 63.0408 101.99 63.0074C101.209 62.9647 100.43 63.1214 99.7272 63.4628C99.024 63.8042 98.4192 64.319 97.9699 64.9587C96.9649 66.3929 96.4283 68.2077 97.0625 68.8419Z" fill="#B9BFE2"/>
</g>
<g style="mix-blend-mode:multiply" opacity="0.4">
<path fill-rule="evenodd" clip-rule="evenodd" d="M93.8535 77.6722C93.9799 78.7104 94.3294 79.7089 94.878 80.5993C95.0725 80.4586 95.3021 80.3742 95.5414 80.3553C95.5414 80.0431 95.7853 79.9358 95.8439 79.6724C95.871 79.3477 95.871 79.0214 95.8439 78.6967C95.8177 78.1841 95.6953 77.681 95.4829 77.2137C95.3365 76.8136 95.1219 76.1209 94.6048 76.238C93.6291 76.4136 93.7267 77.2137 93.873 77.7308L93.8535 77.6722Z" fill="#B9BFE2"/>
</g>
<g style="mix-blend-mode:multiply" opacity="0.4">
<path fill-rule="evenodd" clip-rule="evenodd" d="M47.6448 107.254C47.6051 108.035 47.7734 108.813 48.1326 109.508C48.6093 110.206 49.1482 110.859 49.7425 111.459C50.1425 111.869 50.8645 112.737 51.528 112.367C52.1914 111.996 52.2597 110.962 52.2012 110.415C52.1228 109.95 52.0153 109.491 51.8792 109.04C51.7556 108.527 51.5408 108.042 51.245 107.605C50.7377 106.874 49.5376 105.517 48.5034 106.171C48.2002 106.311 47.9405 106.53 47.7521 106.805C47.596 107.098 47.6448 107.41 47.6448 107.254Z" fill="#B9BFE2"/>
</g>
<g style="mix-blend-mode:multiply" opacity="0.4">
<path fill-rule="evenodd" clip-rule="evenodd" d="M70.8426 103.556C70.6779 103.125 70.5601 102.677 70.4914 102.22C70.4568 102.161 70.4457 102.091 70.4601 102.024C70.4746 101.957 70.5136 101.898 70.5694 101.859C70.713 101.367 70.9025 100.89 71.1353 100.434C71.537 99.5616 72.1549 98.806 72.9306 98.2391C73.2382 98.0865 73.5672 97.9813 73.9062 97.9268C74.2477 97.8488 74.5892 97.722 74.8819 97.6537C75.4931 97.5883 76.1113 97.6514 76.6967 97.839C77.3713 97.9907 78.0261 98.2199 78.648 98.522C79.1575 98.8766 79.5782 99.344 79.8773 99.888C80.2737 100.401 80.4888 101.03 80.4888 101.678C80.4888 102.326 80.2737 102.956 79.8773 103.469C79.5959 103.739 79.2887 103.98 78.9602 104.191C78.6187 104.415 78.2968 104.708 77.9845 104.903C77.5069 105.098 77.0045 105.226 76.4918 105.283C75.5615 105.479 74.598 105.449 73.6818 105.196C72.6786 104.754 71.7266 104.205 70.8426 103.556Z" fill="#B9BFE2"/>
</g>
</g>
<path fill-rule="evenodd" clip-rule="evenodd" d="M110.938 66.6467C110.938 66.6467 108.45 71.1446 109.777 79.2036C112.704 97.117 122.578 94.3851 121.944 86.0334L110.938 66.6467Z" fill="url(#paint2_linear)"/>
<path style="mix-blend-mode:screen" d="M98.1429 112.221C98.9836 105.365 92.2726 98.8998 83.1535 97.7818C74.0344 96.6637 65.9604 101.316 65.1197 108.172C64.279 115.029 70.99 121.494 80.1091 122.612C89.2282 123.73 97.3022 119.078 98.1429 112.221Z" fill="url(#paint3_radial)"/>
<path fill-rule="evenodd" clip-rule="evenodd" d="M104.36 41.5228C104.206 41.5321 104.053 41.5517 103.902 41.5814C103.42 41.6703 102.923 41.6367 102.458 41.4838C102.087 41.3863 101.823 41.2301 101.482 41.1618C100.916 41.074 100.399 40.8399 99.8331 40.7618C99.2609 40.6508 98.7018 40.4808 98.1647 40.2545C97.8132 40.1183 97.4234 40.1183 97.0719 40.2545C96.6894 40.313 96.2986 40.2334 95.9694 40.0301C95.5498 39.8802 95.1144 39.7787 94.6718 39.7276C93.5009 39.4837 92.3399 39.1032 91.1788 38.8105C90.4806 38.6582 89.7662 38.5926 89.0519 38.6153C88.4762 38.6153 87.9494 38.7812 87.3737 38.7812C87.0067 38.7679 86.6413 38.7255 86.281 38.6544C85.8809 38.5861 85.4809 38.6544 85.0907 38.6544C84.6024 38.5178 84.0861 38.5178 83.5979 38.6544C83.1976 38.7644 82.7836 38.817 82.3685 38.8105C81.8541 38.8507 81.3445 38.9389 80.8465 39.0739C79.9624 39.2947 79.0551 39.4094 78.1439 39.4154C77.5262 39.3225 76.898 39.3225 76.2803 39.4154C75.9388 39.5325 75.773 39.8935 75.5388 40.1276C75.0322 40.5591 74.5562 41.0253 74.1143 41.5228C73.6703 41.9914 73.3985 42.5968 73.3435 43.24C73.415 43.8543 73.6003 44.4499 73.8899 44.9962C74.1436 45.5524 74.2314 46.0597 73.6655 46.4207C72.941 46.919 72.1449 47.3039 71.3044 47.5623C71.0672 47.6794 70.8022 47.7286 70.5387 47.7045C70.2753 47.6804 70.0236 47.5839 69.8116 47.4257C69.6457 47.2793 69.5384 47.0061 69.3335 46.889C69.1286 46.772 68.8945 46.889 68.6603 46.9573C68.0953 47.1477 67.5184 47.3009 66.9334 47.4159C66.5724 47.4745 66.2602 47.6696 65.9089 47.7281C65.5577 47.7867 65.1772 47.5037 64.7381 47.6013C64.1275 47.8015 63.5008 47.9484 62.8648 48.0403C62.3627 48.0282 61.8721 47.8871 61.4403 47.6306C61.2159 47.5037 61.1672 47.3671 60.9037 47.4452C60.6555 47.5393 60.4367 47.6976 60.2695 47.9037C60.1232 48.1282 60.0646 48.4013 59.9085 48.6257C59.7524 48.8501 59.5963 49.1233 59.4597 49.3868C59.192 49.8912 58.8854 50.374 58.5426 50.8308C58.2987 51.1527 58.1328 51.5918 57.8694 51.8845C57.6862 52.031 57.4864 52.1554 57.2742 52.2552C56.7961 52.5967 56.2985 52.8992 55.8302 53.2309C54.9326 53.9334 54.0838 54.7139 53.1666 55.3969C52.3919 55.8763 51.5634 56.2627 50.6982 56.5482C50.2006 56.7531 49.7225 56.8995 49.1859 57.1043C48.9789 57.1584 48.7815 57.244 48.6005 57.358C48.4151 57.5141 48.3273 57.7971 48.1614 58.002C47.7031 58.5183 47.2948 59.0769 46.9418 59.6704C46.7582 60.0197 46.6079 60.3856 46.493 60.7631C46.3174 61.29 46.0345 61.7388 45.8588 62.2949C45.4978 63.3779 45.4295 64.5195 45.0295 65.6025C44.7748 66.2122 44.4882 66.8082 44.1709 67.3879C43.7573 68.4179 43.5167 69.509 43.4587 70.6174C43.388 71.2674 43.4077 71.9241 43.5172 72.5688C43.6197 73.2728 43.6523 73.9853 43.6148 74.6957C43.5167 75.4369 43.1732 76.1239 42.6391 76.6471C42.2196 77.1544 41.5854 77.3496 41.1268 77.7984C40.6727 78.1635 40.3172 78.6364 40.0926 79.1741C40.0728 79.4273 40.0728 79.6818 40.0926 79.9351C39.9853 80.5107 39.8389 81.0474 39.7609 81.623C39.6811 82.3226 39.6453 83.0264 39.6536 83.7305C39.6536 84.0915 39.6536 84.4622 39.6536 84.8232C39.6536 85.1842 39.7902 85.4867 39.8194 85.7989C39.8487 86.1111 39.8194 86.2867 39.8194 86.5209C39.8194 86.755 39.9658 87.077 40.0341 87.3404C40.1902 87.9844 40.317 88.6088 40.4341 89.2918C40.5756 89.8869 40.7515 90.4733 40.961 91.048C41.211 91.837 41.4066 92.6422 41.5464 93.4579C41.6635 94.0726 41.6537 94.697 41.7415 95.3214C41.8293 95.9459 41.9269 96.2971 41.9464 96.8142C41.9464 97.5752 41.7903 98.3265 41.7805 99.0875C41.8966 100.38 42.1652 101.654 42.5806 102.883C42.6684 103.234 42.7562 103.585 42.8538 103.927C39.2487 96.7712 37.5604 88.8031 37.9537 80.8002C38.347 72.7973 40.8085 65.0331 45.0978 58.2654C47.0446 55.2333 49.3365 52.4372 51.9275 49.9332C60.5415 41.5377 72.0962 36.8422 84.1247 36.8494C85.1004 36.8494 86.1346 36.8494 87.12 36.9372C93.1113 37.3237 98.9686 38.8816 104.36 41.5228Z" fill="url(#paint4_linear)"/>
<path style="mix-blend-mode:screen" fill-rule="evenodd" clip-rule="evenodd" d="M108.721 66.6955C107.219 69.2908 101.892 69.0371 96.8475 66.1199C91.8032 63.2026 88.9153 58.7243 90.4471 56.1583C91.9789 53.5922 97.2768 53.8166 102.321 56.7339C107.365 59.6512 110.224 64.0905 108.721 66.6955Z" fill="url(#paint5_radial)"/>
<path fill-rule="evenodd" clip-rule="evenodd" d="M119.006 99.1765C117.355 99.3451 115.757 99.8586 114.317 100.684C112.876 101.509 111.625 102.628 110.645 103.967C106.888 108.67 106.927 112.826 107.464 114.221C108.001 115.617 119.006 99.1765 119.006 99.1765Z" fill="url(#paint6_radial)"/>
<path style="mix-blend-mode:screen" fill-rule="evenodd" clip-rule="evenodd" d="M114.623 89.6135C109.296 90.3257 104.301 85.8572 103.462 79.6226C102.623 73.3881 106.262 67.7487 111.579 67.0267C116.897 66.3047 121.902 70.7928 122.741 77.0176C123.58 83.2424 119.941 88.8915 114.623 89.6135Z" fill="url(#paint7_radial)"/>
<path style="mix-blend-mode:screen" fill-rule="evenodd" clip-rule="evenodd" d="M56.6785 119.177C48.7194 112.56 43.2204 103.456 41.0678 93.3316C40.4154 90.1929 40.0884 86.9953 40.0921 83.7895C40.0803 75.0052 42.5785 66.4003 47.2926 58.9879C49.2417 55.9546 51.5334 53.1555 54.1223 50.6459C62.7362 42.2504 74.291 37.555 86.3195 37.5621C87.2951 37.5621 88.3294 37.5621 89.3148 37.6597C92.395 37.8604 95.4477 38.367 98.4276 39.172C94.7425 37.9678 90.9202 37.2334 87.0512 36.9865C86.0756 36.928 85.0999 36.8987 84.0559 36.8987C72.0274 36.8915 60.4727 41.587 51.8587 49.9825C49.2676 52.4865 46.9758 55.2826 45.029 58.3147C40.3149 65.727 37.8167 74.3319 37.8285 83.1163C37.8249 86.3221 38.1518 89.5197 38.8042 92.6584C39.6392 96.5886 40.9909 100.391 42.824 103.966C45.7628 109.745 49.8782 114.845 54.9057 118.938C59.9332 123.032 65.7616 126.028 72.0161 127.734C66.4018 125.892 61.1945 122.987 56.6785 119.177Z" fill="url(#paint8_radial)"/>
<path fill-rule="evenodd" clip-rule="evenodd" d="M114.724 117.684C114.724 117.684 109.465 118.962 107.699 115.02C105.933 111.079 112.646 100.717 118.041 99.3608C123.437 98.0046 124.481 104.347 124.481 104.347L114.724 117.684Z" fill="#004A59"/>
<path fill-rule="evenodd" clip-rule="evenodd" d="M82.8589 45.2698C84.7624 50.4391 88.2181 54.8933 92.7522 58.0218C105.212 66.8614 110.314 63.6807 110.314 63.6807L82.8589 45.2698Z" fill="url(#paint9_radial)"/>
<path fill-rule="evenodd" clip-rule="evenodd" d="M99.8052 125.89C99.8052 125.89 105.162 123.071 105.269 119.256C105.376 115.441 97.1806 110.211 81.1991 107.87C66.564 105.762 55.3438 108.982 54.612 111.821C53.8803 114.66 57.6854 121.578 65.4517 125.002C73.2181 128.427 95.8244 127.832 99.8052 125.89Z" fill="#004A59"/>
<path fill-rule="evenodd" clip-rule="evenodd" d="M74.193 58.5876C74.193 58.5876 77.4517 63.749 82.5155 64.1978C87.5792 64.6466 89.072 60.6756 89.072 60.6756C89.072 60.6756 77.5493 60.5878 74.193 58.5876Z" fill="url(#paint10_radial)"/>
<path fill-rule="evenodd" clip-rule="evenodd" d="M72.049 54.5096C72.049 54.5096 73.8637 61.1344 80.6934 62.8906C88.2451 64.8419 90.4501 59.8758 89.3574 57.1731C88.2646 54.4705 79.3275 50.3044 72.049 54.5096Z" fill="#00777A"/>
<path fill-rule="evenodd" clip-rule="evenodd" d="M57.2716 52.2556C57.2716 52.2556 62.0329 53.1435 68.9797 48.9773C75.9265 44.8112 74.541 40.9866 74.541 40.9866L57.2716 52.2556Z" fill="url(#paint11_radial)"/>
<path fill-rule="evenodd" clip-rule="evenodd" d="M55.5979 49.2407C55.5979 49.2407 53.8124 51.6896 57.2761 52.2555C60.7397 52.8214 72.3697 47.1527 74.5162 42.8305C76.6627 38.5083 65.3546 36.1276 55.5979 49.2407Z" fill="#00777A"/>
<path fill-rule="evenodd" clip-rule="evenodd" d="M86.4673 40.2646C86.4673 40.2646 81.8816 41.0549 81.5889 43.4356C81.2962 45.8162 88.8382 55.3193 96.9948 60.3538C105.151 65.3882 113.142 63.6906 114.372 62.4515C115.601 61.2123 103.756 41.5233 86.4673 40.2646Z" fill="#006D7A"/>
<path fill-rule="evenodd" clip-rule="evenodd" d="M118.461 67.4568C118.461 67.4568 114.1 62.8907 110.656 64.6078C107.807 66.0128 109.026 79.9844 111.983 85.3116C114.939 90.6388 118.764 90.19 120.247 88.9802C121.73 87.7703 122.042 72.1888 118.461 67.4568Z" fill="#004A59"/>
<path fill-rule="evenodd" clip-rule="evenodd" d="M118.17 57.1337C117.756 57.0222 117.317 57.0453 116.917 57.1997C116.517 57.354 116.177 57.6316 115.945 57.9923C115.057 59.2704 121.223 68.0515 123.809 69.0857C126.395 70.1199 126.912 66.4026 126.912 66.4026L118.17 57.1337Z" fill="#004A59"/>
<path fill-rule="evenodd" clip-rule="evenodd" d="M85.1076 43.2892C83.0489 46.7822 101.616 66.6273 112.885 62.8808C115.1 62.149 116.3 47.5822 108.816 40.6744C102.543 34.9277 89.1664 36.3912 85.1076 43.2892Z" fill="url(#paint12_radial)"/>
<path fill-rule="evenodd" clip-rule="evenodd" d="M112.89 66.8328C109.533 68.2378 110.05 83.0973 114.246 87.4098C118.441 91.7223 124.842 85.4584 125.456 78.9117C126.071 72.3649 118.139 64.6083 112.89 66.8328Z" fill="url(#paint13_radial)"/>
<path fill-rule="evenodd" clip-rule="evenodd" d="M117.152 58.8607C116.947 61.8755 123.445 68.3735 125.445 67.6417C127.445 66.91 129.348 62.178 127.991 58.8607C126.635 55.5434 117.396 55.1824 117.152 58.8607Z" fill="url(#paint14_radial)"/>
<path fill-rule="evenodd" clip-rule="evenodd" d="M58.299 110.328C49.6155 112.562 64.0262 129.627 76.3587 131.871C90.7792 134.485 103.892 124.758 104.136 119.392C104.38 114.026 74.5635 106.142 58.299 110.328Z" fill="url(#paint15_radial)"/>
<path fill-rule="evenodd" clip-rule="evenodd" d="M109.054 114.787C107.454 110.982 116.635 98.9912 120.879 100.406C125.123 101.821 127.904 111.733 122.177 115.802C118.742 118.222 110.713 118.768 109.054 114.787Z" fill="url(#paint16_radial)"/>
<path fill-rule="evenodd" clip-rule="evenodd" d="M57.4408 51.3482C61.6947 52.3239 71.7441 45.2795 73.5882 41.9427C75.4322 38.6059 66.0267 34.1373 59.6946 37.4448C55.2162 39.7474 53.6649 50.5286 57.4408 51.3482Z" fill="url(#paint17_radial)"/>
<path fill-rule="evenodd" clip-rule="evenodd" d="M73.8599 51.4363C69.1181 53.6315 74.4745 59.8466 79.9286 61.6418C85.3826 63.437 90.1926 60.1685 89.2755 56.539C88.3584 52.9095 82.2116 47.5433 73.8599 51.4363Z" fill="url(#paint18_radial)"/>
<path fill-rule="evenodd" clip-rule="evenodd" d="M61.8026 107.576C61.8026 107.576 80.0867 104.952 97.9903 112.455C97.9903 112.464 81.1307 102.113 61.8026 107.576Z" fill="url(#paint19_radial)"/>
<path fill-rule="evenodd" clip-rule="evenodd" d="M115.942 58.9194C115.942 58.9194 117.152 64.7735 121.962 67.7005C121.962 67.7395 117.415 63.1831 115.942 58.9194Z" fill="url(#paint20_radial)"/>
<path style="mix-blend-mode:screen" fill-rule="evenodd" clip-rule="evenodd" d="M37.8698 83.0773C38.0747 85.4287 39.2455 72.7156 43.4409 70.6862C47.6363 68.6569 60.4079 77.7794 66.2912 81.4187C79.8921 89.7997 95.1711 80.2771 98.947 75.1548C102.723 70.0326 97.0639 62.0125 93.8637 60.2368C90.6635 58.4611 89.0439 66.3348 82.5166 65.4079C75.9894 64.481 70.9354 56.9878 70.4573 54.5096C69.9792 52.0314 76.1065 48.4702 78.7408 48.0994C81.3751 47.7287 84.1753 40.4794 82.3605 38.7817C80.5458 37.0841 77.57 45.1431 70.4963 49.9434C65.4228 53.3876 57.5394 56.4414 53.3538 50.2361C53.3147 50.2361 36.1039 63.5833 37.8698 83.0773Z" fill="url(#paint21_radial)"/>
<path style="mix-blend-mode:screen" fill-rule="evenodd" clip-rule="evenodd" d="M86.5445 43.9432C86.3494 47.1044 93.2962 45.6506 99.5308 45.2701C105.765 44.8896 110.605 44.9188 110.605 44.9188C107.285 41.422 102.853 39.1871 98.0672 38.5965C90.1936 37.6891 86.7104 42.0016 86.5445 43.9432Z" fill="url(#paint22_linear)"/>
<path style="mix-blend-mode:screen" fill-rule="evenodd" clip-rule="evenodd" d="M56.7497 47.7769C58.6425 48.6453 59.1011 42.8986 61.6964 40.2642C63.2388 38.6842 65.2089 37.5889 67.3651 37.1128C67.3651 37.1128 62.0574 37.0153 58.7304 38.5471C55.4033 40.0789 55.1399 47.0452 56.7497 47.7769Z" fill="url(#paint23_linear)"/>
<path style="mix-blend-mode:screen" fill-rule="evenodd" clip-rule="evenodd" d="M73.2169 52.7243C75.2938 51.2288 77.8001 50.4482 80.3589 50.4997C82.9514 50.7065 85.4113 51.7314 87.3837 53.4267C87.3837 53.4267 84.3006 52.4511 82.1443 53.1731C79.9881 53.8951 76.661 57.4172 73.2169 52.7243Z" fill="url(#paint24_linear)"/>
<path style="mix-blend-mode:screen" fill-rule="evenodd" clip-rule="evenodd" d="M112.468 67.7401C113.917 67.3095 115.455 67.2799 116.919 67.6545C118.383 68.029 119.718 68.7937 120.781 69.8671C124.791 73.6039 125.103 76.9798 125.103 76.9798C125.103 76.9798 122.508 73.0771 119.923 72.677C117.337 72.277 114.166 74.2284 112.849 73.0575C111.532 71.8867 111.337 68.9012 112.468 67.7401Z" fill="url(#paint25_linear)"/>
<path style="mix-blend-mode:screen" fill-rule="evenodd" clip-rule="evenodd" d="M118.041 57.709C118.041 57.709 118.949 56.4894 121.944 56.5577C122.988 56.5373 124.024 56.737 124.986 57.1439C125.948 57.5507 126.813 58.1555 127.525 58.9188C128.247 59.8262 127.837 62.8898 127.837 62.8898C127.706 61.5586 127.191 60.2942 126.354 59.2505C125.164 58.109 118.012 60.9092 118.041 57.709Z" fill="url(#paint26_linear)"/>
<path style="mix-blend-mode:screen" fill-rule="evenodd" clip-rule="evenodd" d="M110.645 109.596C110.645 109.596 116.002 100.913 119.865 101.518C123.729 102.123 125.105 108.113 125.105 108.113C124.253 107.101 123.158 106.322 121.922 105.849C120.686 105.377 119.351 105.226 118.041 105.411C115.126 105.792 112.473 107.293 110.645 109.596Z" fill="url(#paint27_linear)"/>
<path style="mix-blend-mode:screen" fill-rule="evenodd" clip-rule="evenodd" d="M56.7472 112.454C56.7472 112.454 64.1037 108.747 78.8169 110.796C93.53 112.845 101.921 117.674 101.921 117.674C101.921 117.674 86.6808 114.367 77.7046 115.85C75.115 116.279 72.6788 117.366 70.6289 119.006C68.5791 120.646 66.9841 122.784 65.9965 125.216C65.9965 125.216 54.8836 120.484 56.7472 112.454Z" fill="url(#paint28_linear)"/>
<path fill-rule="evenodd" clip-rule="evenodd" d="M80.574 131.285C80.574 131.285 90.7307 129.86 95.8628 127.489C95.8628 127.489 85.1596 133.499 80.574 131.285Z" fill="#FFFF8D"/>
<path fill-rule="evenodd" clip-rule="evenodd" d="M110.351 115.02C113.441 115.898 116.667 116.189 119.864 115.879C119.864 115.879 113.473 118.338 110.351 115.02Z" fill="#FFFF8D"/>
<path fill-rule="evenodd" clip-rule="evenodd" d="M111.728 79.5742C111.728 79.5742 115.064 85.6819 118.411 87.2235C118.411 87.243 114.43 88.6577 111.728 79.5742Z" fill="#FFFF8D"/>
<path fill-rule="evenodd" clip-rule="evenodd" d="M94.8164 54.5093C99.0537 58.8032 104.644 61.5019 110.642 62.1488L94.8164 54.5093Z" fill="#FFFF8D"/>
<path fill-rule="evenodd" clip-rule="evenodd" d="M74.7587 57.1343C75.9098 58.4954 77.3361 59.5973 78.9438 60.3675C80.5515 61.1377 82.304 61.5587 84.0861 61.6029L74.7587 57.1343Z" fill="#FFFF8D"/>
<path fill-rule="evenodd" clip-rule="evenodd" d="M57.2716 50.4894C62.0323 49.5457 66.5344 47.5891 70.4725 44.7524L57.2716 50.4894Z" fill="#FFFF8D"/>
<path fill-rule="evenodd" clip-rule="evenodd" d="M44.5892 76.9697C44.5892 76.9697 51.7214 82.5311 54.7265 95.9856C54.7167 95.9856 56.4437 82.775 44.5892 76.9697Z" fill="url(#paint29_radial)"/>
<path fill-rule="evenodd" clip-rule="evenodd" d="M44.7648 105.312C44.7648 105.312 50.6189 108.122 53.624 105.176C56.629 102.229 54.8045 92.258 50.6091 84.6867C46.4137 77.1155 41.2719 73.8178 39.1255 74.9105C37.6424 75.6715 29.798 94.4532 44.7648 105.312Z" fill="#00777A"/>
<path fill-rule="evenodd" clip-rule="evenodd" d="M40.1532 76.7839C36.3188 75.8082 33.3235 89.0774 35.2749 96.2973C37.8214 105.654 50.3393 107.03 52.9833 104.2C55.6274 101.371 53.8029 80.228 40.1532 76.7839Z" fill="url(#paint30_radial)"/>
<path style="mix-blend-mode:screen" fill-rule="evenodd" clip-rule="evenodd" d="M36.0732 95.2732C36.0732 95.2732 35.0195 81.6138 38.4246 79.1746C41.8297 76.7354 46.9715 81.9065 46.9715 81.9065C44.987 82.5127 43.076 83.3373 41.2735 84.3652C38.0538 86.1506 36.0732 95.2732 36.0732 95.2732Z" fill="url(#paint31_linear)"/>
<path fill-rule="evenodd" clip-rule="evenodd" d="M40.6136 101.908C40.6136 101.908 45.131 104.366 48.4873 104.63C48.4971 104.63 44.0968 106.337 40.6136 101.908Z" fill="#FFFF8D"/>
<path style="mix-blend-mode:screen" fill-rule="evenodd" clip-rule="evenodd" d="M127.372 112.65C128.084 115.577 125.518 118.709 121.635 119.665C117.752 120.622 114.025 119.031 113.303 116.104C112.581 113.177 115.147 110.045 119.04 109.089C122.933 108.133 126.65 109.723 127.372 112.65Z" fill="url(#paint32_radial)"/>
<path style="mix-blend-mode:screen" d="M38.9968 104.011C43.1591 103.671 46.1669 98.9108 45.715 93.379C45.2631 87.8473 41.5227 83.6386 37.3605 83.9786C33.1982 84.3186 30.1904 89.0786 30.6423 94.6103C31.0942 100.142 34.8346 104.351 38.9968 104.011Z" fill="url(#paint33_radial)"/>
<path style="mix-blend-mode:screen" fill-rule="evenodd" clip-rule="evenodd" d="M54.8321 45.7192C52.2856 43.6605 52.188 39.5724 54.5882 36.6454C56.9883 33.7184 61.0081 32.9281 63.5546 34.9868C66.1011 37.0454 66.1987 41.114 63.7888 44.0898C61.3788 47.0656 57.3688 47.7778 54.8321 45.7192Z" fill="url(#paint34_radial)"/>
<path style="mix-blend-mode:screen" d="M125.47 72.7109C130.794 71.9939 134.429 66.3561 133.589 60.1187C132.749 53.8812 127.752 49.4061 122.428 50.1231C117.104 50.8401 113.468 56.4778 114.308 62.7153C115.148 68.9527 120.145 73.4279 125.47 72.7109Z" fill="url(#paint35_radial)"/>
<path style="mix-blend-mode:screen" d="M64.6222 99.3808C87.6095 99.3808 106.244 81.6108 106.244 59.6904C106.244 37.77 87.6095 20 64.6222 20C41.6349 20 23 37.77 23 59.6904C23 81.6108 41.6349 99.3808 64.6222 99.3808Z" fill="url(#paint36_radial)"/>
<defs>
<filter id="filter0_d" x="0.883179" y="0.561035" width="163.949" height="164.871" filterUnits="userSpaceOnUse" color-interpolation-filters="sRGB">
<feFlood flood-opacity="0" result="BackgroundImageFix"/>
<feColorMatrix in="SourceAlpha" type="matrix" values="0 0 0 0 0 0 0 0 0 0 0 0 0 0 0 0 0 0 127 0"/>
<feOffset/>
<feGaussianBlur stdDeviation="20"/>
<feColorMatrix type="matrix" values="0 0 0 0 0.12526 0 0 0 0 0.8125 0 0 0 0 0.2813 0 0 0 1 0"/>
<feBlend mode="normal" in2="BackgroundImageFix" result="effect1_dropShadow"/>
<feBlend mode="normal" in="SourceGraphic" in2="effect1_dropShadow" result="shape"/>
</filter>
<radialGradient id="paint0_radial" cx="0" cy="0" r="1" gradientUnits="userSpaceOnUse" gradientTransform="translate(86.1042 84.7356) scale(51.896)">
<stop offset="0.03" stop-color="#00FFA9"/>
<stop offset="0.15" stop-color="#00FBA6"/>
<stop offset="0.27" stop-color="#00EF9E"/>
<stop offset="0.39" stop-color="#00DB91"/>
<stop offset="0.52" stop-color="#00BF7E"/>
<stop offset="0.64" stop-color="#009B66"/>
<stop offset="0.76" stop-color="#006E49" stop-opacity="0.3"/>
<stop offset="0.88" stop-color="#003B27" stop-opacity="0.5"/>
<stop offset="1" stop-opacity="0"/>
</radialGradient>
<radialGradient id="paint1_radial" cx="0" cy="0" r="1" gradientUnits="userSpaceOnUse" gradientTransform="translate(55.4613 61.4558) scale(74.2487)">
<stop offset="0.01" stop-color="#0CC463"/>
<stop offset="0.21" stop-color="#0CC163"/>
<stop offset="0.36" stop-color="#0BB765"/>
<stop offset="0.5" stop-color="#09A767"/>
<stop offset="0.63" stop-color="#078F6B"/>
<stop offset="0.76" stop-color="#04726F"/>
<stop offset="0.87" stop-color="#004F74"/>
</radialGradient>
<linearGradient id="paint2_linear" x1="115.7" y1="92.5313" x2="115.7" y2="66.6467" gradientUnits="userSpaceOnUse">
<stop stop-color="#007C6F"/>
<stop offset="0.66" stop-color="#29D73B"/>
<stop offset="0.99" stop-color="#3BFF24"/>
</linearGradient>
<radialGradient id="paint3_radial" cx="0" cy="0" r="1" gradientUnits="userSpaceOnUse" gradientTransform="translate(81.7999 109.416) rotate(6.99) scale(16.6685 12.4764)">
<stop stop-color="#00FF00"/>
<stop offset="1" stop-opacity="0"/>
</radialGradient>
<linearGradient id="paint4_linear" x1="37.8681" y1="70.393" x2="104.36" y2="70.393" gradientUnits="userSpaceOnUse">
<stop offset="0.01" stop-color="#92FF2C"/>
<stop offset="0.23" stop-color="#8FFC2D"/>
<stop offset="0.39" stop-color="#86F332"/>
<stop offset="0.54" stop-color="#76E33A"/>
<stop offset="0.67" stop-color="#5FCD44"/>
<stop offset="0.8" stop-color="#42B152"/>
<stop offset="0.91" stop-color="#1F8E63"/>
<stop offset="1" stop-color="#007072"/>
</linearGradient>
<radialGradient id="paint5_radial" cx="0" cy="0" r="1" gradientUnits="userSpaceOnUse" gradientTransform="translate(-2387.52 3160.59) rotate(30.0024) scale(206.473 78.5407)">
<stop stop-color="#00FF00"/>
<stop offset="1" stop-opacity="0"/>
</radialGradient>
<radialGradient id="paint6_radial" cx="0" cy="0" r="1" gradientUnits="userSpaceOnUse" gradientTransform="translate(115.709 106.436) scale(6.63458)">
<stop offset="0.01" stop-color="#3BFF24"/>
<stop offset="0.53" stop-color="#26D832"/>
<stop offset="1" stop-color="#11B140"/>
</radialGradient>
<radialGradient id="paint7_radial" cx="0" cy="0" r="1" gradientUnits="userSpaceOnUse" gradientTransform="translate(-10099.8 618.226) rotate(82.4054) scale(227.775 226.772)">
<stop stop-color="#00FF00"/>
<stop offset="1" stop-opacity="0"/>
</radialGradient>
<radialGradient id="paint8_radial" cx="0" cy="0" r="1" gradientUnits="userSpaceOnUse" gradientTransform="translate(3847.09 6607.91) scale(3778.96 5664.48)">
<stop stop-color="#FFFF4A"/>
<stop offset="1" stop-opacity="0"/>
</radialGradient>
<radialGradient id="paint9_radial" cx="0" cy="0" r="1" gradientUnits="userSpaceOnUse" gradientTransform="translate(102.685 54.3923) scale(9.73722)">
<stop offset="0.02" stop-color="#B0FF24"/>
<stop offset="0.29" stop-color="#88F72B"/>
<stop offset="0.89" stop-color="#25E43D"/>
<stop offset="1" stop-color="#11E040"/>
</radialGradient>
<radialGradient id="paint10_radial" cx="0" cy="0" r="1" gradientUnits="userSpaceOnUse" gradientTransform="translate(1537.25 523.042) scale(60.4088 22.9207)">
<stop offset="0.02" stop-color="#B0FF24"/>
<stop offset="0.29" stop-color="#88F72B"/>
<stop offset="0.89" stop-color="#25E43D"/>
<stop offset="1" stop-color="#11E040"/>
</radialGradient>
<radialGradient id="paint11_radial" cx="0" cy="0" r="1" gradientUnits="userSpaceOnUse" gradientTransform="translate(1497.72 802.232) scale(106.204 69.3382)">
<stop offset="0.02" stop-color="#B0FF24"/>
<stop offset="0.29" stop-color="#88F72B"/>
<stop offset="0.89" stop-color="#25E43D"/>
<stop offset="1" stop-color="#11E040"/>
</radialGradient>
<radialGradient id="paint12_radial" cx="0" cy="0" r="1" gradientUnits="userSpaceOnUse" gradientTransform="translate(99.0012 55.5632) scale(13.9716)">
<stop offset="0.01" stop-color="#00FF24"/>
<stop offset="0.19" stop-color="#28FF1E"/>
<stop offset="0.58" stop-color="#8DFF10"/>
<stop offset="1" stop-color="#FFFF00"/>
</radialGradient>
<radialGradient id="paint13_radial" cx="0" cy="0" r="1" gradientUnits="userSpaceOnUse" gradientTransform="translate(1992.51 2334.16) scale(143.981 217.838)">
<stop offset="0.01" stop-color="#00FF24"/>
<stop offset="0.19" stop-color="#28FF1E"/>
<stop offset="0.58" stop-color="#8DFF10"/>
<stop offset="1" stop-color="#FFFF00"/>
</radialGradient>
<radialGradient id="paint14_radial" cx="0" cy="0" r="1" gradientUnits="userSpaceOnUse" gradientTransform="translate(1647.96 1031.18) scale(66.115 67.0595)">
<stop offset="0.01" stop-color="#00FF24"/>
<stop offset="0.19" stop-color="#28FF1E"/>
<stop offset="0.58" stop-color="#8DFF10"/>
<stop offset="1" stop-color="#FFFF00"/>
</radialGradient>
<radialGradient id="paint15_radial" cx="0" cy="0" r="1" gradientUnits="userSpaceOnUse" gradientTransform="translate(4514.06 3536.94) scale(1054.11 503.515)">
<stop offset="0.01" stop-color="#00FF24"/>
<stop offset="0.19" stop-color="#28FF1E"/>
<stop offset="0.58" stop-color="#8DFF10"/>
<stop offset="1" stop-color="#FFFF00"/>
</radialGradient>
<radialGradient id="paint16_radial" cx="0" cy="0" r="1" gradientUnits="userSpaceOnUse" gradientTransform="translate(2275.66 2446.48) scale(138.01 145.179)">
<stop offset="0.01" stop-color="#00FF24"/>
<stop offset="0.19" stop-color="#28FF1E"/>
<stop offset="0.58" stop-color="#8DFF10"/>
<stop offset="1" stop-color="#FFFF00"/>
</radialGradient>
<radialGradient id="paint17_radial" cx="0" cy="0" r="1" gradientUnits="userSpaceOnUse" gradientTransform="translate(1480.74 1060.14) scale(163.461 133.837)">
<stop offset="0.01" stop-color="#00FF24"/>
<stop offset="0.19" stop-color="#28FF1E"/>
<stop offset="0.58" stop-color="#8DFF10"/>
<stop offset="1" stop-color="#FFFF00"/>
</radialGradient>
<radialGradient id="paint18_radial" cx="0" cy="0" r="1" gradientUnits="userSpaceOnUse" gradientTransform="translate(1695.68 1009.18) scale(140.077 97.3943)">
<stop offset="0.01" stop-color="#00FF24"/>
<stop offset="0.19" stop-color="#28FF1E"/>
<stop offset="0.58" stop-color="#8DFF10"/>
<stop offset="1" stop-color="#FFFF00"/>
</radialGradient>
<radialGradient id="paint19_radial" cx="0" cy="0" r="1" gradientUnits="userSpaceOnUse" gradientTransform="translate(3400.48 964.892) scale(569.595 101.847)">
<stop offset="0.01" stop-color="#3BFF24"/>
<stop offset="0.53" stop-color="#26D832"/>
<stop offset="1" stop-color="#11B140"/>
</radialGradient>
<radialGradient id="paint20_radial" cx="0" cy="0" r="1" gradientUnits="userSpaceOnUse" gradientTransform="translate(926.1 798.13) scale(23.4776 34.2471)">
<stop offset="0.01" stop-color="#3BFF24"/>
<stop offset="0.53" stop-color="#26D832"/>
<stop offset="1" stop-color="#11B140"/>
</radialGradient>
<radialGradient id="paint21_radial" cx="0" cy="0" r="1" gradientUnits="userSpaceOnUse" gradientTransform="translate(51.4122 56.5585) scale(48.2178)">
<stop stop-color="#97FF11"/>
<stop offset="1" stop-opacity="0"/>
</radialGradient>
<linearGradient id="paint22_linear" x1="91.3058" y1="37.8647" x2="105.014" y2="50.8509" gradientUnits="userSpaceOnUse">
<stop stop-color="#FFFFE8"/>
<stop offset="0.2" stop-color="#BBBBAA"/>
<stop offset="0.42" stop-color="#79796E"/>
<stop offset="0.61" stop-color="#45453F"/>
<stop offset="0.78" stop-color="#1F1F1D"/>
<stop offset="0.91" stop-color="#080808"/>
<stop offset="1"/>
</linearGradient>
<linearGradient id="paint23_linear" x1="876.49" y1="673.737" x2="922.463" y2="720.667" gradientUnits="userSpaceOnUse">
<stop stop-color="#FFFFE8"/>
<stop offset="0.2" stop-color="#BBBBAA"/>
<stop offset="0.42" stop-color="#79796E"/>
<stop offset="0.61" stop-color="#45453F"/>
<stop offset="0.78" stop-color="#1F1F1D"/>
<stop offset="0.91" stop-color="#080808"/>
<stop offset="1"/>
</linearGradient>
<linearGradient id="paint24_linear" x1="1341.85" y1="374.514" x2="1364.66" y2="440.733" gradientUnits="userSpaceOnUse">
<stop stop-color="#FFFFE8"/>
<stop offset="0.2" stop-color="#BBBBAA"/>
<stop offset="0.42" stop-color="#79796E"/>
<stop offset="0.61" stop-color="#45453F"/>
<stop offset="0.78" stop-color="#1F1F1D"/>
<stop offset="0.91" stop-color="#080808"/>
<stop offset="1"/>
</linearGradient>
<linearGradient id="paint25_linear" x1="1807.5" y1="917.188" x2="1914.17" y2="1058.3" gradientUnits="userSpaceOnUse">
<stop stop-color="#FFFFE8"/>
<stop offset="0.2" stop-color="#BBBBAA"/>
<stop offset="0.42" stop-color="#79796E"/>
<stop offset="0.61" stop-color="#45453F"/>
<stop offset="0.78" stop-color="#1F1F1D"/>
<stop offset="0.91" stop-color="#080808"/>
<stop offset="1"/>
</linearGradient>
<linearGradient id="paint26_linear" x1="1447.39" y1="542.06" x2="1494.2" y2="611.515" gradientUnits="userSpaceOnUse">
<stop stop-color="#FFFFE8"/>
<stop offset="0.2" stop-color="#BBBBAA"/>
<stop offset="0.42" stop-color="#79796E"/>
<stop offset="0.61" stop-color="#45453F"/>
<stop offset="0.78" stop-color="#1F1F1D"/>
<stop offset="0.91" stop-color="#080808"/>
<stop offset="1"/>
</linearGradient>
<linearGradient id="paint27_linear" x1="1972.59" y1="1127.09" x2="2026.25" y2="1217.81" gradientUnits="userSpaceOnUse">
<stop stop-color="#FFFFE8"/>
<stop offset="0.2" stop-color="#BBBBAA"/>
<stop offset="0.42" stop-color="#79796E"/>
<stop offset="0.61" stop-color="#45453F"/>
<stop offset="0.78" stop-color="#1F1F1D"/>
<stop offset="0.91" stop-color="#080808"/>
<stop offset="1"/>
</linearGradient>
<linearGradient id="paint28_linear" x1="3578.36" y1="2006.44" x2="3832.49" y2="2733.21" gradientUnits="userSpaceOnUse">
<stop stop-color="#FFFFE8"/>
<stop offset="0.2" stop-color="#BBBBAA"/>
<stop offset="0.42" stop-color="#79796E"/>
<stop offset="0.61" stop-color="#45453F"/>
<stop offset="0.78" stop-color="#1F1F1D"/>
<stop offset="0.91" stop-color="#080808"/>
<stop offset="1"/>
</linearGradient>
<radialGradient id="paint29_radial" cx="0" cy="0" r="1" gradientUnits="userSpaceOnUse" gradientTransform="translate(-287.916 2879.41) rotate(14.16) scale(75.321 140.147)">
<stop offset="0.02" stop-color="#B0FF24"/>
<stop offset="0.29" stop-color="#88F72B"/>
<stop offset="0.89" stop-color="#25E43D"/>
<stop offset="1" stop-color="#11E040"/>
</radialGradient>
<radialGradient id="paint30_radial" cx="0" cy="0" r="1" gradientUnits="userSpaceOnUse" gradientTransform="translate(-589.456 4661.91) rotate(14.16) scale(224.102 333.234)">
<stop offset="0.01" stop-color="#00FF24"/>
<stop offset="0.19" stop-color="#28FF1E"/>
<stop offset="0.58" stop-color="#8DFF10"/>
<stop offset="1" stop-color="#FFFF00"/>
</radialGradient>
<linearGradient id="paint31_linear" x1="-371.178" y1="2471.02" x2="-258.104" y2="2588.83" gradientUnits="userSpaceOnUse">
<stop stop-color="#FFFFE8"/>
<stop offset="0.2" stop-color="#BBBBAA"/>
<stop offset="0.42" stop-color="#79796E"/>
<stop offset="0.61" stop-color="#45453F"/>
<stop offset="1" stop-color="#1F1F1D" stop-opacity="0"/>
</linearGradient>
<radialGradient id="paint32_radial" cx="0" cy="0" r="1" gradientUnits="userSpaceOnUse" gradientTransform="translate(2605.38 2016.66) rotate(-13.8697) scale(106.256 62.236)">
<stop stop-color="#00FF00"/>
<stop offset="1" stop-opacity="0"/>
</radialGradient>
<radialGradient id="paint33_radial" cx="0" cy="0" r="1" gradientUnits="userSpaceOnUse" gradientTransform="translate(-9560.9 984.383) rotate(85.33) scale(156.078 155.264)">
<stop stop-color="#00FF00"/>
<stop offset="1" stop-opacity="0"/>
</radialGradient>
<radialGradient id="paint34_radial" cx="0" cy="0" r="1" gradientUnits="userSpaceOnUse" gradientTransform="translate(-6292.42 -3602.49) rotate(128.928) scale(90.2627 79.4968)">
<stop stop-color="#00FF00"/>
<stop offset="1" stop-opacity="0"/>
</radialGradient>
<radialGradient id="paint35_radial" cx="0" cy="0" r="1" gradientUnits="userSpaceOnUse" gradientTransform="translate(-9819.4 289.912) rotate(82.33) scale(227.753 226.873)">
<stop stop-color="#00FF00"/>
<stop offset="1" stop-opacity="0"/>
</radialGradient>
<radialGradient id="paint36_radial" cx="0" cy="0" r="1" gradientUnits="userSpaceOnUse" gradientTransform="translate(64.1996 59.7716) scale(41.5104 39.7056)">
<stop offset="0.01" stop-color="#6A00FF"/>
<stop offset="0.08" stop-color="#0077D0"/>
<stop offset="0.17" stop-color="#005BA0"/>
<stop offset="0.27" stop-color="#004375" stop-opacity="0"/>
<stop offset="1" stop-color="#01001D" stop-opacity="0"/>
</radialGradient>
</defs>
</svg>
