<svg width="198" height="197" viewBox="0 0 198 197" fill="none" xmlns="http://www.w3.org/2000/svg">
<path style="mix-blend-mode:screen" d="M105.99 157.926C138.58 157.926 165 131.549 165 99.0118C165 66.4742 138.58 40.0972 105.99 40.0972C73.3998 40.0972 46.9801 66.4742 46.9801 99.0118C46.9801 131.549 73.3998 157.926 105.99 157.926Z" fill="url(#paint0_radial)"/>
<g filter="url(#filter0_d)">
<path fill-rule="evenodd" clip-rule="evenodd" d="M151.197 100.895C151.203 107.501 149.919 114.043 147.419 120.147C144.918 126.251 141.251 131.797 136.627 136.467C132.003 141.138 126.512 144.841 120.47 147.366C114.427 149.89 107.951 151.186 101.412 151.179C100.529 151.179 99.6362 151.179 98.7641 151.105C97.4611 151.041 96.1687 150.914 94.8972 150.754C85.5249 149.515 76.7004 145.588 69.4688 139.439C64.8077 135.472 60.8923 130.69 57.9104 125.32C57.6056 124.768 57.3114 124.259 57.0172 123.643C57.0172 123.643 57.0172 123.643 57.0172 123.59C56.7125 122.985 56.4288 122.38 56.1556 121.764C55.2844 119.834 54.5403 117.849 53.928 115.82C53.4629 114.341 53.0736 112.838 52.7616 111.319C52.541 110.257 52.3518 109.196 52.2047 108.071C51.8665 105.708 51.698 103.324 51.7003 100.937C51.7003 99.5465 51.7529 98.1559 51.879 96.7971C51.942 95.9267 52.0366 95.0668 52.1522 94.207C52.7818 89.3518 54.1241 84.6185 56.1346 80.163C60.0779 71.3649 66.4434 63.8985 74.4717 58.6546C82.4999 53.4108 91.8519 50.6109 101.412 50.5889H102.978C103.535 50.5889 104.091 50.5889 104.648 50.6738C107.481 50.8545 110.294 51.2807 113.054 51.9476C114.631 52.3298 116.207 52.7756 117.688 53.3064C118.739 53.6567 119.727 54.0494 120.725 54.4741C121.471 54.7925 122.196 55.1216 122.921 55.4719L123.299 55.6524C128.105 58.0267 132.5 61.1665 136.318 64.9513C136.865 65.4821 137.369 66.0128 137.916 66.5967C138.262 66.9788 138.609 67.3716 138.966 67.7644C139.544 68.4225 140.101 69.1125 140.648 69.8025C144.977 75.4132 148.075 81.8904 149.737 88.8038C150.708 92.7591 151.198 96.8194 151.197 100.895Z" fill="white"/>
</g>
<path style="mix-blend-mode:screen" d="M147.989 147.75C175.233 120.55 175.233 76.45 147.989 49.25C120.745 22.05 76.5737 22.05 49.3297 49.25C22.0857 76.45 22.0856 120.55 49.3297 147.75C76.5737 174.95 120.745 174.95 147.989 147.75Z" fill="url(#paint1_radial)"/>
<path fill-rule="evenodd" clip-rule="evenodd" d="M133.517 57.5212C133.517 57.5212 140.481 59.4375 145.112 59.159C145.112 59.159 153.403 64.7853 158.045 79.7034C158.045 79.7034 154.061 84.4272 154.91 89.9087C154.91 89.9087 147.801 70.6344 133.517 57.5212Z" fill="url(#paint2_linear)"/>
<path fill-rule="evenodd" clip-rule="evenodd" d="M141.15 168.828C139.547 168.356 137.876 168.156 136.207 168.238C135.343 167.529 134.639 166.645 134.143 165.644C133.647 164.643 133.369 163.549 133.328 162.433C134.508 160.985 135.502 159.394 136.285 157.698C137.033 161.731 138.697 165.539 141.15 168.828Z" fill="url(#paint3_linear)"/>
<path fill-rule="evenodd" clip-rule="evenodd" d="M156.024 100.714C156.03 107.648 154.666 114.514 152.011 120.92C149.356 127.327 145.461 133.148 140.55 138.05C135.639 142.952 129.808 146.839 123.391 149.488C116.974 152.138 110.096 153.497 103.151 153.49C102.214 153.49 101.266 153.49 100.339 153.412C98.9556 153.345 97.583 153.212 96.2327 153.045C86.2792 151.743 76.9075 147.622 69.2274 141.168C64.2772 137.005 60.1191 131.986 56.9522 126.35C56.6286 125.771 56.3161 125.236 56.0037 124.59C56.0037 124.59 56.0037 124.59 56.0037 124.534C55.6801 123.899 55.3788 123.264 55.0886 122.618C54.1634 120.592 53.3731 118.508 52.7229 116.379C52.229 114.827 51.8155 113.25 51.4842 111.655C51.2499 110.541 51.049 109.427 50.8928 108.246C50.5091 105.753 50.3077 103.236 50.2902 100.714C50.2902 99.2548 50.346 97.7953 50.4799 96.3693C50.5468 95.4557 50.6473 94.5532 50.77 93.6508C51.4327 88.5601 52.8506 83.5961 54.977 78.9221C59.1778 69.6882 65.952 61.8565 74.4905 56.3624C83.0289 50.8683 92.9709 47.9439 103.129 47.9385H104.792C105.383 47.9385 105.975 47.9385 106.566 48.0276C109.575 48.2173 112.562 48.6646 115.494 49.3645C117.167 49.7656 118.841 50.2336 120.415 50.7906C121.531 51.1583 122.58 51.5705 123.64 52.0161C124.432 52.3504 125.202 52.6958 125.972 53.0634L126.374 53.2528C131.477 55.7448 136.145 59.0402 140.2 63.0125C140.78 63.5696 141.316 64.1266 141.896 64.7394C142.265 65.1405 142.633 65.5527 143.012 65.9649C143.626 66.6557 144.217 67.3799 144.798 68.1041C149.415 73.9662 152.732 80.7412 154.529 87.9799C155.545 92.148 156.047 96.4245 156.024 100.714Z" fill="url(#paint4_radial)"/>
<path style="mix-blend-mode:multiply" opacity="0.5" fill-rule="evenodd" clip-rule="evenodd" d="M52.3005 92.9158C52.3005 92.9158 61.7412 97.818 70.1553 91.1444C78.5694 84.4708 71.8515 59.5591 71.8515 59.5591L52.3005 92.9158Z" fill="url(#paint5_linear)"/>
<path style="mix-blend-mode:multiply" opacity="0.89" fill-rule="evenodd" clip-rule="evenodd" d="M113.598 130.869C113.598 130.869 117.872 135.994 128.306 136.551C138.74 137.108 149.174 125.154 151.573 114.325C153.972 103.495 146.216 92.5325 138.606 90.8279C130.995 89.1233 113.598 130.869 113.598 130.869Z" fill="url(#paint6_linear)"/>
<path fill-rule="evenodd" clip-rule="evenodd" d="M59.9811 131.172C59.9811 131.172 63.3288 136.62 62.4807 145.488C62.4807 145.488 69.8235 158.3 90.5462 159.359C90.5462 159.359 100.969 151.683 110.956 152.93C104.941 145.358 97.1301 139.403 88.2295 135.604C79.3289 131.805 69.6199 130.282 59.9811 131.172Z" fill="url(#paint7_linear)"/>
<path fill-rule="evenodd" clip-rule="evenodd" d="M52.3006 92.9158C52.3006 92.9158 48.8301 83.3456 45.7167 79.9698C45.7167 79.9698 43.3175 64.762 58.8288 59.5591C58.8288 59.5591 67.1759 61.1523 71.8739 59.5591C71.8739 59.5591 73.6594 69.8313 66.5733 80.8054C63.2088 86.2395 58.2148 90.4769 52.3006 92.9158Z" fill="url(#paint8_linear)"/>
<path fill-rule="evenodd" clip-rule="evenodd" d="M147.299 100.378C147.299 100.378 143.606 87.4095 131.052 86.6296C117.739 85.8052 105.954 112.321 110.061 124.989C114.168 137.656 129.032 135.829 135.727 131.228C144.007 125.635 148.047 113.279 147.299 100.378Z" fill="url(#paint9_linear)"/>
<path style="mix-blend-mode:multiply" opacity="0.5" fill-rule="evenodd" clip-rule="evenodd" d="M90.8489 62.2855C90.8489 62.2855 95.3126 69.8949 104.073 69.0593C113.603 68.1457 116.158 60.1463 115.801 56.9042C115.444 53.6621 90.8489 62.2855 90.8489 62.2855Z" fill="url(#paint10_linear)"/>
<path fill-rule="evenodd" clip-rule="evenodd" d="M133.093 91.1659C121.588 91.099 104.537 121.671 119.379 131.954C133.473 141.714 146.507 120.523 148.035 113.281C149.564 106.039 148.593 91.255 133.093 91.1659Z" fill="url(#paint11_linear)"/>
<path fill-rule="evenodd" clip-rule="evenodd" d="M127.749 131.641C127.202 131.641 126.633 131.519 126.165 131.441C119.023 130.215 116.345 125.257 115.742 120.299C115.424 117.4 115.682 114.465 116.501 111.665C117.851 107.209 125.093 96.6133 133.385 95.1315C134.985 94.8451 136.629 94.926 138.193 95.368C139.757 95.81 141.2 96.6016 142.412 97.6829C143.593 98.6553 144.563 99.8568 145.266 101.214C145.968 102.572 146.386 104.058 146.497 105.582C147.601 116.924 135.527 132.332 127.749 131.641Z" fill="url(#paint12_linear)"/>
<path fill-rule="evenodd" clip-rule="evenodd" d="M92.9195 48.3482C92.9195 48.3482 87.6412 55.122 90.2525 61.2163C93.0088 67.6782 108.509 67.3997 113.519 62.4641C118.53 57.5286 114.535 48.1142 110.172 46.4653C107.334 45.498 104.317 45.1653 101.336 45.4906C98.3546 45.816 95.4814 46.7915 92.9195 48.3482Z" fill="url(#paint13_radial)"/>
<path fill-rule="evenodd" clip-rule="evenodd" d="M91.8829 57.1719C94.5835 62.5977 113.085 63.3776 114.391 53.9521C115.663 45.0391 102.562 43.925 98.7682 44.8943C94.9741 45.8636 88.245 49.8521 91.8829 57.1719Z" fill="url(#paint14_linear)"/>
<path fill-rule="evenodd" clip-rule="evenodd" d="M111.759 51.6908C111.792 51.9795 111.792 52.2711 111.759 52.5598C111.747 52.8565 111.706 53.1513 111.636 53.4399C110.13 59.4896 97.9548 61.4616 95.1762 58.097C94.4923 57.3023 93.993 56.3663 93.7143 55.3562C92.7658 51.6462 96.0801 48.6715 98.2785 47.5574C100.99 46.0422 111.156 44.5827 111.759 51.6908Z" fill="url(#paint15_linear)"/>
<path fill-rule="evenodd" clip-rule="evenodd" d="M45.7174 79.9888C45.974 83.4314 63.3601 67.0762 58.8295 59.5781C58.8295 59.5781 44.3113 60.9151 45.7174 79.9888Z" fill="url(#paint16_linear)"/>
<path fill-rule="evenodd" clip-rule="evenodd" d="M62.477 145.489C61.3611 139.328 92.7967 143.584 90.5425 159.36C90.0515 162.803 64.2737 155.728 62.477 145.489Z" fill="url(#paint17_linear)"/>
<path fill-rule="evenodd" clip-rule="evenodd" d="M87.7191 158.902C87.1946 159.325 69.9647 156.785 64.0392 146.335C63.6486 145.633 65.4899 145.41 68.3132 145.744C69.511 145.888 70.6996 146.1 71.873 146.379C75.9572 147.326 80.8003 149.176 84.0254 152.117C84.8856 152.874 85.6807 153.701 86.4023 154.59C87.0512 155.362 87.5541 156.246 87.8865 157.198C88.1654 158.145 87.9646 158.713 87.7191 158.902Z" fill="url(#paint18_linear)"/>
<path fill-rule="evenodd" clip-rule="evenodd" d="M86.403 154.593C80.8109 153.479 75.7253 150.6 71.896 146.382C75.9803 147.329 80.8234 149.178 84.0484 152.12C84.9009 152.877 85.6885 153.704 86.403 154.593Z" fill="url(#paint19_linear)"/>
<path fill-rule="evenodd" clip-rule="evenodd" d="M56.9298 64.3146C56.508 65.6165 56.0011 66.8894 55.4122 68.1249C54.0314 70.9997 52.0488 73.5453 49.5982 75.5895C48.6274 76.3583 47.8351 76.7036 47.5226 76.4363C46.8642 75.8681 46.9758 71.6678 48.9845 67.7573C50.9931 63.8467 56.4611 61.0726 57.0303 61.663C57.3762 62.0418 57.432 62.7437 56.9298 64.3146Z" fill="url(#paint20_linear)"/>
<path fill-rule="evenodd" clip-rule="evenodd" d="M56.9333 64.3147C56.5115 65.6166 56.0045 66.8894 55.4156 68.125C54.0349 70.9998 52.0522 73.5453 49.6017 75.5896C51.2103 71.3514 53.7104 67.5067 56.9333 64.3147Z" fill="url(#paint21_linear)"/>
<path fill-rule="evenodd" clip-rule="evenodd" d="M62.4802 123.756C61.8383 123.312 61.3044 122.729 60.9179 122.051C59.1659 119.233 58.1504 114.33 60.0028 113.328C62.2905 112.08 65.6717 112.726 67.2005 116.782C67.2605 116.918 67.309 117.06 67.3456 117.205C67.3504 117.227 67.3504 117.25 67.3456 117.272C67.3636 117.368 67.3936 117.462 67.4349 117.55C67.4349 117.695 67.5242 117.84 67.5576 117.996C68.5173 121.884 65.0245 125.305 62.4802 123.756Z" fill="url(#paint22_linear)"/>
<path style="mix-blend-mode:multiply" opacity="0.4" fill-rule="evenodd" clip-rule="evenodd" d="M67.1782 116.742C66.319 115.015 62.9712 113.01 60.9179 114.881C58.8646 116.753 60.717 121.566 60.9179 122.012C59.1659 119.193 58.1504 114.291 60.0028 113.288C62.2682 112.04 65.6494 112.687 67.1782 116.742Z" fill="url(#paint23_radial)"/>
<path fill-rule="evenodd" clip-rule="evenodd" d="M78.4933 72.3773C78.2171 72.1511 77.9958 71.8654 77.846 71.5417C77.1541 70.1824 76.8752 67.8874 77.7679 67.4974C78.8838 67.0183 80.3903 67.4417 80.9371 69.3691C80.9432 69.4358 80.9432 69.503 80.9371 69.5697V69.7034C80.9371 69.7702 80.9371 69.8482 80.9371 69.915C81.3389 71.7422 79.6092 73.1906 78.4933 72.3773Z" fill="url(#paint24_linear)"/>
<path style="mix-blend-mode:multiply" opacity="0.4" fill-rule="evenodd" clip-rule="evenodd" d="M80.9243 69.3481C80.5895 68.5236 79.1388 67.4652 78.1233 68.234C77.1078 69.0027 77.7662 71.2978 77.8332 71.5095C77.1413 70.1502 76.8624 67.8552 77.7551 67.4652C78.8487 66.9973 80.3775 67.4206 80.9243 69.3481Z" fill="url(#paint25_radial)"/>
<path style="mix-blend-mode:screen" opacity="0.5" fill-rule="evenodd" clip-rule="evenodd" d="M74.5101 117.004C74.5101 117.004 77.6905 122.062 86.4059 121.538C95.1212 121.015 96.7058 116.748 97.2415 113.283C97.4539 110.673 97.1389 108.048 96.3153 105.562C96.3153 105.562 77.0433 109.194 74.5101 117.004Z" fill="url(#paint26_radial)"/>
<path style="mix-blend-mode:multiply" opacity="0.4" fill-rule="evenodd" clip-rule="evenodd" d="M121.273 141.422C120.622 140.921 119.849 140.601 119.034 140.496C118.218 140.39 117.389 140.502 116.631 140.82C115.616 141.072 114.699 141.622 113.999 142.398C113.299 143.174 112.848 144.142 112.703 145.176C112.325 144.817 112.074 144.343 111.989 143.829C111.905 143.314 111.991 142.786 112.234 142.324C112.585 141.785 113.059 141.338 113.618 141.02C115.917 139.539 119.945 138.603 120.805 140.107C121.052 140.507 121.212 140.955 121.273 141.422Z" fill="url(#paint27_radial)"/>
<path fill-rule="evenodd" clip-rule="evenodd" d="M96.7372 110.464V110.653C96.7372 124.134 76.5278 122.485 73.3028 115.31C72.8358 114.261 72.4624 113.172 72.1869 112.057C70.4014 104.837 71.5173 95.1668 74.7423 92.9497C77.9674 90.7326 84.6517 90.5655 89.3944 92.9497C94.8178 95.6236 96.9269 103.656 96.7372 110.464Z" fill="url(#paint28_linear)"/>
<path style="mix-blend-mode:multiply" opacity="0.4" fill-rule="evenodd" clip-rule="evenodd" d="M96.7363 110.462V110.652C96.7363 110.652 97.0376 102.218 92.9533 97.7166C88.869 93.2155 80.6781 91.9454 76.0136 97.0147C71.349 102.084 72.2306 111.587 72.2752 112.044C70.4898 104.825 71.6057 95.1541 74.8307 92.937C78.0557 90.7199 84.7401 90.5528 89.4828 92.937C94.8169 95.622 96.926 103.655 96.7363 110.462Z" fill="url(#paint29_linear)"/>
<path fill-rule="evenodd" clip-rule="evenodd" d="M134.666 68.023C133.55 68.6358 130.794 66.9089 128.305 64.8255C125.281 62.2296 122.625 58.9875 123.663 58.5196C125.08 57.8846 130.292 58.3079 132.691 60.2799C133.801 61.2353 134.689 62.4217 135.291 63.7559C136.039 65.4828 136.106 67.2877 134.666 68.023Z" fill="url(#paint30_linear)"/>
<path style="mix-blend-mode:multiply" opacity="0.4" fill-rule="evenodd" clip-rule="evenodd" d="M135.326 63.7566C131.554 58.0745 125.74 58.3197 125.283 59.8683C124.825 61.4169 128.34 64.8707 128.34 64.8707C125.316 62.2748 122.66 59.0327 123.698 58.5648C125.115 57.9297 130.327 58.3531 132.726 60.3251C133.831 61.2676 134.718 62.4384 135.326 63.7566Z" fill="url(#paint31_linear)"/>
<path fill-rule="evenodd" clip-rule="evenodd" d="M49.4635 78.5613C49.4635 78.5613 58.0673 74.2497 58.9712 65.7378C58.9712 65.7378 54.6302 74.4948 49.4635 78.5613Z" fill="#E5BDFA"/>
<path fill-rule="evenodd" clip-rule="evenodd" d="M113.598 120.766C113.598 120.766 114.446 103.698 126.811 93.6372C126.811 93.6372 111.98 100.712 113.598 120.766Z" fill="#E5BDFA"/>
<path fill-rule="evenodd" clip-rule="evenodd" d="M92.3806 57.9217C92.3806 57.9217 94.7017 61.4423 102.625 61.1638C110.548 60.8853 113.159 57.2867 113.594 56.3174C113.594 56.3174 111.63 62.3782 102.669 62.1665C93.2176 61.9437 92.3806 57.9217 92.3806 57.9217Z" fill="#FFA5F7"/>
<path fill-rule="evenodd" clip-rule="evenodd" d="M76.0013 143.929C76.0013 143.929 88.0198 148.764 90.5083 155.739C90.4525 155.739 90.1847 147.739 76.0013 143.929Z" fill="#FFA5F7"/>
<path style="mix-blend-mode:multiply" opacity="0.71" fill-rule="evenodd" clip-rule="evenodd" d="M146.486 105.54C146.486 105.54 142.401 98.4986 131.075 101.585C120.92 104.348 116.568 117.394 115.731 120.235C115.413 117.335 115.671 114.401 116.49 111.601C117.84 107.144 125.082 96.5488 133.374 95.0671C134.974 94.7806 136.618 94.8615 138.182 95.3035C139.746 95.7456 141.189 96.5372 142.401 97.6184C143.585 98.5934 144.557 99.7984 145.259 101.16C145.961 102.522 146.378 104.012 146.486 105.54Z" fill="url(#paint32_linear)"/>
<path fill-rule="evenodd" clip-rule="evenodd" d="M160.248 162.047C160.039 163.209 159.663 164.335 159.132 165.389C158.132 167.438 156.588 169.172 154.668 170.403C153.307 171.275 151.792 171.88 150.204 172.186C148.7 172.464 147.156 172.464 145.651 172.186L144.993 172.052C144.669 171.974 144.357 171.885 144.044 171.785C141.764 171.06 139.739 169.7 138.208 167.863C137.232 166.673 136.476 165.318 135.976 163.863C135.976 163.707 135.876 163.562 135.831 163.406C135.776 163.246 135.732 163.082 135.697 162.916C135.562 162.404 135.465 161.883 135.407 161.356C135.353 160.987 135.32 160.615 135.307 160.242C135.307 159.964 135.307 159.685 135.307 159.407C135.332 158.813 135.395 158.221 135.496 157.635C135.557 157.294 135.636 156.955 135.731 156.621C135.787 156.41 135.842 156.198 135.909 155.997C136.281 154.827 136.826 153.719 137.527 152.711C137.865 152.227 138.238 151.769 138.643 151.34C139.313 150.62 140.061 149.977 140.875 149.424C143.594 147.592 146.922 146.897 150.149 147.486L150.539 147.564L150.952 147.653C151.646 147.829 152.325 148.06 152.983 148.343C153.351 148.511 153.719 148.689 154.099 148.889C154.478 149.09 154.568 149.157 154.802 149.313L155.304 149.658L155.393 149.714C156.481 150.517 157.434 151.487 158.217 152.588L158.54 153.067C158.618 153.179 158.685 153.29 158.752 153.402C158.819 153.513 158.975 153.78 159.076 153.981C159.456 154.692 159.767 155.438 160.002 156.209C160.287 157.125 160.459 158.071 160.515 159.028C160.552 160.041 160.462 161.056 160.248 162.047Z" fill="url(#paint33_radial)"/>
<path fill-rule="evenodd" clip-rule="evenodd" d="M151.248 146.258C149.747 146.275 148.286 146.747 147.059 147.61C145.832 148.473 144.896 149.688 144.374 151.094C142.399 156.375 150.155 164.463 155.109 164.385C160.064 164.307 161.303 158.101 160.555 154.781C159.651 150.748 155.846 147.562 151.248 146.258Z" fill="url(#paint34_linear)"/>
<path fill-rule="evenodd" clip-rule="evenodd" d="M146.23 150.845C144.734 155.48 153.249 166.209 158.728 161.496C163.928 157.04 158.192 149.096 155.849 147.57C153.506 146.043 148.227 144.584 146.23 150.845Z" fill="url(#paint35_linear)"/>
<path fill-rule="evenodd" clip-rule="evenodd" d="M159.685 158.068C159.595 158.291 159.495 158.491 159.406 158.692C158.067 161.421 156.002 161.878 154.172 161.499C153.109 161.258 152.114 160.782 151.26 160.107C149.853 158.993 147.086 154.748 147.633 151.194C147.72 150.526 147.946 149.885 148.296 149.309C148.645 148.734 149.111 148.237 149.664 147.852C150.126 147.503 150.661 147.263 151.229 147.15C151.797 147.036 152.383 147.051 152.945 147.194C157.062 148.197 160.912 155.015 159.685 158.068Z" fill="url(#paint36_linear)"/>
<path fill-rule="evenodd" clip-rule="evenodd" d="M159.406 158.644C157.174 163.1 153.067 161.496 151.26 160.059C149.853 158.945 147.086 154.7 147.633 151.146C147.997 150.432 148.53 149.816 149.184 149.352C153.793 146.065 159.874 154.377 159.406 158.644Z" fill="url(#paint37_linear)"/>
<path style="mix-blend-mode:multiply" opacity="0.71" fill-rule="evenodd" clip-rule="evenodd" d="M152.943 147.224C152.943 147.224 149.963 147.992 149.595 152.95C149.271 157.407 153.266 160.816 154.159 161.495C153.096 161.254 152.101 160.778 151.247 160.103C149.841 158.989 147.073 154.744 147.62 151.19C147.707 150.522 147.933 149.881 148.283 149.305C148.632 148.73 149.098 148.233 149.651 147.847C150.117 147.503 150.656 147.268 151.225 147.16C151.795 147.052 152.382 147.074 152.943 147.224Z" fill="url(#paint38_linear)"/>
<path style="mix-blend-mode:multiply" opacity="0.71" fill-rule="evenodd" clip-rule="evenodd" d="M111.759 51.6907C111.792 51.9794 111.792 52.271 111.759 52.5597C109.639 49.4513 105.733 48.7606 100.812 49.819C99.303 50.1976 97.8912 50.8893 96.6683 51.8491C95.4455 52.809 94.4389 54.0153 93.7143 55.3896C92.7658 51.6796 96.0801 48.7049 98.2785 47.5907C100.99 46.0421 111.156 44.5826 111.759 51.6907Z" fill="url(#paint39_linear)"/>
<defs>
<filter id="filter0_d" x="11.7003" y="10.5889" width="179.497" height="180.59" filterUnits="userSpaceOnUse" color-interpolation-filters="sRGB">
<feFlood flood-opacity="0" result="BackgroundImageFix"/>
<feColorMatrix in="SourceAlpha" type="matrix" values="0 0 0 0 0 0 0 0 0 0 0 0 0 0 0 0 0 0 127 0"/>
<feOffset/>
<feGaussianBlur stdDeviation="20"/>
<feColorMatrix type="matrix" values="0 0 0 0 0.755078 0 0 0 0 0.445833 0 0 0 0 1 0 0 0 1 0"/>
<feBlend mode="normal" in2="BackgroundImageFix" result="effect1_dropShadow"/>
<feBlend mode="normal" in="SourceGraphic" in2="effect1_dropShadow" result="shape"/>
</filter>
<radialGradient id="paint0_radial" cx="0" cy="0" r="1" gradientUnits="userSpaceOnUse" gradientTransform="translate(12747.1 35305.2) scale(6240.9 6230.81)">
<stop stop-color="#9813FF"/>
<stop offset="1" stop-opacity="0"/>
</radialGradient>
<radialGradient id="paint1_radial" cx="0" cy="0" r="1" gradientUnits="userSpaceOnUse" gradientTransform="translate(14384.7 41094.5) scale(7040.45 7029.08)">
<stop offset="0.135417" stop-color="#8E12EF"/>
<stop offset="1" stop-opacity="0"/>
</radialGradient>
<linearGradient id="paint2_linear" x1="142.701" y1="87.9813" x2="147.207" y2="59.491" gradientUnits="userSpaceOnUse">
<stop stop-color="#8931B3"/>
<stop offset="1" stop-color="#8E8CFF"/>
</linearGradient>
<linearGradient id="paint3_linear" x1="139.489" y1="161.281" x2="136.273" y2="170.702" gradientUnits="userSpaceOnUse">
<stop stop-color="#8E8CFF"/>
<stop offset="1" stop-color="#8931B3"/>
</linearGradient>
<radialGradient id="paint4_radial" cx="0" cy="0" r="1" gradientUnits="userSpaceOnUse" gradientTransform="translate(85.2186 82.3759) scale(79.7215 79.5927)">
<stop offset="0.01" stop-color="#FFB8E2"/>
<stop offset="0.22" stop-color="#FDB7E3"/>
<stop offset="0.33" stop-color="#F5B5E5"/>
<stop offset="0.42" stop-color="#E8B0E9"/>
<stop offset="0.49" stop-color="#D5AAEF"/>
<stop offset="0.55" stop-color="#BDA2F7"/>
<stop offset="0.58" stop-color="#AE9DFC"/>
<stop offset="0.64" stop-color="#A996FC"/>
<stop offset="0.72" stop-color="#9A83FD"/>
<stop offset="0.81" stop-color="#8163FE"/>
<stop offset="0.91" stop-color="#5F38FF"/>
<stop offset="0.92" stop-color="#5E37FF"/>
<stop offset="0.99" stop-color="#5E9AFF"/>
</radialGradient>
<linearGradient id="paint5_linear" x1="52.3005" y1="77.1288" x2="74.4293" y2="77.1288" gradientUnits="userSpaceOnUse">
<stop stop-color="white"/>
<stop offset="0.17" stop-color="#DBD0EA"/>
<stop offset="0.36" stop-color="#B9A3D7"/>
<stop offset="0.55" stop-color="#9F80C7"/>
<stop offset="0.72" stop-color="#8C67BC"/>
<stop offset="0.87" stop-color="#8057B5"/>
<stop offset="1" stop-color="#7C52B3"/>
</linearGradient>
<linearGradient id="paint6_linear" x1="113.598" y1="113.679" x2="152.019" y2="113.679" gradientUnits="userSpaceOnUse">
<stop stop-color="#7C52B3"/>
<stop offset="0.13" stop-color="#8057B5"/>
<stop offset="0.28" stop-color="#8C67BC"/>
<stop offset="0.45" stop-color="#9F80C7"/>
<stop offset="0.64" stop-color="#B9A3D7"/>
<stop offset="0.83" stop-color="#DBD0EA"/>
<stop offset="1" stop-color="white"/>
</linearGradient>
<linearGradient id="paint7_linear" x1="82.8687" y1="158.423" x2="86.7955" y2="133.61" gradientUnits="userSpaceOnUse">
<stop stop-color="#6D109D"/>
<stop offset="1" stop-color="#8E8CFF"/>
</linearGradient>
<linearGradient id="paint8_linear" x1="67.1759" y1="80.6717" x2="49.7583" y2="65.5029" gradientUnits="userSpaceOnUse">
<stop stop-color="#C98EFF"/>
<stop offset="1" stop-color="#8931B3"/>
</linearGradient>
<linearGradient id="paint9_linear" x1="143.343" y1="123.061" x2="113.532" y2="100.231" gradientUnits="userSpaceOnUse">
<stop stop-color="#5400B3"/>
<stop offset="1" stop-color="#F2C0FF"/>
</linearGradient>
<linearGradient id="paint10_linear" x1="2317.92" y1="3381.76" x2="2877.31" y2="3381.76" gradientUnits="userSpaceOnUse">
<stop stop-color="white"/>
<stop offset="0.17" stop-color="#DBD0EA"/>
<stop offset="0.36" stop-color="#B9A3D7"/>
<stop offset="0.55" stop-color="#9F80C7"/>
<stop offset="0.72" stop-color="#8C67BC"/>
<stop offset="0.87" stop-color="#8057B5"/>
<stop offset="1" stop-color="#7C52B3"/>
</linearGradient>
<linearGradient id="paint11_linear" x1="128.403" y1="134.774" x2="134.072" y2="91.1201" gradientUnits="userSpaceOnUse">
<stop stop-color="#644FF7"/>
<stop offset="1" stop-color="#9F6DFF"/>
</linearGradient>
<linearGradient id="paint12_linear" x1="118.219" y1="128.8" x2="141.441" y2="100.287" gradientUnits="userSpaceOnUse">
<stop stop-color="#935CE1"/>
<stop offset="0.22" stop-color="#8F5AE0"/>
<stop offset="0.43" stop-color="#8454DC"/>
<stop offset="0.63" stop-color="#714AD5"/>
<stop offset="0.82" stop-color="#573CCC"/>
<stop offset="0.99" stop-color="#392CC2"/>
</linearGradient>
<radialGradient id="paint13_radial" cx="0" cy="0" r="1" gradientUnits="userSpaceOnUse" gradientTransform="translate(92.0063 58.4459) rotate(-109.319) scale(19.8014 19.8264)">
<stop stop-color="#DEA5FF"/>
<stop offset="1" stop-color="#8931B3"/>
</radialGradient>
<linearGradient id="paint14_linear" x1="113.575" y1="49.0442" x2="91.6224" y2="56.7402" gradientUnits="userSpaceOnUse">
<stop stop-color="#C287F8"/>
<stop offset="1" stop-color="#CCB3FF"/>
</linearGradient>
<linearGradient id="paint15_linear" x1="102.675" y1="59.6679" x2="102.675" y2="46.2873" gradientUnits="userSpaceOnUse">
<stop stop-color="#9F6DFF"/>
<stop offset="0.27" stop-color="#9B69FF"/>
<stop offset="0.52" stop-color="#905EFD"/>
<stop offset="0.76" stop-color="#7E4BFB"/>
<stop offset="1" stop-color="#6431F7"/>
</linearGradient>
<linearGradient id="paint16_linear" x1="52.6026" y1="80.4567" x2="52.6026" y2="59.5781" gradientUnits="userSpaceOnUse">
<stop stop-color="#FC9FF7"/>
<stop offset="1" stop-color="#F66DFF"/>
</linearGradient>
<linearGradient id="paint17_linear" x1="76.5488" y1="160.24" x2="76.5488" y2="142.782" gradientUnits="userSpaceOnUse">
<stop stop-color="#C282F7"/>
<stop offset="1" stop-color="#DC6DFF"/>
</linearGradient>
<linearGradient id="paint18_linear" x1="76.0019" y1="158.947" x2="76.0019" y2="145.588" gradientUnits="userSpaceOnUse">
<stop stop-color="#4848F7"/>
<stop offset="1" stop-color="#6D20FF"/>
</linearGradient>
<linearGradient id="paint19_linear" x1="1212.87" y1="2932.89" x2="1212.87" y2="2872.37" gradientUnits="userSpaceOnUse">
<stop stop-color="#644FF7"/>
<stop offset="1" stop-color="#9F6DFF"/>
</linearGradient>
<linearGradient id="paint20_linear" x1="52.2318" y1="76.5365" x2="52.2318" y2="61.585" gradientUnits="userSpaceOnUse">
<stop stop-color="#9F6DFF"/>
<stop offset="1" stop-color="#644FF7"/>
</linearGradient>
<linearGradient id="paint21_linear" x1="52.6482" y1="69.5622" x2="54.1087" y2="70.4891" gradientUnits="userSpaceOnUse">
<stop stop-color="#9084FF"/>
<stop offset="1" stop-color="#C287F8"/>
</linearGradient>
<linearGradient id="paint22_linear" x1="58.4517" y1="115.367" x2="67.5604" y2="121.129" gradientUnits="userSpaceOnUse">
<stop stop-color="#9084FF"/>
<stop offset="0.49" stop-color="#D08BFC"/>
<stop offset="1" stop-color="#FFC9F8"/>
</linearGradient>
<radialGradient id="paint23_radial" cx="0" cy="0" r="1" gradientUnits="userSpaceOnUse" gradientTransform="translate(63.0828 117.366) scale(4.38558 4.37848)">
<stop stop-color="#1372B3"/>
<stop offset="1" stop-color="white"/>
</radialGradient>
<linearGradient id="paint24_linear" x1="250.14" y1="1474.54" x2="266.009" y2="1483.42" gradientUnits="userSpaceOnUse">
<stop stop-color="#9084FF"/>
<stop offset="0.49" stop-color="#D08BFC"/>
<stop offset="1" stop-color="#FFC9F8"/>
</linearGradient>
<radialGradient id="paint25_radial" cx="0" cy="0" r="1" gradientUnits="userSpaceOnUse" gradientTransform="translate(276.106 1197.62) rotate(4.81226) scale(6.75448 7.63593)">
<stop stop-color="#1372B3"/>
<stop offset="1" stop-color="white"/>
</radialGradient>
<radialGradient id="paint26_radial" cx="0" cy="0" r="1" gradientUnits="userSpaceOnUse" gradientTransform="translate(2070.96 5038.51) scale(201.742 141.728)">
<stop stop-color="#FFFFE8"/>
<stop offset="0.2" stop-color="#BBBBAA"/>
<stop offset="0.42" stop-color="#79796E"/>
<stop offset="0.61" stop-color="#45453F"/>
<stop offset="1" stop-color="#1F1F1D" stop-opacity="0"/>
</radialGradient>
<radialGradient id="paint27_radial" cx="0" cy="0" r="1" gradientUnits="userSpaceOnUse" gradientTransform="translate(1157.46 2054.33) scale(32.5118 20.3586)">
<stop stop-color="#1372B3"/>
<stop offset="1" stop-color="white"/>
</radialGradient>
<linearGradient id="paint28_linear" x1="71.0933" y1="98.2306" x2="96.4236" y2="114.278" gradientUnits="userSpaceOnUse">
<stop stop-color="#9084FF"/>
<stop offset="0.12" stop-color="#9785FF"/>
<stop offset="0.29" stop-color="#AA87FE"/>
<stop offset="0.49" stop-color="#CA8AFC"/>
<stop offset="0.53" stop-color="#D08BFC"/>
<stop offset="1" stop-color="#FFC9F8"/>
</linearGradient>
<linearGradient id="paint29_linear" x1="1887.73" y1="6170.35" x2="2462.53" y2="6170.35" gradientUnits="userSpaceOnUse">
<stop stop-color="#1372B3"/>
<stop offset="1" stop-color="white"/>
</linearGradient>
<linearGradient id="paint30_linear" x1="123.674" y1="58.3859" x2="136.117" y2="66.2586" gradientUnits="userSpaceOnUse">
<stop stop-color="#845FFF"/>
<stop offset="0.49" stop-color="#A972FC"/>
<stop offset="1" stop-color="#D4B0F8"/>
</linearGradient>
<linearGradient id="paint31_linear" x1="1526.61" y1="1741.63" x2="1652.64" y2="1741.63" gradientUnits="userSpaceOnUse">
<stop stop-color="#1372B3"/>
<stop offset="1" stop-color="white"/>
</linearGradient>
<linearGradient id="paint32_linear" x1="115.608" y1="107.579" x2="146.497" y2="107.579" gradientUnits="userSpaceOnUse">
<stop stop-color="#7C52B3"/>
<stop offset="1" stop-color="white"/>
</linearGradient>
<radialGradient id="paint33_radial" cx="0" cy="0" r="1" gradientUnits="userSpaceOnUse" gradientTransform="translate(2019.65 9169.34) rotate(10.2238) scale(429.415 427.701)">
<stop offset="0.01" stop-color="#FFB8E2"/>
<stop offset="0.22" stop-color="#FDB7E3"/>
<stop offset="0.33" stop-color="#F5B5E5"/>
<stop offset="0.42" stop-color="#E8B0E9"/>
<stop offset="0.49" stop-color="#D5AAEF"/>
<stop offset="0.55" stop-color="#BDA2F7"/>
<stop offset="0.58" stop-color="#AE9DFC"/>
<stop offset="0.64" stop-color="#A996FC"/>
<stop offset="0.72" stop-color="#9A83FD"/>
<stop offset="0.81" stop-color="#8163FE"/>
<stop offset="0.91" stop-color="#5F38FF"/>
<stop offset="0.92" stop-color="#5E37FF"/>
<stop offset="0.99" stop-color="#5E9AFF"/>
</radialGradient>
<linearGradient id="paint34_linear" x1="6528.36" y1="356.184" x2="6348.28" y2="487.742" gradientUnits="userSpaceOnUse">
<stop stop-color="#5400B3"/>
<stop offset="1" stop-color="#F2C0FF"/>
</linearGradient>
<linearGradient id="paint35_linear" x1="5941.7" y1="477.739" x2="5722.63" y2="371.005" gradientUnits="userSpaceOnUse">
<stop stop-color="#644FF7"/>
<stop offset="1" stop-color="#9F6DFF"/>
</linearGradient>
<linearGradient id="paint36_linear" x1="160.202" y1="156.603" x2="147.214" y2="152.24" gradientUnits="userSpaceOnUse">
<stop offset="0.01" stop-color="#392CC2"/>
<stop offset="1" stop-color="#5F33C5"/>
</linearGradient>
<linearGradient id="paint37_linear" x1="159.879" y1="157.35" x2="147.039" y2="153.036" gradientUnits="userSpaceOnUse">
<stop stop-color="#5E48F7"/>
<stop offset="1" stop-color="#8C50FF"/>
</linearGradient>
<linearGradient id="paint38_linear" x1="4818.05" y1="724.565" x2="4842.86" y2="650.462" gradientUnits="userSpaceOnUse">
<stop stop-color="#7C52B3"/>
<stop offset="1" stop-color="white"/>
</linearGradient>
<linearGradient id="paint39_linear" x1="1763.44" y1="2280.46" x2="2061.42" y2="2280.46" gradientUnits="userSpaceOnUse">
<stop stop-color="#7C52B3"/>
<stop offset="1" stop-color="white"/>
</linearGradient>
</defs>
</svg>
