<svg width="164" height="164" viewBox="0 0 164 164" fill="none" xmlns="http://www.w3.org/2000/svg">
<g style="mix-blend-mode:screen">
<path d="M161.789 100.832C172.19 56.7656 144.898 12.6114 100.832 2.21078C56.7656 -8.18983 12.6114 19.1017 2.21078 63.168C-8.18983 107.234 19.1017 151.389 63.168 161.789C107.234 172.19 151.389 144.898 161.789 100.832Z" fill="url(#paint0_radial)" style="mix-blend-mode:darken"/>
</g>
<path style="mix-blend-mode:screen" d="M136.311 95.1992C143.533 65.3156 125.169 35.2339 95.2946 28.0099C65.4197 20.7858 35.3468 39.1549 28.1249 69.0385C20.9029 98.922 39.2667 129.004 69.1415 136.228C99.0164 143.452 129.089 125.083 136.311 95.1992Z" fill="url(#paint1_radial)"/>
<path style="mix-blend-mode:screen" d="M133.839 94.598C140.725 66.0809 123.197 37.3791 94.6883 30.4906C66.1796 23.6022 37.4861 41.1356 30.5996 69.6527C23.7132 98.1697 41.2415 126.872 69.7503 133.76C98.259 140.648 126.952 123.115 133.839 94.598Z" fill="url(#paint2_radial)"/>
<path fill-rule="evenodd" clip-rule="evenodd" d="M55.5623 117.187C51.2994 117.187 43.5411 111.025 39.8431 103.073C35.2072 93.1479 35.1753 82.7116 37.4133 80.7927C38.135 80.2026 39.0506 79.9023 39.9816 79.9506C40.7586 79.9631 41.5299 80.0851 42.2729 80.313C47.6014 81.8588 55.0614 89.2676 58.2585 96.6871C60.5962 101.888 61.0631 107.737 59.58 113.242C58.7807 116.44 56.969 117.187 55.5942 117.187H55.5623Z" fill="url(#paint3_linear)"/>
<path fill-rule="evenodd" clip-rule="evenodd" d="M58.7045 113.03C58.2036 115.066 57.2125 116.303 55.5074 116.313C51.8627 116.313 44.2215 110.525 40.5875 102.7C35.941 92.7435 36.1967 82.9468 37.9338 81.4544C38.8077 80.6975 40.2571 80.6549 41.9835 81.1559C47.3973 82.723 55.5713 89.6841 57.3404 96.8904C58.8857 102.988 59.6317 109.32 58.7045 113.03Z" fill="url(#paint4_linear)"/>
<path fill-rule="evenodd" clip-rule="evenodd" d="M41.294 76.6253C41.0318 76.6426 40.7692 76.5986 40.5269 76.4968C40.2846 76.3951 40.0693 76.2383 39.898 76.039C38.5232 74.408 40.5374 68.8327 41.4326 66.8179C42.8606 63.6199 44.2674 61.9249 45.6208 61.8823C46.1434 61.8719 46.6517 62.054 47.0489 62.3939L47.3153 62.6498C48.1931 63.7302 48.7413 65.0406 48.8944 66.4244C49.0475 67.8082 48.7989 69.2068 48.1785 70.4531C47.1128 72.4465 43.9903 75.9537 41.8589 76.54C41.6749 76.5919 41.4851 76.6206 41.294 76.6253Z" fill="url(#paint5_linear)"/>
<path fill-rule="evenodd" clip-rule="evenodd" d="M47.635 70.1123C46.6439 72.0631 43.4787 75.549 41.5285 76.082C41.3273 76.1668 41.1049 76.1877 40.8914 76.1419C40.6779 76.0962 40.4837 75.9859 40.3349 75.8261C38.8962 74.1312 43.0311 62.4796 45.7274 62.3623C45.9475 62.368 46.1639 62.4203 46.3623 62.5159C46.5607 62.6114 46.7366 62.748 46.8783 62.9166C47.6662 63.9244 48.155 65.1335 48.2888 66.4059C48.4226 67.6782 48.196 68.9626 47.635 70.1123Z" fill="url(#paint6_linear)"/>
<path fill-rule="evenodd" clip-rule="evenodd" d="M112.685 115.887C111.977 115.956 111.266 115.815 110.638 115.481C110.011 115.148 109.496 114.636 109.157 114.011C108.092 111.666 108.603 103.074 112.013 95.4945C117.075 84.2267 124.013 81.2418 126.933 81.2418C127.125 81.2296 127.317 81.2296 127.509 81.2418L127.828 81.3164C128.266 81.4565 128.666 81.6931 129 82.0086C129.334 82.3241 129.593 82.7105 129.757 83.1393C131.75 87.2968 130.599 97.5412 127.338 104.641C124.344 111.282 117.203 115.887 112.685 115.887Z" fill="url(#paint7_linear)"/>
<path fill-rule="evenodd" clip-rule="evenodd" d="M126.59 104.309C122.583 113.008 111.766 117.453 109.944 113.648C109.017 111.697 109.39 103.489 112.811 95.8665C117.958 84.4068 124.981 81.8057 127.432 82.1575H127.592C131.045 83.0423 130.523 95.7492 126.59 104.309Z" fill="url(#paint8_linear)"/>
<path fill-rule="evenodd" clip-rule="evenodd" d="M125.867 80.4423C125.494 80.4496 125.125 80.3537 124.802 80.1651C122.67 78.9072 121.328 70.6988 122.766 68.1297C122.89 67.8716 123.071 67.6458 123.297 67.47C123.523 67.2942 123.786 67.1734 124.066 67.117C124.231 67.0824 124.399 67.0645 124.567 67.0637C126.923 67.0637 129.299 69.8354 130.088 73.5131C130.316 74.5514 130.27 75.6312 129.954 76.6462C129.638 77.6612 129.064 78.5764 128.287 79.3016C127.644 79.9614 126.785 80.3665 125.867 80.4423Z" fill="url(#paint9_linear)"/>
<path fill-rule="evenodd" clip-rule="evenodd" d="M127.733 78.651C126.881 79.4612 125.89 79.781 125.282 79.4079C123.609 78.4058 122.32 70.7624 123.556 68.5558C123.618 68.4119 123.713 68.2848 123.833 68.1847C123.954 68.0847 124.096 68.0145 124.249 67.9801C125.964 67.639 128.437 69.9203 129.257 73.694C129.458 74.5814 129.423 75.5059 129.155 76.3755C128.888 77.2451 128.398 78.0296 127.733 78.651Z" fill="url(#paint10_linear)"/>
<path fill-rule="evenodd" clip-rule="evenodd" d="M85.3927 133.573H84.4336C79.2542 133.423 75.2898 131.217 74.5864 129.309C74.4549 128.975 74.4294 128.608 74.5133 128.259C74.5972 127.91 74.7864 127.595 75.0553 127.358C76.6965 125.919 83.4212 125.844 84.7533 125.844C89.1121 125.844 94.3447 126.27 94.8775 128.306C94.9536 128.704 94.927 129.114 94.8001 129.499C94.6733 129.883 94.4505 130.228 94.1529 130.502C92.9593 131.771 91.3074 133.573 85.3927 133.573Z" fill="url(#paint11_linear)"/>
<path fill-rule="evenodd" clip-rule="evenodd" d="M93.5119 129.841C92.2864 131.194 90.7411 132.868 84.4534 132.676C78.3469 132.495 74.1693 129.244 75.64 127.954C77.6222 126.195 93.4799 126.099 94.0235 128.444C94.0625 128.701 94.036 128.964 93.9466 129.208C93.8572 129.452 93.7077 129.67 93.5119 129.841Z" fill="url(#paint12_linear)"/>
<path fill-rule="evenodd" clip-rule="evenodd" d="M109.836 84.4396C108.305 84.5132 106.788 84.1206 105.485 83.3136C104.181 82.5066 103.153 81.3232 102.536 79.9196C99.3391 72.9372 99.3391 59.2602 101.662 53.7595C101.83 53.21 102.104 52.6991 102.47 52.2563C102.836 51.8136 103.286 51.4476 103.794 51.1797C104.624 50.8307 105.515 50.6495 106.415 50.6467C109.399 50.6467 112.49 52.6402 115.367 56.4246C120.067 62.6075 123.339 72.66 122.103 77.0947C121.437 78.8584 120.214 80.356 118.618 81.3588C116.07 83.2523 113.008 84.3267 109.836 84.4396Z" fill="url(#paint13_linear)"/>
<path fill-rule="evenodd" clip-rule="evenodd" d="M121.272 76.8603C120.644 78.4399 119.522 79.7746 118.075 80.6659C113.663 83.864 106.043 85.559 103.283 79.5999C100.171 72.7987 100.182 59.4308 102.43 54.1434C102.693 53.2468 103.287 52.4842 104.093 52.0113C113.652 48.0457 123.116 70.219 121.272 76.8603Z" fill="url(#paint14_linear)"/>
<path fill-rule="evenodd" clip-rule="evenodd" d="M58.7064 113.03C53.7828 114.789 46.163 108.628 42.1879 98.5646C39.8524 93.0078 39.795 86.7552 42.028 81.1565C47.4419 82.7235 55.6158 89.6847 57.3849 96.8909C58.8876 102.989 59.6336 109.321 58.7064 113.03Z" fill="#FFFF45"/>
<path fill-rule="evenodd" clip-rule="evenodd" d="M93.5096 129.841C90.5686 130.82 87.452 131.158 84.3694 130.833C81.2868 130.507 78.3095 129.526 75.6377 127.954C77.6199 126.195 93.4777 126.099 94.0212 128.444C94.0602 128.701 94.0338 128.964 93.9444 129.208C93.8549 129.452 93.7054 129.67 93.5096 129.841Z" fill="#FFFF45"/>
<path fill-rule="evenodd" clip-rule="evenodd" d="M124.928 103.531C117.798 115.172 109.944 113.648 109.944 113.648C109.017 111.697 109.39 103.489 112.811 95.8665C117.958 84.4068 124.981 81.8057 127.432 82.1575H127.592C128.679 85.7067 129.004 89.4457 128.545 93.1293C128.086 96.8129 126.853 100.358 124.928 103.531Z" fill="#FFFF45"/>
<path fill-rule="evenodd" clip-rule="evenodd" d="M118.121 80.6657C113.709 83.8637 106.089 85.5587 103.329 79.5997C100.217 72.7984 100.227 59.4306 102.476 54.1431C104.448 53.8766 108.082 54.5375 112.312 60.7524C118.142 69.2379 120.092 75.794 118.121 80.6657Z" fill="#FFFF45"/>
<path fill-rule="evenodd" clip-rule="evenodd" d="M127.733 78.6506C126.881 79.4608 125.89 79.7806 125.282 79.4075C123.609 78.4054 122.32 70.7621 123.556 68.5554C124.533 69.0879 125.38 69.8291 126.037 70.7264C126.695 71.6238 127.147 72.6551 127.36 73.7469C127.656 75.3639 127.781 77.0075 127.733 78.6506Z" fill="#FFFF45"/>
<path fill-rule="evenodd" clip-rule="evenodd" d="M47.6326 70.1126C46.6415 72.0634 43.4764 75.5493 41.5261 76.0823C41.654 75.3041 43.1353 66.243 46.8547 62.917C47.646 63.9227 48.1386 65.1307 48.2762 66.4031C48.4137 67.6755 48.1907 68.961 47.6326 70.1126Z" fill="#FFFF45"/>
<path style="mix-blend-mode:soft-light" fill-rule="evenodd" clip-rule="evenodd" d="M108.335 95.6428C107.863 96.8028 107.248 97.8988 106.502 98.9049C105.834 99.6067 105.224 100.363 104.68 101.165C103.092 104.16 103.422 107.561 102.548 110.674C102.047 112.39 100.747 113.755 100.236 115.492C100.092 116.254 100.049 117.032 100.108 117.805C100.021 118.68 99.6463 119.501 99.0422 120.14C98.4041 120.943 97.5661 121.564 96.6124 121.942C95.8259 122.18 95 122.259 94.1825 122.176C92.3793 122.181 90.5847 121.926 88.854 121.419C87.2554 120.961 85.7634 120.215 84.1436 119.756C83.166 119.495 82.1371 119.495 81.1596 119.756C80.1736 119.884 79.1768 119.906 78.1862 119.82C76.4811 119.82 74.8825 120.758 73.3692 121.494C72.8435 121.709 72.3699 122.035 71.9802 122.449C71.5906 122.862 71.2938 123.355 71.1099 123.892C70.6091 125.268 70.6197 126.547 68.9785 127.09C67.9499 127.272 66.8924 127.199 65.8986 126.877C65.0082 126.762 64.1084 126.737 63.213 126.803C61.5054 126.781 59.8306 126.33 58.3427 125.491C56.5829 124.458 54.9699 123.192 53.547 121.728C52.7691 120.982 51.7673 120.566 50.968 119.831C49.9023 118.85 48.762 117.965 47.7709 116.91C46.1769 115.262 44.4865 113.71 42.7088 112.262C41.4907 111.232 40.3574 110.105 39.3198 108.893C38.5131 107.805 37.8203 106.637 37.2524 105.408C35.9358 103.115 34.9356 100.655 34.279 98.0947C33.3555 95.1881 32.8075 92.1752 32.6485 89.1295C32.6485 86.6137 32.3288 84.1831 32.3288 81.6673C32.1369 85.8451 32.2974 90.0316 32.8083 94.1824C32.101 90.7523 31.7439 87.2591 31.7426 83.7567C31.715 74.1435 34.4446 64.7241 39.6076 56.6159C41.7332 53.2992 44.2366 50.2405 47.0675 47.5014C56.4752 38.3265 69.097 33.196 82.2359 33.2061C83.3016 33.2061 84.3674 33.2061 85.5077 33.3127C91.0969 33.6662 96.5871 34.9563 101.749 37.129C103.082 38.5214 104.265 40.0508 105.277 41.6916C105.671 42.3632 105.969 43.0881 106.342 43.749C106.715 44.4099 107.046 44.6551 106.939 45.38C106.82 45.8591 106.641 46.3212 106.406 46.7552C105.852 48.109 104.275 49.1004 103.081 49.8466C101.408 50.9127 99.4578 51.3177 97.6781 52.2452C96.7372 52.7457 95.9408 53.4799 95.3655 54.3772C94.9712 54.8676 94.449 55.262 94.1079 55.7844C93.1289 57.3865 92.6331 59.2373 92.6799 61.1145C92.8078 64.5044 95.4294 66.9669 96.0475 70.1863C96.591 72.9579 96.1967 75.9108 97.1132 78.6398C98.0937 81.6886 100.769 84.1938 103.284 85.9634C104.336 86.63 105.333 87.3785 106.268 88.202C107.131 89.0229 108.335 89.4919 108.953 90.5153C109.955 92.2103 109.007 94.0332 108.335 95.6428Z" fill="url(#paint15_linear)"/>
<path fill-rule="evenodd" clip-rule="evenodd" d="M104.361 38.3125C104.193 38.3277 104.026 38.3527 103.86 38.3872C103.334 38.4843 102.792 38.4476 102.283 38.2806C101.935 38.1416 101.579 38.0241 101.217 37.9288C100.61 37.8328 100.034 37.5663 99.427 37.4917C98.7805 37.367 98.151 37.1666 97.5513 36.8947C97.1522 36.7488 96.7143 36.7488 96.3151 36.8947C95.9005 36.9693 95.4732 36.8815 95.1215 36.6496C94.6629 36.4869 94.1874 36.376 93.7041 36.3191C92.4253 36.0526 91.1464 35.6475 89.8782 35.317C89.116 35.1484 88.3349 35.0803 87.555 35.1145C86.9262 35.1145 86.3614 35.285 85.7326 35.285C85.3507 35.2814 84.9695 35.2493 84.5923 35.1891C84.166 35.1038 83.7291 35.1891 83.2921 35.1891C82.7625 35.0397 82.2019 35.0397 81.6723 35.1891C81.2343 35.3046 80.7823 35.3584 80.3295 35.349C79.7688 35.4025 79.213 35.4987 78.667 35.6368C77.7016 35.881 76.7107 36.0098 75.715 36.0206C75.0367 35.9191 74.3471 35.9191 73.6688 36.0206C73.3064 36.1485 73.1253 36.543 72.8695 36.8095C72.3308 37.2861 71.8252 37.799 71.3562 38.3445C70.8707 38.8551 70.577 39.518 70.5249 40.2207C70.6057 40.8899 70.8041 41.5395 71.1111 42.1396C71.3988 42.7365 71.4947 43.2909 70.866 43.6959C70.076 44.236 69.2105 44.6563 68.2976 44.9432C68.0376 45.0677 67.7488 45.1195 67.4618 45.0932C67.1748 45.067 66.9002 44.9636 66.6671 44.7939C66.4859 44.634 66.3687 44.3249 66.1449 44.2076C65.9211 44.0904 65.6547 44.2076 65.4095 44.2823C64.7905 44.484 64.1608 44.6513 63.5232 44.7833C63.1289 44.8472 62.7879 45.0498 62.4042 45.1244C62.0206 45.199 61.605 44.8686 61.1254 44.9858C60.4373 45.1973 59.7308 45.3437 59.0153 45.4229C58.4688 45.4191 57.934 45.2641 57.47 44.9752C57.2249 44.8366 57.161 44.698 56.8839 44.7726C56.6121 44.8794 56.3731 45.0559 56.1912 45.2843C56.0206 45.5188 55.9674 45.828 55.7968 46.0732C55.6263 46.3184 55.4558 46.6062 55.296 46.894C55.0073 47.4484 54.6759 47.9794 54.3049 48.4824C54.0384 48.8342 53.8573 49.3032 53.5695 49.6337C53.3595 49.7964 53.1347 49.9392 52.8981 50.0601C52.3759 50.4225 51.8324 50.7637 51.3102 51.1261C50.3298 51.8936 49.4026 52.7465 48.4008 53.482C47.5571 54.0132 46.6516 54.4392 45.7046 54.7506C45.1611 54.9638 44.6389 55.1237 44.0634 55.3475C43.8335 55.4103 43.6144 55.5074 43.4133 55.6354C43.2352 55.8508 43.0782 56.0828 42.9444 56.3283C42.4459 56.9122 42.0068 57.5442 41.6336 58.2151C41.4303 58.5992 41.266 59.0028 41.1433 59.4197C40.9515 59.9847 40.6425 60.4858 40.4506 61.0827C40.0563 62.2767 39.9711 63.5239 39.5341 64.7072C39.2625 65.3764 38.9493 66.028 38.5963 66.658C38.1436 67.7793 37.8807 68.9682 37.8183 70.1759C37.7393 70.8864 37.7645 71.6047 37.8929 72.3079C37.9909 73.0463 38.0194 73.7922 37.9782 74.5359C37.8825 75.3359 37.5311 76.0837 36.9764 76.6679C36.5182 77.2223 35.8255 77.4248 35.3139 77.9258C34.8246 78.3269 34.4374 78.8384 34.1843 79.4183C34.1503 79.6977 34.1325 79.9789 34.131 80.2604C34.0244 80.8787 33.8646 81.465 33.7793 82.1046C33.6922 82.869 33.653 83.638 33.6621 84.4072C33.6621 84.8017 33.6621 85.1961 33.6621 85.5905C33.6621 85.985 33.8219 86.3261 33.8432 86.6565C33.8646 86.987 33.8432 87.1789 33.8432 87.4454C33.8432 87.7119 34.0138 88.053 34.0884 88.3409C34.2589 89.0338 34.3868 89.7267 34.5253 90.4729C34.6749 91.1244 34.8671 91.7654 35.1008 92.3917C35.3642 93.2593 35.5742 94.1422 35.7295 95.0355C35.8574 95.6964 35.8574 96.3893 35.9533 97.0609C36.0493 97.7325 36.1558 98.1269 36.1771 98.7026C36.1771 99.5234 36.0066 100.344 35.996 101.186C36.1241 102.598 36.4174 103.99 36.8699 105.333C36.9658 105.706 37.0617 106.101 37.1683 106.474C33.2233 98.6575 31.3752 89.9505 31.8048 81.2051C32.2345 72.4597 34.9272 63.9758 39.6194 56.5841C41.745 53.2674 44.2485 50.2088 47.0793 47.4697C56.487 38.2948 69.1088 33.1643 82.2478 33.1743C83.3135 33.1743 84.3792 33.1743 85.5195 33.2809C92.069 33.7071 98.4709 35.4167 104.361 38.3125Z" fill="url(#paint16_linear)"/>
<path style="mix-blend-mode:soft-light" opacity="0.3" fill-rule="evenodd" clip-rule="evenodd" d="M99.9276 122.177C100.919 121.58 101.878 120.951 102.89 120.397C103.959 119.842 105.062 119.357 106.194 118.947C107.047 118.616 107.132 118.584 107.814 119.128C108.436 119.565 109.186 119.782 109.945 119.746C111.011 119.746 112.194 119.842 112.3 121.217C112.439 123.094 109.594 124.735 108.251 125.482C107.185 126.089 105.981 126.548 104.851 127.027C103.871 127.523 102.828 127.882 101.75 128.093C101.339 128.14 100.923 128.073 100.548 127.9C100.172 127.727 99.8508 127.455 99.6185 127.113C99.3369 126.745 99.1331 126.324 99.0195 125.875C98.9059 125.426 98.8849 124.958 98.9578 124.501C99.0431 123.328 98.9791 122.529 99.9276 122.177Z" fill="url(#paint17_linear)"/>
<path style="mix-blend-mode:soft-light" opacity="0.3" fill-rule="evenodd" clip-rule="evenodd" d="M114.964 51.5204C115.731 53.0235 116.264 55.0383 117.415 56.2855C117.643 56.5656 117.939 56.7831 118.275 56.9173C118.61 57.0516 118.975 57.0983 119.333 57.0531C119.853 57.1222 120.38 57.1222 120.9 57.0531C121.454 56.8505 121.422 56.2429 121.401 55.7099C121.326 53.7164 119.973 51.8722 118.726 50.4437C117.916 49.5056 116.594 48.3757 115.23 48.6315C114.84 49.535 114.747 50.5391 114.964 51.4991V51.5204Z" fill="url(#paint18_linear)"/>
<path fill-rule="evenodd" clip-rule="evenodd" d="M87.1736 131.002C87.0351 131.205 86.8006 131.375 87.0031 131.589C87.1266 131.7 87.2773 131.777 87.44 131.812C87.7253 131.883 88.0269 131.841 88.282 131.695C88.3171 131.661 88.345 131.621 88.3641 131.576C88.3832 131.531 88.3931 131.483 88.3931 131.434C88.3931 131.385 88.3832 131.337 88.3641 131.292C88.345 131.247 88.3171 131.207 88.282 131.173C88.2408 131.096 88.1847 131.029 88.1171 130.975C88.0495 130.92 87.9717 130.88 87.8883 130.856C87.8049 130.832 87.7175 130.825 87.6314 130.836C87.5452 130.846 87.4621 130.874 87.3868 130.917L87.1736 131.002Z" fill="#FFFF45"/>
<path fill-rule="evenodd" clip-rule="evenodd" d="M54.1668 46.244C53.6928 46.3617 53.2541 46.5921 52.888 46.9156C52.4724 47.2674 52.0141 47.5872 51.5985 47.9816C51.1588 48.4316 50.8558 48.9972 50.7246 49.6126C50.5647 50.1563 50.4155 50.7746 50.6287 51.0731C50.8418 51.3715 51.0976 51.2223 51.364 51.1477C51.8125 50.9883 52.2359 50.7657 52.6216 50.4868C53.1797 50.1076 53.6577 49.6222 54.0283 49.0583C54.2704 48.6577 54.4772 48.2368 54.6464 47.8004C54.7607 47.5457 54.8534 47.2818 54.9235 47.0115C54.9805 46.8348 54.9805 46.6446 54.9235 46.4679C54.8809 46.2333 54.753 46.2227 54.1668 46.244Z" fill="#FFFF45"/>
<path fill-rule="evenodd" clip-rule="evenodd" d="M60.1456 45.3276C59.9218 45.5089 59.4529 45.8393 59.8259 46.1058C59.9325 46.1698 60.0178 46.1058 60.1243 46.1698C60.2309 46.2338 60.2309 46.2551 60.3268 46.1698C60.6252 46.0525 60.508 45.1891 60.167 45.3596L60.1456 45.3276Z" fill="#FFFF45"/>
<path fill-rule="evenodd" clip-rule="evenodd" d="M61.7119 48.4621C61.841 48.3843 61.9876 48.3403 62.1382 48.3342C62.1382 48.5261 62.3407 48.8886 62.0743 49.0378C61.8078 49.187 61.9144 48.7606 61.8078 48.6647L61.7119 48.4621Z" fill="#FFFF45"/>
<path fill-rule="evenodd" clip-rule="evenodd" d="M64.7618 48.5463C65.0495 48.6529 65.3373 48.7701 65.6143 48.898C65.6996 48.8234 65.8381 48.8341 65.9447 48.7595C66.0943 48.6508 66.2061 48.4979 66.2644 48.3224C66.2868 48.2123 66.2841 48.0985 66.2564 47.9896C66.2287 47.8807 66.1768 47.7795 66.1046 47.6934C66.0421 47.5517 65.9555 47.4219 65.8488 47.3097C65.7674 47.2701 65.6782 47.2495 65.5877 47.2495C65.4972 47.2495 65.4079 47.2701 65.3266 47.3097C65.1575 47.4231 65.0129 47.5693 64.9013 47.7396C64.7896 47.9098 64.7132 48.1008 64.6765 48.3011C64.6854 48.4017 64.7168 48.4989 64.7685 48.5857C64.8202 48.6724 64.8907 48.7464 64.9749 48.8021L64.7618 48.5463Z" fill="#FFFF45"/>
<path fill-rule="evenodd" clip-rule="evenodd" d="M67.3274 106.965L68.18 107.317C68.2653 107.242 68.4038 107.253 68.5104 107.189C68.6579 107.073 68.769 106.918 68.8301 106.741C68.8525 106.631 68.8498 106.517 68.8221 106.408C68.7944 106.299 68.7425 106.198 68.6702 106.112C68.6077 105.97 68.5212 105.841 68.4145 105.728C68.3339 105.686 68.2443 105.664 68.1534 105.664C68.0625 105.664 67.9729 105.686 67.8923 105.728C67.7241 105.829 67.5817 105.968 67.4766 106.133C67.3527 106.303 67.2723 106.501 67.2422 106.709C67.2463 106.817 67.2754 106.922 67.3272 107.016C67.379 107.11 67.452 107.191 67.5406 107.253L67.3274 106.965Z" fill="#FFFF45"/>
<path fill-rule="evenodd" clip-rule="evenodd" d="M56.6168 51.2865C56.4937 51.3684 56.3916 51.4779 56.3184 51.6063C56.4249 51.7556 56.4889 51.8941 56.6914 51.9474C56.726 51.9652 56.7643 51.9745 56.8033 51.9745C56.8422 51.9745 56.8805 51.9652 56.9152 51.9474C57.0004 51.8622 56.9152 51.7769 56.9791 51.6916C57.043 51.6063 57.0857 51.4464 56.9791 51.2652C56.8725 51.084 56.8619 51.1159 56.7446 51.1159C56.6274 51.1159 56.4889 51.1159 56.4462 51.2332L56.6168 51.2865Z" fill="#FFFF45"/>
<path fill-rule="evenodd" clip-rule="evenodd" d="M57.2565 55.8064C57.2565 55.8064 57.0221 56.414 57.2565 56.2541C57.491 56.0942 57.3525 55.9556 57.2565 55.8917V55.8064Z" fill="#FFFF45"/>
<path fill-rule="evenodd" clip-rule="evenodd" d="M53.049 63.5443C52.9067 63.7243 52.8016 63.9308 52.74 64.1519C52.8421 64.2267 52.9651 64.2677 53.0917 64.2692C53.2622 64.2692 53.2622 64.2052 53.2728 64.0453C53.2835 63.8854 53.2728 63.8108 53.2728 63.6935C53.2728 63.5762 53.113 63.4377 52.9744 63.5123L53.049 63.5443Z" fill="#FFFF45"/>
<path fill-rule="evenodd" clip-rule="evenodd" d="M59.5044 51.8185C59.6081 51.9195 59.6788 52.0496 59.7069 52.1916C59.5577 52.1916 59.5364 52.085 59.5151 51.9571C59.4937 51.8292 59.5683 51.8292 59.6536 51.6799L59.5044 51.8185Z" fill="#FFFF45"/>
<path fill-rule="evenodd" clip-rule="evenodd" d="M58.0032 45.8593C57.8854 45.9472 57.7843 46.0555 57.7048 46.1791C57.7794 46.2751 57.7048 46.435 57.918 46.4243C58.1311 46.4137 58.1311 46.2857 58.1844 46.1898C58.2387 46.088 58.2679 45.9747 58.2697 45.8593C58.2697 45.7954 58.2697 45.5289 58.1524 45.7101L58.0032 45.8593Z" fill="#FFFF45"/>
<path fill-rule="evenodd" clip-rule="evenodd" d="M77.3335 42.7687C77.3619 42.6145 77.4084 42.4642 77.472 42.321C77.4982 42.2806 77.5306 42.2446 77.568 42.2144C77.6532 42.0971 77.5679 42.0758 77.7598 42.0651C77.8401 42.0535 77.9222 42.062 77.9984 42.0899C78.0747 42.1178 78.1428 42.1642 78.1967 42.225C78.623 42.5661 77.5466 42.822 77.504 42.4915L77.3335 42.7687Z" fill="#FFFF45"/>
<path fill-rule="evenodd" clip-rule="evenodd" d="M80.9599 44.1109C80.9599 44.3561 80.7467 44.6865 80.9599 44.8464C81.173 45.0063 81.5673 44.7718 81.7165 44.6332C81.8657 44.4946 82.324 43.8977 82.0682 43.5672C81.9578 43.4576 81.8262 43.3717 81.6814 43.3149C81.5366 43.2581 81.3817 43.2315 81.2263 43.2367C80.7148 43.2367 80.5549 43.8977 80.491 44.388L80.9599 44.1109Z" fill="#FFFF45"/>
<path fill-rule="evenodd" clip-rule="evenodd" d="M82.5457 39.1344C82.5457 38.7187 82.4178 38.3029 82.7908 38.0684C82.9091 38.0058 83.0408 37.9731 83.1745 37.9731C83.3082 37.9731 83.4399 38.0058 83.5582 38.0684C83.6986 38.1938 83.8174 38.3414 83.9098 38.5054C84.0377 38.7187 84.0058 38.7187 83.9098 38.9212C83.7606 39.3583 83.6541 39.6568 83.2065 39.6568C82.7589 39.6568 82.5351 39.1984 82.5244 38.5907L82.5457 39.1344Z" fill="#FFFF45"/>
<path fill-rule="evenodd" clip-rule="evenodd" d="M87.9792 46.4889C88.2976 46.4027 88.5855 46.2291 88.8105 45.9879C88.576 45.8493 88.0645 45.5508 87.9792 45.9879V46.4889Z" fill="#FFFF45"/>
<path fill-rule="evenodd" clip-rule="evenodd" d="M69.3115 113.702C69.6287 113.615 69.9137 113.437 70.1321 113.191C69.9083 113.052 69.3968 112.754 69.3115 113.191V113.702Z" fill="#FFC445"/>
<path fill-rule="evenodd" clip-rule="evenodd" d="M103.948 120.971C104.267 120.881 104.555 120.704 104.779 120.46C104.545 120.321 104.044 120.022 103.948 120.46V120.971Z" fill="#FFC445"/>
<path fill-rule="evenodd" clip-rule="evenodd" d="M92.171 53.0446C92.4907 52.6502 92.9489 51.9786 93.5351 52.3197C93.6159 52.3799 93.6834 52.4563 93.7331 52.544C93.7828 52.6317 93.8136 52.7288 93.8236 52.8292C93.8337 52.9295 93.8226 53.0308 93.7913 53.1266C93.76 53.2225 93.709 53.3107 93.6416 53.3857C93.368 53.5723 93.0601 53.7027 92.7358 53.7695C92.6651 53.7953 92.5888 53.8018 92.5147 53.7886C92.4406 53.7753 92.3713 53.7426 92.314 53.6939C92.2566 53.6451 92.2131 53.5821 92.188 53.5111C92.1629 53.4401 92.157 53.3638 92.171 53.2898V53.0446Z" fill="#FFFF45"/>
<path fill-rule="evenodd" clip-rule="evenodd" d="M69.7257 62.4045C70.0454 62.0101 70.5143 61.3385 71.0898 61.6903C71.1728 61.7486 71.2425 61.8239 71.2941 61.9112C71.3457 61.9986 71.3782 62.0959 71.3893 62.1968C71.4004 62.2976 71.3899 62.3997 71.3584 62.4962C71.327 62.5926 71.2754 62.6813 71.207 62.7563C70.9323 62.9459 70.6195 63.0733 70.2905 63.1294C70.2198 63.1552 70.1435 63.1617 70.0694 63.1485C69.9953 63.1352 69.926 63.1025 69.8686 63.0538C69.8113 63.0051 69.7678 62.942 69.7427 62.871C69.7176 62.8 69.7117 62.7237 69.7257 62.6497V62.4045Z" fill="#FFC445"/>
<path fill-rule="evenodd" clip-rule="evenodd" d="M106.973 45.8176C107.293 45.4231 107.751 44.7516 108.337 45.1033C108.421 45.1613 108.491 45.2368 108.543 45.3246C108.594 45.4124 108.626 45.5104 108.636 45.6117C108.647 45.7131 108.635 45.8155 108.601 45.9117C108.568 46.008 108.514 46.0959 108.444 46.1694C108.17 46.3545 107.862 46.4815 107.538 46.5425C107.467 46.5682 107.391 46.5748 107.317 46.5615C107.243 46.5483 107.173 46.5156 107.116 46.4669C107.059 46.4181 107.015 46.3551 106.99 46.2841C106.965 46.2131 106.959 46.1367 106.973 46.0628V45.8176Z" fill="#FFC445"/>
<path fill-rule="evenodd" clip-rule="evenodd" d="M86.0946 80.2394C86.4143 79.845 86.8725 79.1734 87.4587 79.5145C87.5395 79.5747 87.607 79.6511 87.6566 79.7388C87.7063 79.8265 87.7372 79.9237 87.7472 80.024C87.7572 80.1243 87.7462 80.2256 87.7149 80.3215C87.6836 80.4173 87.6326 80.5055 87.5652 80.5805C87.2916 80.7671 86.9837 80.8975 86.6594 80.9643C86.5887 80.9901 86.5124 80.9967 86.4383 80.9834C86.3642 80.9701 86.2949 80.9374 86.2375 80.8887C86.1802 80.84 86.1367 80.7769 86.1116 80.7059C86.0865 80.635 86.0806 80.5586 86.0946 80.4846V80.2394Z" fill="#FFC445"/>
<path fill-rule="evenodd" clip-rule="evenodd" d="M67.8383 48.3434C67.4334 48.5993 66.7726 48.9297 66.6767 49.4841C66.6536 49.63 66.6826 49.7794 66.7586 49.9061C66.8345 50.0328 66.9527 50.1287 67.0923 50.177C67.2355 50.2452 67.392 50.2805 67.5506 50.2805C67.7091 50.2805 67.8657 50.2452 68.0088 50.177C68.4226 49.9905 68.7661 49.6768 68.9893 49.2815C69.0494 49.1606 69.0806 49.0274 69.0806 48.8924C69.0806 48.7574 69.0494 48.6242 68.9893 48.5033C68.9078 48.3335 68.7731 48.195 68.6056 48.1089C68.0834 47.9277 67.7637 48.4394 67.3801 48.6739L67.8383 48.3434Z" fill="#FFFF45"/>
<path fill-rule="evenodd" clip-rule="evenodd" d="M69.1708 46.8514C69.3891 46.9227 69.5843 47.0516 69.7356 47.2245C69.5118 47.2991 69.2774 47.4803 69.0429 47.395C68.9804 47.3693 68.9237 47.3316 68.8759 47.2838C68.8281 47.2361 68.7903 47.1794 68.7645 47.117C68.7388 47.0545 68.7256 46.9876 68.7258 46.9201C68.7261 46.8525 68.7396 46.7857 68.7658 46.7234C68.7658 46.5742 69.0749 46.297 69.2347 46.3716C69.3946 46.4463 69.3306 46.5102 69.3626 46.5849C69.3946 46.6595 69.3626 46.6915 69.3626 46.8514H69.1708Z" fill="#FFFF45"/>
<path fill-rule="evenodd" clip-rule="evenodd" d="M46.6866 56.2331C46.2323 56.6138 45.8682 57.0908 45.6209 57.6296C45.5037 57.9068 45.7168 57.9281 45.9726 57.8748C46.4628 57.7789 46.9637 57.6403 47.4539 57.5124C47.7938 57.4438 48.1076 57.2813 48.3598 57.0433C48.5134 56.8229 48.5781 56.5526 48.541 56.2864C48.541 55.956 48.2532 55.8281 47.9548 55.7428C47.5949 55.6715 47.2216 55.7206 46.8923 55.8824C46.5631 56.0442 46.2961 56.3098 46.1325 56.6382L46.6866 56.2331Z" fill="#FFFF45"/>
<path fill-rule="evenodd" clip-rule="evenodd" d="M47.0169 58.5562C47.359 58.5551 47.696 58.6393 47.9973 58.8013C47.9121 58.9079 47.9973 59.0465 47.9014 59.1745C47.8118 59.3649 47.6718 59.5271 47.4964 59.6435C47.3445 59.7308 47.1764 59.7863 47.0023 59.8064C46.8282 59.8266 46.6519 59.8111 46.484 59.7608C45.5675 59.409 46.9636 58.3323 47.2727 58.6947L47.0169 58.5562Z" fill="#FFFF45"/>
<path fill-rule="evenodd" clip-rule="evenodd" d="M75.8979 38.2169C76.2082 38.0247 76.546 37.8809 76.8997 37.7905C77.3272 37.6974 77.7625 37.6439 78.1998 37.6306C78.413 37.6306 78.8926 37.6306 78.754 37.9717C78.6155 38.3129 77.7842 38.7073 77.4539 38.8672C76.9229 39.1603 76.3465 39.3621 75.7487 39.4642C75.429 39.4642 74.8961 39.5175 74.683 39.1977C74.6207 39.0816 74.5946 38.9495 74.6079 38.8185C74.6212 38.6874 74.6733 38.5633 74.7576 38.4621C74.8209 38.3482 74.9063 38.248 75.0088 38.1675C75.1113 38.0869 75.2288 38.0276 75.3544 37.9931C75.4823 37.9398 76.207 37.7372 76.2496 37.9931L75.8979 38.2169Z" fill="#FFFF45"/>
<path fill-rule="evenodd" clip-rule="evenodd" d="M70.249 38.386C70.0998 38.4926 68.9595 39.1322 69.503 39.452C69.8778 39.5908 70.2898 39.5908 70.6646 39.452C70.931 39.3454 71.2081 39.1642 71.0376 38.8657C70.6966 38.2474 69.8547 38.5992 69.4177 38.8657L70.249 38.386Z" fill="#FFFF45"/>
<path fill-rule="evenodd" clip-rule="evenodd" d="M54.4014 80.2077C54.4241 80.7023 54.6381 81.1686 54.9982 81.5083C55.1863 81.657 55.4191 81.7379 55.6589 81.7379C55.8987 81.7379 56.1315 81.657 56.3196 81.5083C56.6287 81.327 56.9271 81.1351 57.2255 80.9433C57.5239 80.7514 57.5559 80.8153 57.5665 80.5595C57.5135 80.2483 57.3772 79.9573 57.1722 79.7173C56.9425 79.4398 56.6503 79.2206 56.3196 79.0777C55.6802 78.8326 54.476 79.0777 54.4866 79.9306L54.4014 80.2077Z" fill="#FFD32F"/>
<path fill-rule="evenodd" clip-rule="evenodd" d="M90.5825 80.7184C90.6057 81.2107 90.8152 81.6756 91.1687 82.019C91.3617 82.1562 91.5926 82.23 91.8294 82.23C92.0662 82.23 92.2971 82.1562 92.4901 82.019C92.7992 81.8377 93.0976 81.6352 93.396 81.454C93.6944 81.2728 93.7264 81.3154 93.737 81.0595C93.6858 80.751 93.5492 80.4629 93.3427 80.2281C93.1134 79.9475 92.8213 79.7247 92.4901 79.5778C91.8507 79.3433 90.6465 79.5778 90.6571 80.4413L90.5825 80.7184Z" fill="#FFBA00"/>
<path style="mix-blend-mode:screen" d="M72.6407 69.876C87.3762 63.7072 96.1165 51.0456 92.1627 41.5957C88.2089 32.1457 73.0583 29.4858 58.3228 35.6546C43.5873 41.8234 34.847 54.4849 38.8008 63.9349C42.7546 73.3849 57.9053 76.0448 72.6407 69.876Z" fill="url(#paint19_radial)"/>
<path fill-rule="evenodd" clip-rule="evenodd" d="M38.9807 98.959C38.7822 100.388 39.0834 101.842 39.8333 103.074C41.1014 105.366 42.0286 105.206 42.0286 105.206C42.0286 105.206 40.899 100.984 38.9807 98.959Z" fill="#FFFF59"/>
<path fill-rule="evenodd" clip-rule="evenodd" d="M121.411 74.0557C121.411 74.0557 119.919 78.3197 119.706 78.9274C119.759 78.9274 122.04 78.2771 121.411 74.0557Z" fill="#FFFF59"/>
<path fill-rule="evenodd" clip-rule="evenodd" d="M129.349 75.3892C128.554 76.127 127.994 77.084 127.74 78.1395C127.74 78.1395 128.998 78.7365 129.349 75.3892Z" fill="#FFFF59"/>
<path fill-rule="evenodd" clip-rule="evenodd" d="M113.08 114.991C113.08 114.991 117.854 111.889 120.614 111.676C120.614 111.676 117.492 115.514 113.08 114.991Z" fill="#FFFF59"/>
<defs>
<radialGradient id="paint0_radial" cx="0" cy="0" r="1" gradientUnits="userSpaceOnUse" gradientTransform="translate(82.0085 82.008) rotate(-0.0910647) scale(86.7924 91.8832)">
<stop stop-color="#FF9F00"/>
<stop offset="0.875" stop-opacity="0"/>
</radialGradient>
<radialGradient id="paint1_radial" cx="0" cy="0" r="1" gradientUnits="userSpaceOnUse" gradientTransform="translate(82.2195 82.1181) scale(55.6513 55.6676)">
<stop stop-color="#FF7300"/>
<stop offset="1" stop-opacity="0"/>
</radialGradient>
<radialGradient id="paint2_radial" cx="0" cy="0" r="1" gradientUnits="userSpaceOnUse" gradientTransform="translate(82.2341 82.1216) scale(53.1043 53.1198)">
<stop stop-color="#FF7900"/>
<stop offset="0.18" stop-color="#FC7800"/>
<stop offset="0.32" stop-color="#F37300"/>
<stop offset="0.43" stop-color="#E36C00"/>
<stop offset="0.54" stop-color="#CC6100"/>
<stop offset="0.64" stop-color="#AF5300"/>
<stop offset="0.74" stop-color="#8C4200"/>
<stop offset="1" stop-color="#622E00" stop-opacity="0"/>
</radialGradient>
<linearGradient id="paint3_linear" x1="35.9639" y1="98.574" x2="60.4113" y2="98.574" gradientUnits="userSpaceOnUse">
<stop offset="0.01" stop-color="#FFA90B"/>
<stop offset="0.37" stop-color="#FFA60E"/>
<stop offset="0.64" stop-color="#FF9D16"/>
<stop offset="0.87" stop-color="#FF8D25"/>
<stop offset="1" stop-color="#FF8031"/>
</linearGradient>
<linearGradient id="paint4_linear" x1="36.8255" y1="98.5747" x2="59.1201" y2="98.5747" gradientUnits="userSpaceOnUse">
<stop offset="0.01" stop-color="#FFE00B"/>
<stop offset="0.31" stop-color="#FFDD0D"/>
<stop offset="0.52" stop-color="#FFD412"/>
<stop offset="0.71" stop-color="#FFC41B"/>
<stop offset="0.89" stop-color="#FFAD27"/>
<stop offset="1" stop-color="#FF9B31"/>
</linearGradient>
<linearGradient id="paint5_linear" x1="328.256" y1="858.25" x2="415.15" y2="855.644" gradientUnits="userSpaceOnUse">
<stop offset="0.01" stop-color="#FFA90B"/>
<stop offset="0.37" stop-color="#FFA60E"/>
<stop offset="0.64" stop-color="#FF9D16"/>
<stop offset="0.87" stop-color="#FF8D25"/>
<stop offset="1" stop-color="#FF8031"/>
</linearGradient>
<linearGradient id="paint6_linear" x1="298.063" y1="808.114" x2="364.278" y2="806.128" gradientUnits="userSpaceOnUse">
<stop offset="0.01" stop-color="#FFE00B"/>
<stop offset="0.31" stop-color="#FFDD0D"/>
<stop offset="0.52" stop-color="#FFD412"/>
<stop offset="0.71" stop-color="#FFC41B"/>
<stop offset="0.89" stop-color="#FFAD27"/>
<stop offset="1" stop-color="#FF9B31"/>
</linearGradient>
<linearGradient id="paint7_linear" x1="119.708" y1="115.887" x2="119.708" y2="81.2418" gradientUnits="userSpaceOnUse">
<stop offset="0.01" stop-color="#FF8E0B"/>
<stop offset="0.35" stop-color="#FD8B0D"/>
<stop offset="0.59" stop-color="#F98215"/>
<stop offset="0.81" stop-color="#F17221"/>
<stop offset="1" stop-color="#E65D31"/>
</linearGradient>
<linearGradient id="paint8_linear" x1="2033.2" y1="2774.23" x2="2423.12" y2="2774.23" gradientUnits="userSpaceOnUse">
<stop offset="0.01" stop-color="#FFE00B"/>
<stop offset="0.31" stop-color="#FFDD0D"/>
<stop offset="0.52" stop-color="#FFD412"/>
<stop offset="0.71" stop-color="#FFC41B"/>
<stop offset="0.89" stop-color="#FFAD27"/>
<stop offset="1" stop-color="#FF9B31"/>
</linearGradient>
<linearGradient id="paint9_linear" x1="1009.64" y1="934.688" x2="1009.64" y2="766.782" gradientUnits="userSpaceOnUse">
<stop offset="0.01" stop-color="#FFA90B"/>
<stop offset="0.37" stop-color="#FFA60E"/>
<stop offset="0.64" stop-color="#FF9D16"/>
<stop offset="0.87" stop-color="#FF8D25"/>
<stop offset="1" stop-color="#FF8031"/>
</linearGradient>
<linearGradient id="paint10_linear" x1="818.777" y1="811.617" x2="818.777" y2="685.116" gradientUnits="userSpaceOnUse">
<stop offset="0.01" stop-color="#FFE00B"/>
<stop offset="0.31" stop-color="#FFDD0D"/>
<stop offset="0.52" stop-color="#FFD412"/>
<stop offset="0.71" stop-color="#FFC41B"/>
<stop offset="0.89" stop-color="#FFAD27"/>
<stop offset="1" stop-color="#FF9B31"/>
</linearGradient>
<linearGradient id="paint11_linear" x1="1528.82" y1="1012.24" x2="1528.82" y2="955.746" gradientUnits="userSpaceOnUse">
<stop offset="0.01" stop-color="#FFA90B"/>
<stop offset="0.37" stop-color="#FFA60E"/>
<stop offset="0.64" stop-color="#FF9D16"/>
<stop offset="0.87" stop-color="#FF8D25"/>
<stop offset="1" stop-color="#FF8031"/>
</linearGradient>
<linearGradient id="paint12_linear" x1="1404.7" y1="813.864" x2="1404.7" y2="779.645" gradientUnits="userSpaceOnUse">
<stop offset="0.01" stop-color="#FFE00B"/>
<stop offset="0.31" stop-color="#FFDD0D"/>
<stop offset="0.52" stop-color="#FFD412"/>
<stop offset="0.71" stop-color="#FFC41B"/>
<stop offset="0.89" stop-color="#FFAD27"/>
<stop offset="1" stop-color="#FF9B31"/>
</linearGradient>
<linearGradient id="paint13_linear" x1="2201.08" y1="2369.1" x2="2405.62" y2="1348.31" gradientUnits="userSpaceOnUse">
<stop offset="0.01" stop-color="#FFA90B"/>
<stop offset="0.37" stop-color="#FFA60E"/>
<stop offset="0.64" stop-color="#FF9D16"/>
<stop offset="0.87" stop-color="#FF8D25"/>
<stop offset="1" stop-color="#FF8031"/>
</linearGradient>
<linearGradient id="paint14_linear" x1="2046.09" y1="2222.59" x2="2234.12" y2="1308.18" gradientUnits="userSpaceOnUse">
<stop offset="0.01" stop-color="#FFE00B"/>
<stop offset="0.31" stop-color="#FFDD0D"/>
<stop offset="0.52" stop-color="#FFD412"/>
<stop offset="0.71" stop-color="#FFC41B"/>
<stop offset="0.89" stop-color="#FFAD27"/>
<stop offset="1" stop-color="#FF9B31"/>
</linearGradient>
<linearGradient id="paint15_linear" x1="1693.38" y1="6106.31" x2="7351.49" y2="6106.31" gradientUnits="userSpaceOnUse">
<stop offset="0.01" stop-color="#FFE00B"/>
<stop offset="0.31" stop-color="#FFDD0D"/>
<stop offset="0.52" stop-color="#FFD412"/>
<stop offset="0.71" stop-color="#FFC41B"/>
<stop offset="0.89" stop-color="#FFAD27"/>
<stop offset="1" stop-color="#FF9B31"/>
</linearGradient>
<linearGradient id="paint16_linear" x1="1585.75" y1="4058.78" x2="6534.62" y2="4058.78" gradientUnits="userSpaceOnUse">
<stop offset="0.01" stop-color="#FFE00B"/>
<stop offset="0.31" stop-color="#FFDD0D"/>
<stop offset="0.52" stop-color="#FFD412"/>
<stop offset="0.71" stop-color="#FFC41B"/>
<stop offset="0.89" stop-color="#FFAD27"/>
<stop offset="1" stop-color="#FF9B31"/>
</linearGradient>
<linearGradient id="paint17_linear" x1="1231.18" y1="1106.96" x2="1398.42" y2="1106.96" gradientUnits="userSpaceOnUse">
<stop offset="0.01" stop-color="#FFE00B"/>
<stop offset="0.31" stop-color="#FFDD0D"/>
<stop offset="0.52" stop-color="#FFD412"/>
<stop offset="0.71" stop-color="#FFC41B"/>
<stop offset="0.89" stop-color="#FFAD27"/>
<stop offset="1" stop-color="#FF9B31"/>
</linearGradient>
<linearGradient id="paint18_linear" x1="766.905" y1="380.406" x2="807.318" y2="380.406" gradientUnits="userSpaceOnUse">
<stop offset="0.01" stop-color="#FFE00B"/>
<stop offset="0.31" stop-color="#FFDD0D"/>
<stop offset="0.52" stop-color="#FFD412"/>
<stop offset="0.71" stop-color="#FFC41B"/>
<stop offset="0.89" stop-color="#FFAD27"/>
<stop offset="1" stop-color="#FF9B31"/>
</linearGradient>
<radialGradient id="paint19_radial" cx="0" cy="0" r="1" gradientUnits="userSpaceOnUse" gradientTransform="translate(65.6679 52.7373) rotate(-22.716) scale(28.9753 18.5688)">
<stop stop-color="#FFBB00"/>
<stop offset="0.17" stop-color="#C59000"/>
<stop offset="0.4" stop-color="#805E00"/>
<stop offset="0.6" stop-color="#493500"/>
<stop offset="1" stop-color="#211800" stop-opacity="0"/>
</radialGradient>
</defs>
</svg>
