<svg width="208" height="210" viewBox="0 0 208 210" fill="none" xmlns="http://www.w3.org/2000/svg">
<g filter="url(#filter0_d)">
<path fill-rule="evenodd" clip-rule="evenodd" d="M157.982 104.977C157.988 112.114 156.6 119.181 153.898 125.776C151.195 132.37 147.231 138.362 142.233 143.407C137.234 148.453 131.299 152.454 124.767 155.182C118.235 157.909 111.235 159.309 104.167 159.301C103.213 159.301 102.247 159.301 101.305 159.221C99.8961 159.152 98.499 159.014 97.1246 158.842C86.9936 157.503 77.4548 153.261 69.6377 146.617C64.5993 142.332 60.367 137.166 57.1437 131.365C56.8143 130.769 56.4962 130.218 56.1782 129.553C56.1782 129.553 56.1782 129.553 56.1782 129.496C55.8488 128.842 55.5421 128.188 55.2468 127.523C54.3051 125.438 53.5007 123.293 52.8389 121.101C52.3361 119.503 51.9154 117.88 51.5781 116.239C51.3396 115.092 51.1351 113.945 50.9761 112.729C50.6106 110.177 50.4284 107.601 50.4309 105.023C50.4309 103.52 50.4877 102.018 50.624 100.55C50.6922 99.6098 50.7944 98.6809 50.9193 97.752C51.6 92.5068 53.0508 87.3932 55.2241 82.5797C59.4867 73.0747 66.3675 65.0085 75.0456 59.3434C83.7237 53.6783 93.8328 50.6534 104.167 50.6296H105.859C106.461 50.6296 107.063 50.6296 107.665 50.7214C110.727 50.9167 113.767 51.3771 116.752 52.0976C118.455 52.5104 120.159 52.9921 121.761 53.5655C122.896 53.9439 123.964 54.3682 125.043 54.827C125.85 55.171 126.633 55.5265 127.417 55.905L127.826 56.0999C133.02 58.665 137.772 62.057 141.899 66.146C142.489 66.7194 143.035 67.2928 143.625 67.9235C144 68.3364 144.375 68.7607 144.761 69.185C145.386 69.896 145.988 70.6414 146.578 71.3869C151.259 77.4484 154.608 84.4459 156.403 91.9147C157.453 96.1878 157.983 100.574 157.982 104.977Z" fill="white"/>
</g>
<path style="mix-blend-mode:screen" d="M104.771 168.264C140.349 168.264 169.19 139.423 169.19 103.846C169.19 68.2683 140.349 39.427 104.771 39.427C69.1938 39.427 40.3525 68.2683 40.3525 103.846C40.3525 139.423 69.1938 168.264 104.771 168.264Z" fill="url(#paint0_radial)"/>
<path style="mix-blend-mode:screen" d="M99.0249 160.782C133.483 160.782 161.416 132.849 161.416 98.3912C161.416 63.9335 133.483 36 99.0249 36C64.5673 36 36.6338 63.9335 36.6338 98.3912C36.6338 132.849 64.5673 160.782 99.0249 160.782Z" fill="url(#paint1_radial)"/>
<path fill-rule="evenodd" clip-rule="evenodd" d="M154.108 73.0822C154.108 73.0822 136.142 53.2946 112.165 45.7576C112.165 45.7576 69.2538 53.2263 59.064 70.4749C48.8742 87.7236 43.1246 118.35 59.064 137.158C75.0033 155.967 92.8895 162.012 114.92 158.312C136.95 154.612 142.609 146.676 142.609 146.676C142.609 146.676 143.804 136.304 153.209 134.449C153.243 134.414 166.313 96.6155 154.108 73.0822Z" fill="url(#paint2_radial)"/>
<path fill-rule="evenodd" clip-rule="evenodd" d="M155.213 103.059C155.221 109.699 153.918 116.274 151.38 122.41C148.842 128.545 145.119 134.119 140.423 138.813C135.727 143.506 130.151 147.227 124.015 149.763C117.878 152.298 111.302 153.598 104.663 153.587C103.775 153.587 102.864 153.587 101.976 153.519C100.655 153.45 99.3459 153.325 98.048 153.166C90.2338 152.106 82.7726 149.245 76.2527 144.81C69.7327 140.374 64.3321 134.485 60.4767 127.606L59.5658 125.921C59.5712 125.902 59.5712 125.883 59.5658 125.864C59.2471 125.261 58.9624 124.646 58.6892 124.031C57.7976 122.092 57.0369 120.095 56.4121 118.054C55.9543 116.556 55.5743 115.036 55.2736 113.5C55.0573 112.418 54.8637 111.336 54.7157 110.232C54.3724 107.86 54.2012 105.467 54.2034 103.071C54.2034 101.67 54.2034 100.27 54.3742 98.9037C54.4425 98.0271 54.545 97.1732 54.6588 96.3079C55.2825 91.4297 56.6294 86.6716 58.655 82.1902C62.6713 73.3489 69.147 65.8502 77.3091 60.5892C85.4712 55.3281 94.9748 52.527 104.686 52.5203H106.28L107.976 52.6C108.545 52.6 109.114 52.6797 109.672 52.748C111.973 52.9671 114.256 53.3475 116.503 53.8865C118.097 54.2736 119.669 54.7176 121.206 55.2527C122.253 55.6057 123.278 55.9928 124.291 56.3912C125.042 56.71 125.782 57.0402 126.568 57.3931L126.955 57.5753C127.968 58.0649 128.959 58.6 129.927 59.1579C133.659 61.299 137.103 63.9084 140.173 66.9226C140.72 67.4577 141.255 68.0042 141.79 68.5735C142.143 68.9606 142.496 69.3477 142.838 69.712C143.418 70.3723 143.976 71.0668 144.545 71.7613C151.542 80.662 155.34 91.6583 155.327 102.98L155.213 103.059Z" fill="url(#paint3_radial)"/>
<path fill-rule="evenodd" clip-rule="evenodd" d="M150.027 86.9932C144.972 78.7731 129.602 76.8945 124.661 81.5397C120.255 85.6953 124.262 98.2304 128.839 106.189C128.839 106.189 114.961 85.6953 124.126 77.4979C133.291 69.3006 152.031 79.775 155.868 86.2532C159.705 92.7314 158.361 105.027 155.868 109.388C153.374 113.749 148.274 113.259 148.274 113.259C148.274 113.259 160.365 103.821 150.027 86.9932Z" fill="url(#paint4_radial)"/>
<path style="mix-blend-mode:multiply" opacity="0.71" fill-rule="evenodd" clip-rule="evenodd" d="M56.5737 87.4724C56.5737 87.4724 64.236 78.182 69.8831 79.5027C75.5302 80.8234 72.718 90.8879 72.718 90.8879L78.4106 74.5501C78.4106 74.5501 68.0273 70.3262 64.589 72.2731C61.2666 76.9688 58.5721 82.0785 56.5737 87.4724Z" fill="url(#paint5_linear)"/>
<path fill-rule="evenodd" clip-rule="evenodd" d="M80.1747 142.816C79.742 143.592 79.5148 144.466 79.5148 145.355C79.5148 146.244 79.742 147.118 80.1747 147.894C81.5978 150.945 87.8711 155.67 101.955 156.661C117.211 157.799 125.158 148.429 125.26 146.699C125.363 144.968 120.547 143.42 120.547 143.42C120.547 143.42 125.955 143.613 127.23 146.721C128.505 149.829 118.19 160.645 101.044 159.131C83.8977 157.617 75.3701 147.404 75.4726 144.683C75.5751 141.962 80.1747 142.816 80.1747 142.816Z" fill="url(#paint6_linear)"/>
<path fill-rule="evenodd" clip-rule="evenodd" d="M69.8821 73.0827C68.2924 72.1078 66.3887 71.7817 64.5652 72.1719C60.7056 73.151 55.8783 81.6785 55.3773 88.2933C54.9333 93.986 57.0054 98.6198 58.2236 99.3029C59.4418 99.986 63.0737 99.3029 63.0737 99.3029C61.863 100.044 60.4978 100.496 59.0842 100.624C57.6705 100.753 56.2463 100.554 54.9219 100.043C50.1401 98.3579 52.4399 84.206 54.9219 78.1377C57.4039 72.0694 65.1686 68.1642 67.1155 68.5741C69.0624 68.984 69.8821 73.0827 69.8821 73.0827Z" fill="url(#paint7_linear)"/>
<path fill-rule="evenodd" clip-rule="evenodd" d="M119.463 116.346C118.256 114.729 111.311 113.033 111.311 113.033L107.77 116.949C105.186 117.689 103.364 125.841 105.584 127.663C107.804 129.484 116.639 129.075 117.983 125.648C119.326 122.221 120.681 117.928 119.463 116.346ZM108.817 125.579C106.871 123.621 107.85 118.418 110.104 118.167C113.132 117.826 114.92 118.634 115.558 121.401C116.195 124.167 110.776 127.492 108.817 125.545V125.579Z" fill="url(#paint8_linear)"/>
<path fill-rule="evenodd" clip-rule="evenodd" d="M66.0713 138.182C67.2099 138.854 71.4338 137.943 71.4338 137.943L71.9461 134.528C73.0846 133.332 71.2289 127.697 69.4641 127.23C67.6994 126.763 63.2364 129.507 63.7032 131.989C64.17 134.471 64.8986 137.522 66.0713 138.182ZM68.485 129.427C70.1586 130.087 71.411 133.617 70.3294 134.414C68.8721 135.473 67.6653 135.473 66.4015 133.936C65.1377 132.399 66.8114 128.755 68.485 129.427Z" fill="url(#paint9_linear)"/>
<path style="mix-blend-mode:multiply" opacity="0.71" fill-rule="evenodd" clip-rule="evenodd" d="M152.907 92.9274C152.907 92.9274 144.265 84.9008 134.349 85.2082C124.432 85.5156 123.111 96.4569 126.937 102.514C130.762 108.571 115.62 97.8003 115.62 97.8003V74.4833C115.62 74.4833 133.961 72.6845 143.719 77.0905C153.476 81.4966 152.907 92.9274 152.907 92.9274Z" fill="url(#paint10_linear)"/>
<path style="mix-blend-mode:multiply" opacity="0.71" fill-rule="evenodd" clip-rule="evenodd" d="M122.84 58.3729C121.451 60.3198 123.421 67.2648 123.421 67.2648L107.778 59.8303L109.656 52.76C111.957 52.9791 114.24 53.3595 116.487 53.8985C118.081 54.2856 119.652 54.7297 121.189 55.2648C122.237 55.6177 123.262 56.0048 124.275 56.4033C125.026 56.7221 125.766 57.0522 126.552 57.4052L126.939 57.5874C127.952 58.0769 128.943 58.612 129.91 59.1699C127.337 58.2819 123.728 57.1433 122.84 58.3729Z" fill="url(#paint11_linear)"/>
<path style="mix-blend-mode:multiply" opacity="0.71" fill-rule="evenodd" clip-rule="evenodd" d="M54.767 110.995C55.3973 110.321 56.2065 109.842 57.0999 109.612C57.9932 109.382 58.9336 109.411 59.8107 109.697C60.7676 110.001 61.6318 110.543 62.3227 111.272C63.0135 112 63.5085 112.892 63.7614 113.864L66.3914 104.46L55.6096 102.115L53.6399 103.982L54.767 110.995Z" fill="url(#paint12_linear)"/>
<path style="mix-blend-mode:multiply" opacity="0.71" fill-rule="evenodd" clip-rule="evenodd" d="M106.951 123.279C106.951 123.279 107.68 120.9 112.165 120.9C116.651 120.9 116.025 123.882 116.025 123.882L119.099 118.099L110.127 112.736L101.919 116.186L106.951 123.279Z" fill="url(#paint13_linear)"/>
<path style="mix-blend-mode:multiply" opacity="0.71" fill-rule="evenodd" clip-rule="evenodd" d="M79.3335 147.69C79.3335 147.69 82.2481 145.743 100.362 144.662C118.476 143.58 125.694 149.694 125.694 149.694L127.766 141.098L91.6751 133.424L74.7338 138.411L73.7319 142.965L79.3335 147.69Z" fill="url(#paint14_linear)"/>
<path fill-rule="evenodd" clip-rule="evenodd" d="M59.0098 105.313C58.1101 104.669 57.0145 104.36 55.9113 104.437C54.808 104.513 53.766 104.972 52.9642 105.734C49.9927 108.284 50.0041 115.502 52.1331 119.476C53.9661 122.891 59.34 121.013 59.34 121.013C59.34 121.013 55.0591 124.873 51.6891 122.504C48.3191 120.136 47.6473 107.077 50.6075 103.377C53.5677 99.6769 59.0098 105.313 59.0098 105.313Z" fill="url(#paint15_linear)"/>
<path fill-rule="evenodd" clip-rule="evenodd" d="M160.809 89.1235C159.752 84.8404 158.201 80.6949 156.186 76.7705C155.549 75.4953 154.854 74.2657 154.114 73.0475C149.708 75.1879 142.922 76.2126 133.552 71.4877C120.994 65.112 114.835 52.8387 112.171 45.7571C110.93 45.5977 109.666 45.4724 108.402 45.3814C107.753 45.3814 107.093 45.3131 106.455 45.2903H104.634C94.9039 45.2924 85.3318 47.7496 76.804 52.4344C68.2762 57.1193 61.0684 63.8802 55.8481 72.0912C54.3846 74.3726 53.0908 76.7585 51.9771 79.2297C49.6411 84.3518 48.0795 89.7927 47.3433 95.374C47.2181 96.3645 47.1042 97.355 47.0359 98.3569C46.8879 99.9167 46.8196 101.511 46.8196 103.116C46.8209 105.859 47.0187 108.598 47.4116 111.313C47.5824 112.577 47.7987 113.807 48.0606 115.048C48.0562 115.066 48.0562 115.086 48.0606 115.105C48.4236 116.85 48.8758 118.575 49.4154 120.274C50.125 122.604 50.9845 124.885 51.9885 127.105C52.3073 127.822 52.6374 128.516 52.979 129.211C52.979 129.211 52.979 129.211 52.979 129.268C53.3205 129.905 53.6621 130.566 54.015 131.192C58.4084 139.075 64.5818 145.823 72.0434 150.899C79.5051 155.975 88.0488 159.238 96.9943 160.429C98.463 160.623 99.9659 160.759 101.48 160.839C102.493 160.907 103.529 160.919 104.554 160.919C118.524 160.963 132.03 155.907 142.535 146.699C139.917 141.086 142.08 130.213 146.122 130.042C148.103 129.951 151.029 131.841 153.135 134.471C157.42 127.838 160.302 120.397 161.602 112.608C162.902 104.819 162.593 96.8458 160.695 89.1804L160.809 89.1235ZM53.9923 122.892C46.8537 121.162 48.9372 103.275 54.1289 103.059C57.5445 102.911 63.7608 108.661 63.7608 113.864C63.7608 119.067 56.7703 123.564 53.9923 122.892ZM109.063 126.706C104.748 125.647 106.592 118.657 109.564 117.598C112.308 116.642 117.374 118.862 116.782 122.004C115.974 126.308 110.736 127.116 109.063 126.706ZM67.4041 136.247C64.7513 135.655 63.6697 130.258 65.5028 129.678C67.3358 129.097 70.5692 132.558 70.1935 134.323C69.7039 136.714 68.4401 136.475 67.4041 136.247ZM72.3225 91.7876C69.9544 97.9812 57.9316 101.977 56.0644 99.8597C53.0587 96.4442 52.5805 87.2563 55.8139 79.9242C59.5255 71.4877 64.5122 70.224 66.3908 69.9963C68.2694 69.7686 76.9449 79.9128 72.3225 91.7876ZM98.1442 158.152C82.5465 157.128 72.4933 144.649 78.2542 143.238C99.2714 138.114 127.939 143.374 127.211 146.721C126.049 151.924 115.655 159.325 98.1898 158.152H98.1442ZM145.643 114.308C129.135 119.545 115.655 84.5922 124.012 79.1728C132.63 73.5485 147.704 79.3663 152.133 85.3094C155.867 90.3075 162.186 109.059 145.689 114.308H145.643Z" fill="url(#paint16_radial)"/>
<path style="mix-blend-mode:screen" d="M99.8099 102.723C112.94 93.5976 117.353 77.234 109.666 66.1742C101.979 55.1144 85.104 53.5466 71.9737 62.6724C58.8434 71.7981 54.4306 88.1618 62.1173 99.2216C69.8041 110.281 86.6796 111.849 99.8099 102.723Z" fill="url(#paint17_radial)"/>
<path fill-rule="evenodd" clip-rule="evenodd" d="M128.111 52.7709C128.111 52.7709 116.828 47.4312 115.155 48.2168C113.481 49.0024 119.151 63.9512 131.527 70.0423C144.756 76.566 152.145 72.0688 152.145 72.0688L149.39 68.4597C151.06 69.9047 152.634 71.4563 154.103 73.1049C154.103 73.1049 146.965 81.8716 130.012 71.5451C112.172 60.6495 112.172 45.7576 112.172 45.7576C112.172 45.7576 119.003 46.8961 128.111 52.7709Z" fill="url(#paint18_radial)"/>
<g style="mix-blend-mode:multiply">
<g style="mix-blend-mode:multiply">
<path fill-rule="evenodd" clip-rule="evenodd" d="M75.1446 59.7383C74.9169 59.9318 74.416 60.2848 74.8144 60.5694C74.9283 60.6377 75.0194 60.5694 75.1332 60.6377C75.2471 60.706 75.2471 60.7288 75.3495 60.6377C75.6683 60.5239 75.5431 59.6017 75.1788 59.7838L75.1446 59.7383Z" fill="#D1DEFF"/>
</g>
<g style="mix-blend-mode:multiply">
<path fill-rule="evenodd" clip-rule="evenodd" d="M63.0513 103.492C62.8236 103.686 62.3227 104.05 62.7212 104.324C62.835 104.403 62.9261 104.324 63.04 104.392C63.1538 104.46 63.1538 104.494 63.2563 104.449C63.5751 104.324 63.4498 103.413 63.0855 103.595L63.0513 103.492Z" fill="#D1DEFF"/>
</g>
<g style="mix-blend-mode:multiply">
<path fill-rule="evenodd" clip-rule="evenodd" d="M76.8701 63.0747C77.0094 62.9964 77.1658 62.9534 77.3255 62.9495C77.3255 63.1544 77.5418 63.5415 77.2572 63.7009C76.9726 63.8603 77.0978 63.4049 76.984 63.3024L76.8701 63.0747Z" fill="#D1DEFF"/>
</g>
<g style="mix-blend-mode:multiply">
<path fill-rule="evenodd" clip-rule="evenodd" d="M80.0828 63.1779C80.3902 63.2918 80.6862 63.417 80.9936 63.5537C81.0847 63.4626 81.2327 63.4853 81.3465 63.4056C81.5064 63.2896 81.6258 63.1263 81.6881 62.9388C81.7104 62.8212 81.7067 62.7001 81.6772 62.5841C81.6477 62.468 81.5931 62.3598 81.5173 62.2671C81.4464 62.1181 81.3544 61.9801 81.2441 61.8573C81.1559 61.8123 81.0584 61.7888 80.9594 61.7888C80.8605 61.7888 80.7629 61.8123 80.6748 61.8573C80.4979 61.9695 80.3498 62.1216 80.2422 62.3013C80.1034 62.4791 80.0167 62.6919 79.9917 62.9161C79.9986 63.0242 80.0311 63.129 80.0866 63.2221C80.142 63.3151 80.2187 63.3937 80.3105 63.4512L80.0828 63.1779Z" fill="#D1DEFF"/>
</g>
<g style="mix-blend-mode:multiply">
<path fill-rule="evenodd" clip-rule="evenodd" d="M82.8267 125.568C83.1341 125.682 83.4301 125.807 83.7375 125.944C83.8286 125.864 83.9766 125.876 84.0904 125.796C84.2503 125.68 84.3697 125.517 84.432 125.329C84.4536 125.212 84.4495 125.091 84.42 124.975C84.3905 124.859 84.3364 124.751 84.2612 124.657C84.1903 124.508 84.0983 124.37 83.988 124.248C83.8991 124.205 83.8018 124.183 83.7033 124.183C83.6048 124.183 83.5076 124.205 83.4187 124.248C83.2419 124.36 83.0937 124.512 82.9861 124.692C82.8493 124.871 82.7628 125.083 82.7356 125.306C82.7425 125.414 82.775 125.519 82.8305 125.612C82.8859 125.705 82.9626 125.784 83.0544 125.842L82.8267 125.568Z" fill="#D1DEFF"/>
</g>
<g style="mix-blend-mode:multiply">
<path fill-rule="evenodd" clip-rule="evenodd" d="M146.115 123.462C146.422 123.576 146.718 123.701 147.026 123.838C147.117 123.746 147.265 123.769 147.379 123.69C147.535 123.573 147.651 123.409 147.709 123.223C147.736 123.106 147.736 122.985 147.708 122.868C147.68 122.752 147.626 122.643 147.549 122.551C147.478 122.402 147.386 122.264 147.276 122.141C147.188 122.096 147.09 122.073 146.991 122.073C146.892 122.073 146.795 122.096 146.707 122.141C146.53 122.253 146.382 122.405 146.274 122.585C146.135 122.763 146.049 122.976 146.024 123.2C146.031 123.308 146.063 123.413 146.119 123.506C146.174 123.599 146.251 123.678 146.342 123.735L146.115 123.462Z" fill="#D1DEFF"/>
</g>
<g style="mix-blend-mode:multiply">
<path fill-rule="evenodd" clip-rule="evenodd" d="M71.3771 66.1023C71.2513 66.1961 71.1433 66.3118 71.0583 66.4439C71.1836 66.6033 71.2519 66.7399 71.4568 66.8082C71.4949 66.8302 71.5381 66.8417 71.5821 66.8417C71.626 66.8417 71.6692 66.8302 71.7073 66.8082C71.7984 66.7285 71.7073 66.626 71.7756 66.5463C71.8439 66.4666 71.8895 66.2845 71.7756 66.0909C71.6618 65.8974 71.6618 65.9315 71.5365 65.9315C71.4113 65.9315 71.2633 65.9315 71.2177 66.0567L71.3771 66.1023Z" fill="#D1DEFF"/>
</g>
<g style="mix-blend-mode:multiply">
<path fill-rule="evenodd" clip-rule="evenodd" d="M72.0668 70.9292C72.0668 70.9861 71.805 71.5782 72.0668 71.4074C72.0974 71.3852 72.1223 71.3561 72.1394 71.3225C72.1566 71.2888 72.1655 71.2516 72.1655 71.2138C72.1655 71.1761 72.1566 71.1389 72.1394 71.1052C72.1223 71.0716 72.0974 71.0425 72.0668 71.0203V70.9634V70.9292Z" fill="#D1DEFF"/>
</g>
<g style="mix-blend-mode:multiply">
<path fill-rule="evenodd" clip-rule="evenodd" d="M67.3844 100.406C67.3844 100.406 67.1226 101.055 67.3844 100.884C67.4133 100.859 67.4364 100.829 67.4523 100.794C67.4682 100.76 67.4764 100.723 67.4764 100.685C67.4764 100.647 67.4682 100.609 67.4523 100.575C67.4364 100.541 67.4133 100.51 67.3844 100.485V100.406Z" fill="#D1DEFF"/>
</g>
<g style="mix-blend-mode:multiply">
<path fill-rule="evenodd" clip-rule="evenodd" d="M82.7614 74.9041C82.6082 75.094 82.4993 75.3157 82.4426 75.553C82.5454 75.6355 82.6755 75.6761 82.807 75.6669C82.9891 75.6669 83.0005 75.6669 83.0005 75.4392C83.0005 75.2115 83.0574 75.1887 83.0005 75.0634C82.9436 74.9382 82.8411 74.7788 82.6817 74.8699L82.7614 74.9041Z" fill="#D1DEFF"/>
</g>
<g style="mix-blend-mode:multiply">
<path fill-rule="evenodd" clip-rule="evenodd" d="M74.4573 66.6837C74.5776 66.7856 74.6582 66.9267 74.685 67.0821C74.5142 67.0821 74.5028 66.9569 74.48 66.8317C74.4573 66.7064 74.48 66.695 74.628 66.5356L74.4573 66.6837Z" fill="#D1DEFF"/>
</g>
<g style="mix-blend-mode:multiply">
<path fill-rule="evenodd" clip-rule="evenodd" d="M72.8642 60.3073C72.7355 60.3979 72.6269 60.5142 72.5454 60.6488C72.6251 60.7513 72.5454 60.9221 72.7617 60.9107C72.9781 60.8993 73.0008 60.7627 73.0577 60.6602C73.1146 60.5511 73.1457 60.4303 73.1488 60.3073C73.1488 60.239 73.1488 59.9544 73.0236 60.1479L72.8642 60.3073Z" fill="#D1DEFF"/>
</g>
<g style="mix-blend-mode:multiply">
<path fill-rule="evenodd" clip-rule="evenodd" d="M93.5229 57.0072C93.5549 56.8442 93.6006 56.6843 93.6596 56.529C93.6596 56.529 93.7393 56.4493 93.7734 56.4152C93.8076 56.381 93.7734 56.2671 93.9784 56.2558C94.0516 56.2473 94.1258 56.254 94.1964 56.2755C94.2669 56.2971 94.3322 56.333 94.3882 56.381C94.8436 56.7339 93.6937 57.0186 93.6482 56.6656L93.5229 57.0072Z" fill="#D1DEFF"/>
</g>
<g style="mix-blend-mode:multiply">
<path fill-rule="evenodd" clip-rule="evenodd" d="M97.3691 58.4408C97.3122 58.7027 97.1414 59.0556 97.3691 59.2264C97.5968 59.3972 98.0067 59.1467 98.1775 58.9873C98.3483 58.8279 98.8264 58.2131 98.5418 57.8488C98.4258 57.7316 98.2874 57.639 98.1348 57.5764C97.9822 57.5138 97.8186 57.4825 97.6537 57.4845C97.0959 57.5414 96.9365 58.2017 96.8682 58.7254L97.3691 58.4408Z" fill="#D1DEFF"/>
</g>
<g style="mix-blend-mode:multiply">
<path fill-rule="evenodd" clip-rule="evenodd" d="M74.0503 73.5021C73.9933 73.764 73.834 74.1169 74.0503 74.2991C74.2666 74.4813 74.6992 74.208 74.8586 74.06C75.018 73.912 75.519 73.2744 75.2343 72.9215C75.1205 72.7982 74.9809 72.7017 74.8254 72.6387C74.6699 72.5757 74.5024 72.5479 74.3349 72.5572C73.7884 72.5572 73.629 73.263 73.5493 73.7868L74.0503 73.5021Z" fill="#D1DEFF"/>
</g>
<g style="mix-blend-mode:multiply">
<path fill-rule="evenodd" clip-rule="evenodd" d="M138.577 120.012C138.52 120.274 138.349 120.627 138.577 120.798C138.805 120.969 139.226 120.718 139.385 120.57C139.545 120.422 140.034 119.784 139.761 119.432C139.643 119.314 139.503 119.223 139.348 119.162C139.193 119.101 139.028 119.073 138.862 119.079C138.304 119.079 138.144 119.784 138.076 120.308L138.577 120.012Z" fill="#D1DEFF"/>
</g>
<g style="mix-blend-mode:multiply">
<path fill-rule="evenodd" clip-rule="evenodd" d="M159.805 110.653C159.805 110.915 159.577 111.268 159.805 111.439C160.033 111.61 160.443 111.359 160.613 111.211C160.784 111.063 161.262 110.426 160.989 110.073C160.871 109.956 160.731 109.864 160.576 109.803C160.421 109.742 160.256 109.714 160.09 109.72C159.532 109.72 159.373 110.426 159.304 110.949L159.805 110.653Z" fill="#D1DEFF"/>
</g>
<g style="mix-blend-mode:multiply">
<path fill-rule="evenodd" clip-rule="evenodd" d="M99.0871 53.1239C99.0871 52.6685 98.9391 52.2245 99.349 51.9854C99.4732 51.9123 99.6147 51.8738 99.7589 51.8738C99.903 51.8738 100.045 51.9123 100.169 51.9854C100.318 52.1172 100.441 52.2755 100.533 52.4522C100.681 52.6799 100.636 52.6799 100.533 52.8848C100.374 53.363 100.26 53.6818 99.7816 53.6818C99.3035 53.6818 99.0644 53.1922 99.053 52.5433L99.0871 53.1239Z" fill="#D1DEFF"/>
</g>
<g style="mix-blend-mode:multiply">
<path fill-rule="evenodd" clip-rule="evenodd" d="M104.889 61.024C105.227 60.9346 105.532 60.7487 105.766 60.4889C105.527 60.3295 104.98 60.0107 104.889 60.4889V61.024Z" fill="#D1DEFF"/>
</g>
<g style="mix-blend-mode:multiply">
<path fill-rule="evenodd" clip-rule="evenodd" d="M84.9314 132.764C85.2736 132.67 85.5817 132.48 85.8194 132.217C85.569 132.069 85.0339 131.75 84.9314 132.217V132.764Z" fill="#D1DEFF"/>
</g>
<g style="mix-blend-mode:multiply">
<path fill-rule="evenodd" clip-rule="evenodd" d="M121.947 140.517C122.287 140.425 122.594 140.24 122.835 139.982C122.584 139.834 122.049 139.515 121.947 139.982V140.517Z" fill="#D1DEFF"/>
</g>
<g style="mix-blend-mode:multiply">
<path fill-rule="evenodd" clip-rule="evenodd" d="M109.367 67.9823C109.708 67.5611 110.198 66.8438 110.813 67.2081C110.901 67.2704 110.976 67.3509 111.031 67.4441C111.086 67.5374 111.121 67.6414 111.133 67.7491C111.144 67.8568 111.133 67.9658 111.1 68.0689C111.066 68.1719 111.011 68.2666 110.938 68.3467C110.643 68.5481 110.309 68.6876 109.959 68.7566C109.883 68.7823 109.801 68.7875 109.723 68.7716C109.644 68.7558 109.571 68.7194 109.511 68.6663C109.451 68.6131 109.406 68.5451 109.38 68.4689C109.355 68.3928 109.35 68.3114 109.367 68.2328V67.9823Z" fill="#D1DEFF"/>
</g>
<g style="mix-blend-mode:multiply">
<path fill-rule="evenodd" clip-rule="evenodd" d="M76.5985 114.172C76.94 113.75 77.441 113.033 78.0558 113.409C78.1445 113.471 78.2189 113.552 78.2741 113.645C78.3293 113.738 78.3639 113.842 78.3758 113.95C78.3876 114.058 78.3764 114.167 78.3428 114.27C78.3092 114.373 78.2541 114.467 78.181 114.547C77.8851 114.745 77.552 114.881 77.2019 114.946C77.1263 114.973 77.0448 114.98 76.9657 114.966C76.8865 114.952 76.8125 114.917 76.7512 114.865C76.6899 114.813 76.6435 114.746 76.6167 114.67C76.5898 114.594 76.5836 114.513 76.5985 114.434V114.172Z" fill="#D1DEFF"/>
</g>
<g style="mix-blend-mode:multiply">
<path fill-rule="evenodd" clip-rule="evenodd" d="M131.376 135.7C131.717 135.278 132.207 134.504 132.833 134.925C132.919 134.99 132.991 135.071 133.044 135.165C133.097 135.259 133.13 135.362 133.141 135.47C133.152 135.577 133.14 135.685 133.107 135.787C133.073 135.89 133.019 135.984 132.947 136.064C132.654 136.263 132.325 136.402 131.979 136.474C131.903 136.501 131.822 136.508 131.743 136.494C131.664 136.48 131.59 136.445 131.528 136.393C131.467 136.341 131.421 136.274 131.394 136.198C131.367 136.122 131.361 136.041 131.376 135.961V135.7Z" fill="#D1DEFF"/>
</g>
<g style="mix-blend-mode:multiply">
<path fill-rule="evenodd" clip-rule="evenodd" d="M85.3888 77.9771C85.7303 77.5558 86.2313 76.8386 86.8461 77.2143C86.9363 77.2753 87.0122 77.3553 87.0685 77.4486C87.1248 77.5418 87.1601 77.6463 87.172 77.7546C87.184 77.8629 87.1722 77.9725 87.1375 78.0758C87.1029 78.1791 87.0461 78.2736 86.9713 78.3528C86.676 78.5543 86.3429 78.6937 85.9922 78.7627C85.9166 78.7902 85.8351 78.7973 85.756 78.7831C85.6768 78.7689 85.6028 78.734 85.5415 78.682C85.4802 78.6299 85.4338 78.5625 85.407 78.4867C85.3801 78.4109 85.3738 78.3294 85.3888 78.2504V77.9771Z" fill="#D1DEFF"/>
</g>
<g style="mix-blend-mode:multiply">
<path fill-rule="evenodd" clip-rule="evenodd" d="M105.166 59.704C105.507 59.2827 106.008 58.5086 106.623 58.9298C106.712 58.9921 106.786 59.0725 106.841 59.1658C106.896 59.2591 106.931 59.363 106.943 59.4708C106.955 59.5785 106.944 59.6875 106.91 59.7905C106.876 59.8936 106.821 59.9883 106.748 60.0683C106.453 60.2698 106.12 60.4092 105.769 60.4782C105.693 60.5057 105.612 60.5128 105.533 60.4986C105.454 60.4844 105.38 60.4495 105.318 60.3975C105.257 60.3454 105.211 60.2781 105.184 60.2023C105.157 60.1265 105.151 60.0449 105.166 59.9659V59.704Z" fill="#D1DEFF"/>
</g>
<g style="mix-blend-mode:multiply">
<path fill-rule="evenodd" clip-rule="evenodd" d="M154.292 82.2689C154.633 81.8476 155.134 81.1303 155.749 81.506C155.839 81.568 155.914 81.6486 155.969 81.7424C156.024 81.8361 156.058 81.9407 156.069 82.049C156.08 82.1573 156.067 82.2666 156.031 82.3694C155.996 82.4723 155.938 82.5661 155.863 82.6446C155.569 82.8378 155.24 82.973 154.895 83.0431C154.82 83.0706 154.738 83.0776 154.659 83.0635C154.58 83.0493 154.506 83.0144 154.445 82.9623C154.383 82.9103 154.337 82.8429 154.31 82.7671C154.283 82.6913 154.277 82.6097 154.292 82.5307V82.2689Z" fill="#D1DEFF"/>
</g>
<g style="mix-blend-mode:multiply">
<path fill-rule="evenodd" clip-rule="evenodd" d="M102.879 96.9904C103.221 96.5691 103.71 95.8519 104.336 96.2162C104.423 96.2805 104.495 96.362 104.548 96.4557C104.601 96.5494 104.634 96.6532 104.645 96.7603C104.655 96.8675 104.644 96.9757 104.61 97.078C104.577 97.1804 104.522 97.2746 104.45 97.3547C104.158 97.554 103.829 97.6933 103.483 97.7646C103.406 97.7893 103.325 97.7938 103.246 97.7777C103.167 97.7617 103.094 97.7256 103.033 97.6729C102.972 97.6202 102.926 97.5528 102.899 97.4771C102.872 97.4014 102.865 97.32 102.879 97.2409V96.9904Z" fill="#D1DEFF"/>
</g>
<g style="mix-blend-mode:multiply">
<path fill-rule="evenodd" clip-rule="evenodd" d="M79.9292 55.0251C78.7109 55.7879 76.673 56.7443 76.5136 58.4407C76.4436 58.8711 76.5304 59.3123 76.7581 59.6842C76.9859 60.056 77.3394 60.3339 77.7546 60.4672C78.1805 60.6589 78.6423 60.758 79.1094 60.758C79.5765 60.758 80.0383 60.6589 80.4643 60.4672C81.6962 59.9233 82.7132 58.9864 83.3561 57.8031C83.525 57.4437 83.604 57.0486 83.5861 56.6519C83.5682 56.2552 83.4542 55.8688 83.2537 55.526C83.0196 55.0246 82.6165 54.6216 82.1151 54.3875C80.5667 53.8524 79.6332 55.378 78.4832 56.0612L79.9292 55.0251Z" fill="#D1DEFF"/>
</g>
<g style="mix-blend-mode:multiply">
<path fill-rule="evenodd" clip-rule="evenodd" d="M84.8426 61.3664C85.0759 61.4426 85.2843 61.5803 85.446 61.7649C85.2069 61.8446 84.9565 62.0267 84.706 61.947C84.6383 61.9209 84.5766 61.8813 84.5247 61.8305C84.4727 61.7798 84.4317 61.719 84.404 61.6519C84.3763 61.5848 84.3626 61.5128 84.3636 61.4402C84.3646 61.3677 84.3804 61.296 84.41 61.2298C84.41 61.059 84.7401 60.7744 84.9109 60.8427C85.0817 60.911 85.0134 61.0021 85.0362 61.0704C85.0589 61.1387 85.1045 61.1956 85.0362 61.3664H84.8426Z" fill="#D1DEFF"/>
</g>
<g style="mix-blend-mode:multiply">
<path fill-rule="evenodd" clip-rule="evenodd" d="M160.15 97.7885C160.383 97.8647 160.592 98.0023 160.753 98.1869C160.514 98.2666 160.264 98.4488 160.013 98.3691C159.946 98.3429 159.884 98.3033 159.832 98.2526C159.78 98.2018 159.739 98.1411 159.711 98.074C159.684 98.0069 159.67 97.9349 159.671 97.8623C159.672 97.7897 159.688 97.7181 159.717 97.6518C159.717 97.4924 160.048 97.1964 160.218 97.2647C160.389 97.333 160.321 97.4241 160.344 97.4924C160.366 97.5607 160.412 97.6177 160.344 97.7885H160.15Z" fill="#D1DEFF"/>
</g>
<g style="mix-blend-mode:multiply">
<path fill-rule="evenodd" clip-rule="evenodd" d="M70.9081 62.8339C70.2026 63.4038 69.6377 64.1284 69.2572 64.9516C69.0751 65.3728 69.3939 65.3956 69.781 65.3159C70.5324 65.1793 71.2838 64.963 72.058 64.7808C72.5761 64.6776 73.054 64.4287 73.4356 64.0635C73.6668 63.732 73.7644 63.3254 73.7089 62.925C73.6406 62.4241 73.2762 62.2305 72.8208 62.1053C72.2748 61.9946 71.7076 62.0675 71.2072 62.3125C70.7069 62.5575 70.3016 62.961 70.0542 63.4601L70.9081 62.8339Z" fill="#D1DEFF"/>
</g>
<g style="mix-blend-mode:multiply">
<path fill-rule="evenodd" clip-rule="evenodd" d="M73.6168 67.2647C73.9823 67.2635 74.3423 67.3535 74.6643 67.5265C74.5732 67.6404 74.596 67.7884 74.5504 67.925C74.465 68.1319 74.3127 68.3043 74.1178 68.4145C73.9487 68.5171 73.7596 68.5823 73.5633 68.6059C73.3669 68.6294 73.1678 68.6107 72.9793 68.5512C72.0115 68.1755 73.503 67.0255 73.8218 67.4126L73.6168 67.2647Z" fill="#D1DEFF"/>
</g>
<g style="mix-blend-mode:multiply">
<path fill-rule="evenodd" clip-rule="evenodd" d="M91.9685 52.1438C92.3251 51.9374 92.7081 51.7803 93.107 51.677C93.5463 51.5902 93.9916 51.537 94.439 51.5176C94.6668 51.5176 95.1791 51.5176 95.0311 51.8705C94.8831 52.2235 93.995 52.6675 93.6421 52.8383C93.0713 53.1502 92.4514 53.362 91.8091 53.4645C91.4789 53.4645 90.9096 53.5328 90.6705 53.1912C90.604 53.0672 90.5761 52.9262 90.5903 52.7862C90.6045 52.6463 90.6602 52.5137 90.7502 52.4056C90.892 52.1618 91.1192 51.9792 91.3878 51.8933C91.5244 51.8933 92.2986 51.6314 92.3442 51.8933L91.9685 52.1438Z" fill="#D1DEFF"/>
</g>
<g style="mix-blend-mode:multiply">
<path fill-rule="evenodd" clip-rule="evenodd" d="M85.9802 52.3271C85.8208 52.441 84.5912 53.1127 85.1832 53.4087C85.5836 53.5569 86.0238 53.5569 86.4242 53.4087C86.7088 53.2949 86.9935 53.1013 86.8227 52.7826C86.4584 52.1222 85.5589 52.4979 85.0921 52.7826L85.9802 52.3271Z" fill="#D1DEFF"/>
</g>
<g style="mix-blend-mode:multiply">
<path fill-rule="evenodd" clip-rule="evenodd" d="M108.614 46.896C108.341 47.0895 106.212 48.2736 107.225 48.786C107.923 49.042 108.69 49.042 109.388 48.786C109.878 48.581 110.379 48.2622 110.071 47.6474C109.445 46.5089 107.885 47.1692 107.077 47.6474L108.614 46.896Z" fill="#D1DEFF"/>
</g>
<g style="mix-blend-mode:multiply">
<path fill-rule="evenodd" clip-rule="evenodd" d="M69.0144 99.1656C69.041 99.6932 69.2693 100.19 69.652 100.555C69.864 100.693 70.1139 100.762 70.367 100.752C70.62 100.742 70.8635 100.653 71.0637 100.498C71.3939 100.304 71.7013 100.088 72.0315 99.8943C72.3617 99.7007 72.3844 99.7463 72.3958 99.4844C72.3393 99.1498 72.1893 98.838 71.9632 98.585C71.7237 98.2796 71.4102 98.0406 71.0524 97.8905C70.3806 97.64 69.0827 97.8905 69.1055 98.8127L69.0144 99.1656Z" fill="#D1DEFF"/>
</g>
<g style="mix-blend-mode:multiply">
<path fill-rule="evenodd" clip-rule="evenodd" d="M108.935 100.407C108.992 101.426 109.431 102.385 110.164 103.094C110.575 103.366 111.062 103.501 111.555 103.481C112.047 103.461 112.521 103.285 112.908 102.98C113.546 102.605 114.149 102.206 114.775 101.842C115.14 101.614 115.458 101.557 115.481 101.034C115.372 100.389 115.089 99.7864 114.661 99.2916C114.187 98.714 113.582 98.2574 112.897 97.9596C111.576 97.47 109.083 97.9596 109.105 99.7357L108.935 100.407Z" fill="#D1DEFF"/>
</g>
</g>
<path style="mix-blend-mode:screen" fill-rule="evenodd" clip-rule="evenodd" d="M125.277 80.6643C125.277 80.6643 176.625 63.3359 184.811 72.2164C194.386 82.5998 142.97 114.706 142.97 114.706C142.97 114.706 132.268 115.435 125.232 100.076C123.148 95.5334 121.19 86.0951 125.277 80.6643Z" fill="url(#paint19_linear)"/>
<path style="mix-blend-mode:screen" fill-rule="evenodd" clip-rule="evenodd" d="M80.1765 142.816C80.1765 142.816 88.8862 179.819 102.697 180.775C116.507 181.731 125.262 146.699 125.262 146.699C125.262 146.699 118.568 141.177 102.697 141.177C86.8255 141.177 80.1765 142.816 80.1765 142.816Z" fill="url(#paint20_linear)"/>
<path style="mix-blend-mode:screen" fill-rule="evenodd" clip-rule="evenodd" d="M66.3875 72.534C66.3875 72.534 52.0649 69.9837 47.7044 79.2627C42.5127 90.2722 59.3401 99.5968 59.3401 99.5968C59.3401 99.5968 68.1067 99.5967 72.3648 91.7865C76.6229 83.9762 71.6703 72.5796 66.3875 72.534Z" fill="url(#paint21_linear)"/>
<path style="mix-blend-mode:screen" fill-rule="evenodd" clip-rule="evenodd" d="M53.1614 105.336C53.1614 105.336 28 114.08 28 118.999C28 125.249 59.3436 120.968 59.3436 120.968C61.6337 119.199 63.2035 116.658 63.761 113.818C64.4555 109.344 59.0476 104.71 57.4195 104.528C55.953 104.406 54.4811 104.685 53.1614 105.336Z" fill="url(#paint22_linear)"/>
<path style="mix-blend-mode:screen" fill-rule="evenodd" clip-rule="evenodd" d="M116.438 53.8977C116.438 53.8977 126.947 43.7193 139.892 46.8844C152.837 50.0495 144.913 73.7194 144.913 73.7194C138.527 73.1216 132.401 70.8993 127.118 67.264C118.385 61.2184 116.438 53.8977 116.438 53.8977Z" fill="url(#paint23_linear)"/>
<path style="mix-blend-mode:screen" opacity="0.5" fill-rule="evenodd" clip-rule="evenodd" d="M141.774 137.396C141.774 137.396 161.744 158.208 163.918 154.838C166.093 151.468 147.774 130.235 147.774 130.235C147.774 130.235 144.404 127.855 141.774 137.396Z" fill="url(#paint24_linear)"/>
<path fill-rule="evenodd" clip-rule="evenodd" d="M134.049 53.4535C133.779 53.7263 133.628 54.0945 133.628 54.4782C133.571 54.7944 133.571 55.1183 133.628 55.4346C133.745 55.6659 133.924 55.8599 134.145 55.9947C134.367 56.1295 134.621 56.1997 134.88 56.1974C135.279 56.0878 135.662 55.9271 136.019 55.7192C136.22 55.6222 136.399 55.4854 136.546 55.3171C136.693 55.1488 136.804 54.9525 136.873 54.74C136.947 54.5558 136.977 54.3564 136.959 54.1584C136.941 53.9604 136.876 53.7695 136.77 53.6015C136.589 53.1804 136.335 52.7949 136.019 52.463C135.87 52.2708 135.656 52.1394 135.417 52.0933C135.178 52.0473 134.931 52.0896 134.721 52.2125C134.488 52.374 134.291 52.5816 134.142 52.8226C133.993 53.0635 133.896 53.3326 133.856 53.6129L134.049 53.4535Z" fill="#FFC445"/>
<path fill-rule="evenodd" clip-rule="evenodd" d="M47.274 115.606C47.2015 115.677 47.1441 115.762 47.105 115.856C47.0659 115.95 47.0459 116.051 47.0463 116.152C47.0122 116.318 47.0122 116.488 47.0463 116.653C47.107 116.776 47.2014 116.878 47.3183 116.949C47.4353 117.019 47.57 117.055 47.7066 117.052C47.9215 116.995 48.1281 116.911 48.3214 116.801C48.4279 116.751 48.523 116.679 48.6013 116.591C48.6795 116.503 48.7393 116.401 48.7769 116.289C48.8182 116.192 48.8346 116.085 48.8247 115.98C48.8147 115.875 48.7787 115.773 48.7199 115.686C48.632 115.458 48.4961 115.252 48.3214 115.082C48.2441 114.98 48.1318 114.909 48.0059 114.884C47.8799 114.859 47.7491 114.88 47.6383 114.945C47.3947 115.122 47.2309 115.388 47.1829 115.686L47.274 115.606Z" fill="#FFC445"/>
<path fill-rule="evenodd" clip-rule="evenodd" d="M137.933 59.4871C138.283 59.583 138.596 59.7813 138.833 60.0563C138.593 60.1246 138.639 60.4206 138.377 60.5003C138.115 60.58 137.91 60.2727 137.648 60.3524L137.933 59.4871Z" fill="#FF8800"/>
<path fill-rule="evenodd" clip-rule="evenodd" d="M113.311 163.024C113.657 163.114 113.967 163.309 114.199 163.582C113.959 163.651 114.005 163.947 113.743 164.038C113.481 164.129 113.276 163.81 113.026 163.878L113.311 163.024Z" fill="#FFC445"/>
<path fill-rule="evenodd" clip-rule="evenodd" d="M145.189 47.703C145.098 47.9648 144.62 48.9098 144.757 49.2172C144.893 49.5246 145.36 49.4221 145.622 49.2172C145.884 49.0123 145.895 48.9326 146.055 48.8073C146.214 48.6821 146.374 48.6593 146.487 48.5341C146.601 48.4089 146.647 48.2267 146.761 48.0901C146.874 47.9535 147.079 47.8624 147.193 47.7144C147.266 47.6249 147.316 47.5195 147.339 47.4069C147.363 47.2944 147.36 47.1778 147.33 47.0668C147.3 46.9557 147.244 46.8533 147.167 46.768C147.09 46.6827 146.993 46.6168 146.886 46.5758C145.952 46.314 145.588 47.0768 145.041 47.7144L145.189 47.703Z" fill="#FFC445"/>
<path fill-rule="evenodd" clip-rule="evenodd" d="M149.125 139.445C149.034 139.718 148.556 140.663 148.693 140.971C148.829 141.278 149.296 141.176 149.558 140.971C149.82 140.766 149.831 140.686 149.991 140.561C150.15 140.436 150.309 140.401 150.423 140.288C150.525 140.146 150.616 139.998 150.696 139.844C150.822 139.696 151.015 139.605 151.129 139.468C151.201 139.378 151.251 139.273 151.275 139.16C151.299 139.048 151.296 138.931 151.266 138.82C151.236 138.709 151.18 138.607 151.103 138.522C151.025 138.436 150.929 138.37 150.822 138.329C149.888 138.056 149.524 138.83 148.989 139.468L149.125 139.445Z" fill="#FFC445"/>
<path fill-rule="evenodd" clip-rule="evenodd" d="M97.8397 146.141C97.7486 146.403 97.2591 147.348 97.4071 147.655C97.5551 147.963 98.0105 147.86 98.2723 147.655C98.5342 147.451 98.5342 147.371 98.705 147.246C98.8758 147.12 99.0124 147.098 99.1376 146.972C99.2629 146.847 99.297 146.665 99.4109 146.528C99.5247 146.392 99.7297 146.301 99.8435 146.153C99.9155 146.062 99.965 145.956 99.988 145.843C100.011 145.73 100.007 145.613 99.9756 145.502C99.9444 145.391 99.8873 145.288 99.8089 145.204C99.7306 145.119 99.6331 145.054 99.5247 145.014C98.6025 144.752 98.2382 145.515 97.6917 146.153L97.8397 146.141Z" fill="#FFC445"/>
<path fill-rule="evenodd" clip-rule="evenodd" d="M152.897 45.2565C153.136 44.7214 153.227 44.4481 153.728 44.209C153.99 44.0838 154.343 44.0496 154.331 44.4595C154.245 44.7299 154.101 44.9785 153.91 45.1882C153.804 45.2999 153.667 45.3772 153.517 45.4097C153.367 45.4422 153.21 45.4285 153.068 45.3703V45.2565H152.897Z" fill="#FFC445"/>
<path fill-rule="evenodd" clip-rule="evenodd" d="M60.4893 86.5722C60.7283 86.0371 60.808 85.7752 61.3204 85.5247C61.5709 85.3995 61.9352 85.3767 61.9238 85.7752C61.8359 86.0474 61.688 86.2964 61.4912 86.5039C61.3882 86.6161 61.2531 86.6938 61.1044 86.7264C60.9557 86.759 60.8005 86.7449 60.66 86.6861V86.5722H60.4893Z" fill="#FFC445"/>
<path fill-rule="evenodd" clip-rule="evenodd" d="M98.8777 171.679C99.0598 171.257 99.1282 171.041 99.5266 170.848C99.7316 170.745 100.016 170.722 100.005 171.041C99.9377 171.256 99.8251 171.454 99.6746 171.622C99.5893 171.709 99.4803 171.77 99.3609 171.796C99.2416 171.823 99.1171 171.813 99.0029 171.77V171.679H98.8777Z" fill="#FFC445"/>
<path fill-rule="evenodd" clip-rule="evenodd" d="M147.883 90.8092C147.804 90.5131 147.155 91.0824 147.382 90.8092C147.629 90.5958 147.91 90.4264 148.214 90.3082C148.495 90.1761 148.817 90.1557 149.113 90.2513C149.612 90.3935 150.043 90.7082 150.331 91.1393C151.06 92.3689 150.069 93.4164 148.897 93.9173C147.724 94.4183 146.267 94.1336 146.005 92.7788C145.98 92.5266 146.006 92.272 146.08 92.0297C146.155 91.7875 146.276 91.5623 146.437 91.367C146.871 91.0647 147.364 90.8589 147.883 90.7636V90.8092Z" fill="#FF8800"/>
<path fill-rule="evenodd" clip-rule="evenodd" d="M58.442 114.559C58.442 114.331 58.0207 114.764 58.1459 114.559C58.2873 114.407 58.4527 114.28 58.6355 114.183C58.7174 114.144 58.8068 114.125 58.8974 114.125C58.9879 114.125 59.0773 114.144 59.1592 114.183C59.4671 114.31 59.7181 114.545 59.8651 114.843C59.9492 115.034 59.9944 115.239 59.998 115.447C60.0016 115.655 59.9636 115.861 59.8861 116.055C59.8087 116.248 59.6934 116.423 59.547 116.571C59.4007 116.719 59.2263 116.836 59.034 116.916C58.8719 117.006 58.69 117.056 58.5043 117.06C58.3185 117.065 58.1345 117.024 57.9683 116.941C57.8021 116.857 57.6588 116.735 57.5508 116.584C57.4429 116.433 57.3736 116.257 57.349 116.073C57.3122 115.702 57.4004 115.329 57.5995 115.014C57.8378 114.797 58.1278 114.644 58.442 114.57V114.559Z" fill="#FFC445"/>
<path fill-rule="evenodd" clip-rule="evenodd" d="M63.8187 94.3827C63.9098 94.2575 63.5113 94.2461 63.6707 94.2347C63.8122 94.2445 63.951 94.2792 64.0805 94.3372C64.1421 94.3564 64.1981 94.3902 64.2437 94.4358C64.2893 94.4814 64.3232 94.5374 64.3424 94.599C64.4322 94.8179 64.4322 95.0633 64.3424 95.2821C64.2003 95.5356 63.9667 95.7251 63.6894 95.8119C63.4121 95.8986 63.1121 95.8761 62.8509 95.7489C62.7253 95.7068 62.6127 95.6332 62.5237 95.535C62.4347 95.4369 62.3724 95.3176 62.3427 95.1885C62.313 95.0594 62.3169 94.9249 62.3541 94.7978C62.3912 94.6707 62.4604 94.5552 62.5549 94.4624C62.7401 94.2783 62.9796 94.1585 63.238 94.1208C63.465 94.1559 63.6799 94.2458 63.8642 94.3827H63.8187Z" fill="#FFC445"/>
<path fill-rule="evenodd" clip-rule="evenodd" d="M113.576 146.663C113.576 146.402 112.938 146.766 113.166 146.663C113.398 146.529 113.653 146.436 113.917 146.39C114.172 146.325 114.441 146.361 114.669 146.493C115.05 146.685 115.349 147.008 115.511 147.403C115.91 148.542 114.931 149.259 113.895 149.441C112.859 149.624 111.709 149.191 111.72 148.052C111.734 147.833 111.792 147.619 111.892 147.423C111.992 147.227 112.131 147.054 112.301 146.914C112.703 146.741 113.138 146.655 113.576 146.663Z" fill="#FF8800"/>
<path fill-rule="evenodd" clip-rule="evenodd" d="M54.9273 78.1698C54.8476 77.8737 54.7793 77.7371 55.007 77.498C55.2537 77.288 55.5349 77.1224 55.8381 77.0085C55.9755 76.9364 56.1261 76.8932 56.2808 76.8814C56.4355 76.8697 56.5909 76.8897 56.7376 76.9402C57.2374 77.0796 57.6701 77.395 57.9558 77.8282C58.6845 79.0692 57.6939 80.1052 56.5212 80.6062C55.3486 81.1071 53.8913 80.8225 53.6294 79.4677C53.6041 79.2136 53.6293 78.9571 53.7036 78.7129C53.7778 78.4686 53.8996 78.2415 54.062 78.0445C54.4953 77.7421 54.9883 77.5364 55.508 77.4411L54.9273 78.1698Z" fill="#FFC445"/>
<path fill-rule="evenodd" clip-rule="evenodd" d="M159.507 85.0931C159.507 85.9698 159.598 85.9015 160.372 86.0722C160.922 86.0898 161.463 85.9345 161.92 85.6282C162.209 85.5056 162.46 85.3093 162.649 85.0589C162.865 84.7288 162.854 84.6149 162.569 84.3758C162.377 84.1794 162.138 84.0345 161.875 83.9546C161.715 83.9546 161.567 83.9546 161.408 83.9546C161.309 83.9048 161.206 83.863 161.1 83.8293C160.585 83.8399 160.081 83.9894 159.643 84.262C159.503 84.3899 159.393 84.5469 159.32 84.7219C159.247 84.897 159.214 85.0858 159.222 85.2753L159.507 85.0931Z" fill="#FFC445"/>
<path fill-rule="evenodd" clip-rule="evenodd" d="M168.549 89.0769C168.527 88.9794 168.527 88.8784 168.549 88.7809C168.674 88.7012 168.686 88.5418 168.834 88.4735C168.888 88.4455 168.949 88.4309 169.01 88.4309C169.071 88.4309 169.132 88.4455 169.187 88.4735C169.231 88.5009 169.269 88.5374 169.299 88.5806C169.329 88.6237 169.349 88.6726 169.359 88.7241C169.368 88.7755 169.367 88.8284 169.355 88.8794C169.343 88.9303 169.321 88.9782 169.289 89.02C169.229 89.178 169.132 89.3187 169.004 89.4298C168.822 89.5323 168.538 89.316 168.481 89.1566L168.549 89.0769Z" fill="#FFC445"/>
<path fill-rule="evenodd" clip-rule="evenodd" d="M157.934 146.459C157.911 146.362 157.911 146.261 157.934 146.163C158.048 146.095 158.07 145.924 158.218 145.856C158.274 145.83 158.334 145.817 158.395 145.817C158.456 145.817 158.516 145.83 158.571 145.856C158.615 145.885 158.652 145.922 158.68 145.965C158.709 146.008 158.729 146.056 158.738 146.107C158.748 146.158 158.747 146.211 158.736 146.261C158.725 146.312 158.704 146.36 158.674 146.402C158.594 146.528 158.526 146.733 158.378 146.812C158.23 146.892 157.922 146.698 157.865 146.528L157.934 146.459Z" fill="#FFC445"/>
<path fill-rule="evenodd" clip-rule="evenodd" d="M110.223 149.978C110.194 149.881 110.194 149.778 110.223 149.682C110.337 149.602 110.348 149.443 110.507 149.374C110.562 149.346 110.623 149.332 110.684 149.332C110.745 149.332 110.806 149.346 110.86 149.374C110.903 149.402 110.94 149.438 110.969 149.48C110.997 149.522 111.017 149.57 111.027 149.62C111.036 149.67 111.035 149.721 111.024 149.771C111.014 149.821 110.993 149.868 110.963 149.909C110.883 150.035 110.815 150.251 110.667 150.331C110.519 150.41 110.211 150.205 110.155 150.046L110.223 149.978Z" fill="#FFC445"/>
<path fill-rule="evenodd" clip-rule="evenodd" d="M45.3606 77.2264C45.3379 77.1329 45.3379 77.0353 45.3606 76.9418C45.4858 76.8621 45.4972 76.7027 45.6452 76.623C45.7005 76.5974 45.7607 76.5842 45.8217 76.5842C45.8826 76.5842 45.9428 76.5974 45.9981 76.623C46.0427 76.6504 46.081 76.6869 46.1107 76.7301C46.1403 76.7732 46.1606 76.8221 46.1702 76.8736C46.1799 76.925 46.1787 76.9779 46.1667 77.0289C46.1547 77.0799 46.1322 77.1277 46.1006 77.1695C46.0209 77.2947 45.9526 77.4997 45.8046 77.5794C45.6566 77.6591 45.3492 77.4655 45.2922 77.3061L45.3606 77.2264Z" fill="#FFC445"/>
<path fill-rule="evenodd" clip-rule="evenodd" d="M143.403 105.37C143.642 104.96 143.699 104.778 144.132 104.675C144.363 104.59 144.617 104.59 144.849 104.675C144.995 104.863 145.093 105.083 145.137 105.317C145.181 105.55 145.168 105.791 145.099 106.019C144.906 106.474 144.291 106.395 143.961 106.235C143.744 106.166 143.557 106.024 143.433 105.833C143.309 105.642 143.254 105.414 143.278 105.188L143.403 105.37Z" fill="#FFC445"/>
<path fill-rule="evenodd" clip-rule="evenodd" d="M173.324 71.9993C173.285 72.0447 173.256 72.0973 173.239 72.154C173.221 72.2107 173.215 72.2704 173.221 72.3295C173.472 72.5003 174.268 72.3295 174.212 71.9196C174.212 71.7261 173.95 71.6578 173.79 71.635C173.449 71.635 173.278 71.8968 173.107 72.1473L173.324 71.9993Z" fill="#FFC445"/>
<path fill-rule="evenodd" clip-rule="evenodd" d="M127.428 84.921C127.39 84.9664 127.361 85.019 127.344 85.0757C127.326 85.1324 127.32 85.1921 127.326 85.2512C127.576 85.4219 128.373 85.2511 128.317 84.8413C128.317 84.6477 128.055 84.5794 127.895 84.5566C127.554 84.5566 127.383 84.8185 127.212 85.069L127.428 84.921Z" fill="#FFC445"/>
<path fill-rule="evenodd" clip-rule="evenodd" d="M39.5335 83.7723C39.4955 83.8156 39.4668 83.8662 39.4492 83.921C39.4316 83.9759 39.4254 84.0338 39.431 84.0911C39.6929 84.2619 40.4784 84.0911 40.4329 83.6926C40.4329 83.4877 40.1597 83.4307 40.0003 83.408C39.6587 83.408 39.4879 83.6584 39.3171 83.9089L39.5335 83.7723Z" fill="#FFC445"/>
<path fill-rule="evenodd" clip-rule="evenodd" d="M37.1633 114.695C37.1236 114.74 37.093 114.792 37.0735 114.849C37.054 114.906 37.0458 114.965 37.0495 115.025C37.3114 115.196 38.1083 115.025 38.0514 114.615C38.0514 114.422 37.7895 114.354 37.6301 114.331C37.2886 114.331 37.1178 114.593 36.947 114.843L37.1633 114.695Z" fill="#FFC445"/>
<path fill-rule="evenodd" clip-rule="evenodd" d="M97.681 164.619C97.4988 165.348 97.3394 165.758 97.8973 166.259C98.3292 166.623 98.8811 166.814 99.4457 166.794C100.277 166.737 101.643 166.088 101.358 165.04C101.209 164.731 100.997 164.457 100.737 164.233C100.476 164.01 100.172 163.843 99.8442 163.742C99.5847 163.693 99.3174 163.7 99.0611 163.764C98.8047 163.828 98.5653 163.947 98.3595 164.113C98.1537 164.278 97.9864 164.487 97.8692 164.724C97.7521 164.961 97.6879 165.22 97.681 165.484V164.619Z" fill="#FFC445"/>
<path style="mix-blend-mode:screen" fill-rule="evenodd" clip-rule="evenodd" d="M70.1793 147.359C64.2773 142.422 59.4395 136.337 55.9592 129.473C53.7328 125.089 52.0944 120.43 51.0863 115.617C50.2711 111.739 49.859 107.786 49.8567 103.822C49.8436 93.0334 52.917 82.4658 58.7144 73.3668C61.088 69.6413 63.8846 66.2028 67.0484 63.1201C77.637 52.8041 91.8404 47.0385 106.623 47.0555C107.864 47.0555 109.083 47.0555 110.301 47.1693C114.084 47.4171 117.832 48.0387 121.493 49.0251C116.967 47.5498 112.273 46.6509 107.523 46.3496C106.305 46.2699 105.086 46.2244 103.845 46.2244C95.3922 46.2245 87.0455 48.1121 79.4148 51.7495C71.7841 55.3869 65.0618 60.6823 59.7387 67.2492C54.4156 73.816 50.626 81.4886 48.6465 89.7069C46.667 97.9252 46.5476 106.482 48.2969 114.752C49.3125 119.564 50.9546 124.223 53.1812 128.608C56.7828 135.708 61.8334 141.973 68.0069 146.999C74.1804 152.025 81.3396 155.701 89.0219 157.788C82.1312 155.551 75.7345 152.01 70.1793 147.359Z" fill="url(#paint25_radial)"/>
<defs>
<filter id="filter0_d" x="0.430908" y="0.629639" width="207.551" height="208.672" filterUnits="userSpaceOnUse" color-interpolation-filters="sRGB">
<feFlood flood-opacity="0" result="BackgroundImageFix"/>
<feColorMatrix in="SourceAlpha" type="matrix" values="0 0 0 0 0 0 0 0 0 0 0 0 0 0 0 0 0 0 127 0"/>
<feOffset/>
<feGaussianBlur stdDeviation="25"/>
<feColorMatrix type="matrix" values="0 0 0 0 0.4 0 0 0 0 0.686275 0 0 0 0 0.972549 0 0 0 1 0"/>
<feBlend mode="normal" in2="BackgroundImageFix" result="effect1_dropShadow"/>
<feBlend mode="normal" in="SourceGraphic" in2="effect1_dropShadow" result="shape"/>
</filter>
<radialGradient id="paint0_radial" cx="0" cy="0" r="1" gradientUnits="userSpaceOnUse" gradientTransform="translate(29026.2 37174.2) scale(6936.61)">
<stop offset="0.01" stop-color="#009BFF"/>
<stop offset="1" stop-opacity="0"/>
</radialGradient>
<radialGradient id="paint1_radial" cx="0" cy="0" r="1" gradientUnits="userSpaceOnUse" gradientTransform="translate(28794 36126.8) scale(6838.07)">
<stop offset="0.01" stop-color="#0092FF"/>
<stop offset="0.13" stop-color="#0090FB"/>
<stop offset="0.26" stop-color="#0089EF"/>
<stop offset="0.38" stop-color="#007DDB"/>
<stop offset="0.51" stop-color="#006DBF"/>
<stop offset="0.63" stop-color="#00599B"/>
<stop offset="1" stop-color="#003F6E" stop-opacity="0"/>
</radialGradient>
<radialGradient id="paint2_radial" cx="0" cy="0" r="1" gradientUnits="userSpaceOnUse" gradientTransform="translate(70.1418 75.9512) scale(98.7215)">
<stop stop-color="#4F8CFF"/>
<stop offset="0.15" stop-color="#4A85F8"/>
<stop offset="0.36" stop-color="#3E72E6"/>
<stop offset="0.61" stop-color="#2952C8"/>
<stop offset="0.9" stop-color="#0C279F"/>
<stop offset="1" stop-color="#00158E"/>
</radialGradient>
<radialGradient id="paint3_radial" cx="0" cy="0" r="1" gradientUnits="userSpaceOnUse" gradientTransform="translate(73.3761 79.4122) scale(89.3286)">
<stop offset="0.01" stop-color="#FF7263"/>
<stop offset="0.21" stop-color="#FC6F63"/>
<stop offset="0.37" stop-color="#F46562"/>
<stop offset="0.51" stop-color="#E55560"/>
<stop offset="0.64" stop-color="#D03D5D"/>
<stop offset="0.77" stop-color="#B6205A"/>
<stop offset="0.88" stop-color="#9A0057"/>
<stop offset="0.99" stop-color="#9A00AE"/>
</radialGradient>
<radialGradient id="paint4_radial" cx="0" cy="0" r="1" gradientUnits="userSpaceOnUse" gradientTransform="translate(128.088 84.8073) scale(33.5523)">
<stop stop-color="#0088E8"/>
<stop offset="0.19" stop-color="#1696EE"/>
<stop offset="0.53" stop-color="#35AAF7"/>
<stop offset="0.81" stop-color="#48B7FD"/>
<stop offset="1" stop-color="#4FBBFF"/>
</radialGradient>
<linearGradient id="paint5_linear" x1="56.5737" y1="81.256" x2="78.3879" y2="81.256" gradientUnits="userSpaceOnUse">
<stop offset="0.01" stop-color="#A131A4"/>
<stop offset="1" stop-color="#FFC0B3"/>
</linearGradient>
<linearGradient id="paint6_linear" x1="101.385" y1="159.279" x2="101.385" y2="142.691" gradientUnits="userSpaceOnUse">
<stop stop-color="#4FBBFF"/>
<stop offset="0.19" stop-color="#48B7FD"/>
<stop offset="0.47" stop-color="#35AAF7"/>
<stop offset="0.81" stop-color="#1696EE"/>
<stop offset="1" stop-color="#0088E8"/>
</linearGradient>
<linearGradient id="paint7_linear" x1="3549.81" y1="9422.11" x2="3549.81" y2="8516.72" gradientUnits="userSpaceOnUse">
<stop stop-color="#4FBBFF"/>
<stop offset="0.19" stop-color="#48B7FD"/>
<stop offset="0.47" stop-color="#35AAF7"/>
<stop offset="0.81" stop-color="#1696EE"/>
<stop offset="1" stop-color="#0088E8"/>
</linearGradient>
<linearGradient id="paint8_linear" x1="104.582" y1="120.854" x2="119.941" y2="120.854" gradientUnits="userSpaceOnUse">
<stop stop-color="#0088E8"/>
<stop offset="0.03" stop-color="#0B8EE9"/>
<stop offset="0.24" stop-color="#4FB0F0"/>
<stop offset="0.43" stop-color="#87CCF5"/>
<stop offset="0.61" stop-color="#B3E2F9"/>
<stop offset="0.77" stop-color="#D3F2FC"/>
<stop offset="0.91" stop-color="#E6FCFE"/>
<stop offset="1" stop-color="#EDFFFF"/>
</linearGradient>
<linearGradient id="paint9_linear" x1="-2761.84" y1="-2356.93" x2="-2822.27" y2="-2323.97" gradientUnits="userSpaceOnUse">
<stop stop-color="#0088E8"/>
<stop offset="0.03" stop-color="#0B8EE9"/>
<stop offset="0.24" stop-color="#4FB0F0"/>
<stop offset="0.43" stop-color="#87CCF5"/>
<stop offset="0.61" stop-color="#B3E2F9"/>
<stop offset="0.77" stop-color="#D3F2FC"/>
<stop offset="0.91" stop-color="#E6FCFE"/>
<stop offset="1" stop-color="#EDFFFF"/>
</linearGradient>
<linearGradient id="paint10_linear" x1="9253.5" y1="8578.19" x2="10475.2" y2="8578.19" gradientUnits="userSpaceOnUse">
<stop offset="0.01" stop-color="#A131A4"/>
<stop offset="1" stop-color="#FFC0B3"/>
</linearGradient>
<linearGradient id="paint11_linear" x1="5378.51" y1="3759.03" x2="5807" y2="3759.03" gradientUnits="userSpaceOnUse">
<stop offset="0.01" stop-color="#A131A4"/>
<stop offset="1" stop-color="#FFC0B3"/>
</linearGradient>
<linearGradient id="paint12_linear" x1="2483.94" y1="3599.49" x2="2626.76" y2="3599.49" gradientUnits="userSpaceOnUse">
<stop offset="0.01" stop-color="#A131A4"/>
<stop offset="1" stop-color="#FFC0B3"/>
</linearGradient>
<linearGradient id="paint13_linear" x1="101.953" y1="118.27" x2="119.133" y2="118.27" gradientUnits="userSpaceOnUse">
<stop offset="0.01" stop-color="#A131A4"/>
<stop offset="1" stop-color="white"/>
</linearGradient>
<linearGradient id="paint14_linear" x1="11323.7" y1="5456" x2="13890.3" y2="5456" gradientUnits="userSpaceOnUse">
<stop offset="0.01" stop-color="#A131A4"/>
<stop offset="1" stop-color="#FFC0B3"/>
</linearGradient>
<linearGradient id="paint15_linear" x1="2074.74" y1="6683.11" x2="2074.74" y2="6289.85" gradientUnits="userSpaceOnUse">
<stop stop-color="#4FBBFF"/>
<stop offset="0.19" stop-color="#48B7FD"/>
<stop offset="0.47" stop-color="#35AAF7"/>
<stop offset="0.81" stop-color="#1696EE"/>
<stop offset="1" stop-color="#0088E8"/>
</linearGradient>
<radialGradient id="paint16_radial" cx="0" cy="0" r="1" gradientUnits="userSpaceOnUse" gradientTransform="translate(68.4739 75.2813) scale(105.554 96.9952)">
<stop offset="0.01" stop-color="#B1FFFF"/>
<stop offset="0.29" stop-color="#B1FDFF"/>
<stop offset="0.44" stop-color="#AFF5FF"/>
<stop offset="0.55" stop-color="#ACE8FF"/>
<stop offset="0.62" stop-color="#A9DBFF"/>
<stop offset="0.65" stop-color="#A2D7FE"/>
<stop offset="0.7" stop-color="#8FCAFC"/>
<stop offset="0.76" stop-color="#6FB5F9"/>
<stop offset="0.82" stop-color="#4399F4"/>
<stop offset="0.89" stop-color="#0C75EE"/>
<stop offset="0.91" stop-color="#006DED"/>
</radialGradient>
<radialGradient id="paint17_radial" cx="0" cy="0" r="1" gradientUnits="userSpaceOnUse" gradientTransform="translate(85.644 81.5613) rotate(-34.8) scale(29.0144 24.3234)">
<stop stop-color="#FF7700"/>
<stop offset="0.17" stop-color="#C55C00"/>
<stop offset="0.4" stop-color="#803C00"/>
<stop offset="0.6" stop-color="#492200" stop-opacity="0"/>
</radialGradient>
<radialGradient id="paint18_radial" cx="0" cy="0" r="1" gradientUnits="userSpaceOnUse" gradientTransform="translate(120.187 53.9208) scale(32.9717)">
<stop stop-color="#0088E8"/>
<stop offset="0.14" stop-color="#1C93ED"/>
<stop offset="0.4" stop-color="#4BA6F4"/>
<stop offset="0.64" stop-color="#6EB4FA"/>
<stop offset="0.83" stop-color="#83BCFE"/>
<stop offset="0.96" stop-color="#8BBFFF"/>
</radialGradient>
<linearGradient id="paint19_linear" x1="127.543" y1="104.847" x2="177.217" y2="63.1652" gradientUnits="userSpaceOnUse">
<stop stop-color="#FF3D00"/>
<stop offset="1" stop-opacity="0"/>
</linearGradient>
<linearGradient id="paint20_linear" x1="102.719" y1="180.798" x2="102.719" y2="141.177" gradientUnits="userSpaceOnUse">
<stop stop-opacity="0"/>
<stop offset="1" stop-color="#FF3D00"/>
</linearGradient>
<linearGradient id="paint21_linear" x1="5083.61" y1="7720.19" x2="5731.19" y2="7663.72" gradientUnits="userSpaceOnUse">
<stop stop-opacity="0"/>
<stop offset="1" stop-color="#FF3D00"/>
</linearGradient>
<linearGradient id="paint22_linear" x1="6038.62" y1="5550.28" x2="7149.26" y2="5356.11" gradientUnits="userSpaceOnUse">
<stop stop-opacity="0"/>
<stop offset="1" stop-color="#FF3D00"/>
</linearGradient>
<linearGradient id="paint23_linear" x1="7984.98" y1="7244.33" x2="8413.14" y2="6762.35" gradientUnits="userSpaceOnUse">
<stop stop-color="#FF3D00"/>
<stop offset="1" stop-opacity="0"/>
</linearGradient>
<linearGradient id="paint24_linear" x1="6508.93" y1="8720.88" x2="6105.35" y2="8211.05" gradientUnits="userSpaceOnUse">
<stop/>
<stop offset="1" stop-color="#FF3D00"/>
</linearGradient>
<radialGradient id="paint25_radial" cx="0" cy="0" r="1" gradientUnits="userSpaceOnUse" gradientTransform="translate(14801.8 28982.6) scale(4883.75 7320.83)">
<stop stop-color="#FFFFD9"/>
<stop offset="1" stop-opacity="0"/>
</radialGradient>
</defs>
</svg>
