<svg width="143" height="139" viewBox="0 0 143 139" fill="none" xmlns="http://www.w3.org/2000/svg">
<g filter="url(#filter0_d)">
<path d="M41.9348 53.8689C41.6469 54.4925 41.391 55.1161 41.1671 55.7557C40.694 57.119 40.367 58.5286 40.1916 59.961C39.7956 63.1799 40.0678 66.4458 40.9912 69.5548C41.8515 72.5031 43.1798 75.2942 44.9253 77.8214C45.8596 79.1883 46.8968 80.4819 48.0278 81.6909C48.9812 82.7212 49.9959 83.6931 51.0664 84.6011C52.091 85.4545 53.1586 86.255 54.2649 86.9995C55.3683 87.7351 56.5198 88.4226 57.7032 89.0622C58.9609 89.7266 60.2528 90.3244 61.5734 90.853C63.1369 91.4876 64.7394 92.0217 66.3711 92.452C70.1422 93.3971 74.0457 93.6998 77.9175 93.3474C87.8328 92.42 95.3172 87.1594 98.7075 79.8681L101.106 74.6235C97.764 81.9308 90.2796 87.1914 80.3164 88.1188C76.4445 88.4551 72.5436 88.1526 68.7699 87.2234C65.7402 86.4657 62.8136 85.3436 60.0541 83.8815C58.8807 83.2586 57.7435 82.5699 56.6477 81.8189C55.5377 81.0796 54.4699 80.2789 53.4492 79.4204C51.098 77.4572 49.0264 75.1815 47.2922 72.6568C45.5495 70.1279 44.2215 67.3373 43.3581 64.3901C42.4365 61.2808 42.1643 58.0152 42.5585 54.7963C42.7428 53.364 43.0751 51.9548 43.55 50.591C43.7673 49.9546 44.0182 49.3301 44.3016 48.7202L41.9348 53.8689Z" fill="#FE5D00"/>
<path d="M43.3931 64.3576C39.1711 49.7431 48.8785 36.6635 65.0787 35.1445C81.2789 33.6254 97.815 44.2586 102.021 58.8732C106.227 73.4877 96.4876 86.6153 80.3354 88.0863C64.1831 89.5574 47.5991 78.9722 43.3931 64.3576Z" fill="url(#paint0_linear)"/>
<path d="M65.0748 35.1442C51.3054 36.4394 42.2377 46.0812 42.4136 57.9136C42.5256 46.337 51.5293 36.9671 65.0748 35.7039C81.259 34.2009 97.8111 44.818 102.017 59.4326C102.627 61.5114 102.955 63.6625 102.993 65.8285C103.015 63.4586 102.687 61.0985 102.017 58.825C97.8111 44.2584 81.259 33.6412 65.0748 35.1442Z" fill="url(#paint1_linear)"/>
<path style="mix-blend-mode:multiply" d="M80.3307 87.3826C64.1465 88.9816 47.5944 78.2685 43.3884 63.6539C42.7798 61.5749 42.4517 59.4239 42.4129 57.2581C42.3839 59.6493 42.7127 62.0315 43.3884 64.3255C47.5944 78.9401 64.1785 89.5572 80.3307 88.0542C94.1161 86.759 103.2 77.0853 102.992 65.2209C102.88 76.7975 93.8443 86.1195 80.3307 87.3826Z" fill="url(#paint2_linear)"/>
<path d="M48.2718 63.947C44.8335 52.0187 52.8296 41.3216 65.9913 40.0904C79.153 38.8592 92.8105 47.5416 96.1849 59.5339C99.5593 71.5262 91.691 82.1113 78.4174 83.3425C65.1437 84.5737 51.7102 75.9073 48.2718 63.947Z" fill="#FE5D00"/>
<path d="M78.8942 81.6743C65.6686 82.9055 52.1391 74.2391 48.7007 62.2788C48.2445 60.7179 47.9814 59.1069 47.9171 57.4819C47.8376 59.6104 48.1022 61.7377 48.7007 63.7819C52.1391 75.7422 65.6686 84.4086 78.8942 83.1774C90.3447 82.1061 97.8131 73.9673 97.3973 63.9897C97.0455 73.3117 89.769 80.667 78.8942 81.6743Z" fill="url(#paint3_linear)"/>
<path style="mix-blend-mode:multiply" d="M66.4693 39.9894C55.0188 41.0607 47.5504 49.1994 47.9662 59.177C48.366 49.9829 55.6425 42.6436 66.4693 41.5883C79.695 40.3571 93.2245 49.0395 96.6629 60.9678C97.1164 62.5294 97.3796 64.14 97.4465 65.7647C97.5258 63.631 97.2612 61.4985 96.6629 59.4488C93.2885 47.4405 79.695 38.7582 66.4693 39.9894Z" fill="url(#paint4_linear)"/>
<path d="M42.7547 61.6072C42.7547 61.7831 42.7547 61.9749 42.8667 62.1668L40.5159 67.4274L40.4199 66.8678L42.8187 61.6392" fill="#FE5D00"/>
<path d="M42.4652 59.2246V59.7683L40.0664 65.0129V64.4532L42.4652 59.2246Z" fill="#FE5D00"/>
<path d="M42.4148 56.8911C42.4148 57.067 42.4148 57.2429 42.4148 57.4188L40 62.6314C40 62.4555 40 62.2636 40 62.0878L42.3988 56.8591" fill="#FE5D00"/>
<path d="M42.6088 54.6355C42.6 54.8059 42.6 54.9767 42.6088 55.1472L40.21 60.3918C40.21 60.2159 40.21 60.04 40.21 59.8641L42.6088 54.6355Z" fill="#FE5D00"/>
<path d="M43.0279 52.4131C43.0279 52.573 43.0279 52.7489 42.9 52.9088L40.5171 58.1534C40.5171 57.9935 40.5171 57.8176 40.645 57.6577L43.0439 52.4131" fill="#FE5D00"/>
<path d="M43.7107 50.2554L43.5507 50.7351L41.1519 55.9797C41.1519 55.8038 41.2638 55.6439 41.3118 55.484L43.7107 50.2554Z" fill="#FE5D00"/>
<path d="M44.3031 48.6873L41.9043 53.9319L44.3031 48.7032" fill="#FE5D00"/>
<path d="M100.593 75.5666L100.833 75.1189L98.4182 80.3475C98.4182 80.5074 98.2743 80.6513 98.1943 80.8112L100.593 75.5666Z" fill="#FE5D00"/>
<path d="M99.4881 77.4537C99.568 77.3098 99.664 77.1659 99.7599 77.022L97.3611 82.2666L97.0732 82.6983L99.4881 77.4537Z" fill="#FE5D00"/>
<path d="M98.1829 79.2286L98.5027 78.8289L96.1039 84.0575L95.7681 84.4732L98.1829 79.2286Z" fill="#FE5D00"/>
<path d="M96.6723 80.8746L97.0401 80.5068L94.6413 85.7355L94.2734 86.1032L96.6723 80.8746Z" fill="#FE5D00"/>
<path d="M94.9837 82.3938L95.3675 82.074L92.9687 87.3026L92.5688 87.6384L94.9837 82.3938Z" fill="#FE5D00"/>
<path d="M93.1303 83.7527L93.5621 83.4648L91.1632 88.6935L90.7314 88.9973L93.1303 83.7527Z" fill="#FE5D00"/>
<path d="M91.1137 85.0163L91.5935 84.7605L89.1786 89.9891L88.7148 90.261L91.1137 85.0163Z" fill="#FE5D00"/>
<path d="M88.9379 85.9761L89.4497 85.7522L87.0508 90.9968L86.5391 91.2207L88.9379 85.9761Z" fill="#FE5D00"/>
<path d="M86.6195 86.8236L87.1793 86.6477L84.7644 91.8923L84.2207 92.0682L86.6195 86.8236Z" fill="#FE5D00"/>
<path d="M84.1264 87.4949L84.7021 87.3669L82.2873 92.5956L81.7275 92.7395L84.1264 87.4949Z" fill="#FE5D00"/>
<path d="M81.5366 87.9424H82.1283L79.7294 93.187H79.1377L81.5366 87.9424Z" fill="#FE5D00"/>
<path d="M78.895 88.2148H79.5187L77.1198 93.4595H76.4961L78.895 88.2148Z" fill="#FE5D00"/>
<path d="M76.1259 88.2148H76.7336L74.3347 93.4595H73.7271L76.1259 88.2308" fill="#FE5D00"/>
<path d="M73.4233 88.0068H74.047L71.6321 93.2515H71.0244L73.4233 88.0068Z" fill="#FE5D00"/>
<path d="M70.7567 87.6079L71.3644 87.7198L68.9656 93.0124L68.3579 92.9005L70.7567 87.6559" fill="#FE5D00"/>
<path d="M68.0795 86.9993L68.6712 87.1592L66.2724 92.4038L65.6807 92.2439L68.0795 86.9993Z" fill="#FE5D00"/>
<path d="M65.5048 86.2158L66.0805 86.4077L63.6817 91.6523L63.106 91.4604L65.5048 86.2158Z" fill="#FE5D00"/>
<path d="M63.0014 85.2559L63.5771 85.4797L61.1783 90.7243L60.6025 90.4845L63.0014 85.2559Z" fill="#FE5D00"/>
<path d="M60.5805 84.1206L61.1242 84.3924L58.7254 89.621L58.1816 89.3492L60.5805 84.1206Z" fill="#FE5D00"/>
<path d="M58.2514 82.8101L58.7792 83.1298L56.3803 88.3585L55.8525 88.0547L58.2514 82.8101Z" fill="#FE5D00"/>
<path d="M55.9784 81.3232L56.4902 81.675L54.0914 86.9196L53.5796 86.5678L55.9784 81.3232Z" fill="#FE5D00"/>
<path d="M53.8806 79.7234L54.3444 80.1071L51.9456 85.3517L51.4658 84.968L53.8806 79.7234Z" fill="#FE5D00"/>
<path d="M51.9153 77.9807L52.3471 78.3964L49.9483 83.6411L49.5005 83.2253L51.9153 77.9807Z" fill="#FE5D00"/>
<path d="M50.1091 76.1265L50.5089 76.5582L48.094 81.8188L47.6782 81.3711L50.1091 76.1265Z" fill="#FE5D00"/>
<path d="M48.5062 74.1274L48.858 74.5911L46.4591 79.8358C46.3472 79.6759 46.2192 79.532 46.0913 79.3721L48.5062 74.1274Z" fill="#FE5D00"/>
<path d="M46.909 71.9846C47.0049 72.1605 47.1169 72.3204 47.2288 72.4963L44.83 77.7249L44.4941 77.2292L46.909 71.9846Z" fill="#FE5D00"/>
<path d="M45.5981 69.7944L45.886 70.3061L43.4871 75.5507L43.1992 75.0231L45.5981 69.7944Z" fill="#FE5D00"/>
<path d="M44.5135 67.428C44.5934 67.6039 44.6574 67.7957 44.7374 67.9716L42.3385 73.2003L42.0986 72.6726L44.5135 67.428Z" fill="#FE5D00"/>
<path d="M43.6171 65.1096L43.809 65.6693L41.4102 70.9139L41.2183 70.3542L43.6171 65.1096Z" fill="#FE5D00"/>
</g>
<defs>
<filter id="filter0_d" x="0" y="0" width="143" height="138.49" filterUnits="userSpaceOnUse" color-interpolation-filters="sRGB">
<feFlood flood-opacity="0" result="BackgroundImageFix"/>
<feColorMatrix in="SourceAlpha" type="matrix" values="0 0 0 0 0 0 0 0 0 0 0 0 0 0 0 0 0 0 127 0"/>
<feOffset dy="5"/>
<feGaussianBlur stdDeviation="20"/>
<feColorMatrix type="matrix" values="0 0 0 0 0.898039 0 0 0 0 0.788235 0 0 0 0 0.34902 0 0 0 0.5 0"/>
<feBlend mode="normal" in2="BackgroundImageFix" result="effect1_dropShadow"/>
<feBlend mode="normal" in="SourceGraphic" in2="effect1_dropShadow" result="shape"/>
</filter>
<linearGradient id="paint0_linear" x1="-632931" y1="511664" x2="-635832" y2="508305" gradientUnits="userSpaceOnUse">
<stop stop-color="#E7A547"/>
<stop offset="0.03" stop-color="#E89739"/>
<stop offset="0.1" stop-color="#EB8020"/>
<stop offset="0.16" stop-color="#EC7111"/>
<stop offset="0.21" stop-color="#ED6C0C"/>
<stop offset="0.32" stop-color="#E98E31"/>
<stop offset="0.56" stop-color="#E2D178"/>
<stop offset="0.6" stop-color="#E3CC73"/>
<stop offset="0.66" stop-color="#E4BF64"/>
<stop offset="0.73" stop-color="#E7A84B"/>
<stop offset="0.8" stop-color="#EA8928"/>
<stop offset="0.84" stop-color="#ED710D"/>
<stop offset="0.89" stop-color="#E7670A"/>
<stop offset="0.97" stop-color="#D64D03"/>
<stop offset="1" stop-color="#D04300"/>
</linearGradient>
<linearGradient id="paint1_linear" x1="-359325" y1="508481" x2="-358143" y2="508560" gradientUnits="userSpaceOnUse">
<stop stop-color="#AD3A00"/>
<stop offset="0.02" stop-color="#B6520F"/>
<stop offset="0.06" stop-color="#C77E2A"/>
<stop offset="0.11" stop-color="#D4A13F"/>
<stop offset="0.15" stop-color="#DDBA4F"/>
<stop offset="0.18" stop-color="#E3C958"/>
<stop offset="0.21" stop-color="#E5CE5B"/>
<stop offset="0.56" stop-color="#E2D178"/>
<stop offset="0.63" stop-color="#E3D073"/>
<stop offset="0.72" stop-color="#E4CF64"/>
<stop offset="0.76" stop-color="#E5CE5B"/>
<stop offset="0.85" stop-color="#C8822C"/>
<stop offset="0.94" stop-color="#AD3A00"/>
<stop offset="0.95" stop-color="#C04603"/>
<stop offset="0.97" stop-color="#D95606"/>
<stop offset="0.99" stop-color="#E86008"/>
<stop offset="1" stop-color="#ED6309"/>
</linearGradient>
<linearGradient id="paint2_linear" x1="-360747" y1="509454" x2="-359550" y2="509538" gradientUnits="userSpaceOnUse">
<stop stop-color="#750900"/>
<stop offset="0.16" stop-color="#8D1C00"/>
<stop offset="0.48" stop-color="#CA4B00"/>
<stop offset="0.5" stop-color="#CE4E00"/>
<stop offset="1" stop-color="#750900"/>
</linearGradient>
<linearGradient id="paint3_linear" x1="-297618" y1="413725" x2="-296795" y2="413780" gradientUnits="userSpaceOnUse">
<stop stop-color="#AD3A00"/>
<stop offset="0.01" stop-color="#B2480A"/>
<stop offset="0.02" stop-color="#BF6C23"/>
<stop offset="0.04" stop-color="#CB8B38"/>
<stop offset="0.05" stop-color="#D4A44A"/>
<stop offset="0.07" stop-color="#DBB757"/>
<stop offset="0.1" stop-color="#E0C561"/>
<stop offset="0.12" stop-color="#E3CD66"/>
<stop offset="0.18" stop-color="#E4CF68"/>
<stop offset="0.56" stop-color="#E2D178"/>
<stop offset="0.67" stop-color="#E3D073"/>
<stop offset="0.82" stop-color="#E4CF64"/>
<stop offset="0.88" stop-color="#E5CE5B"/>
<stop offset="0.92" stop-color="#E8AA40"/>
<stop offset="1" stop-color="#ED6309"/>
</linearGradient>
<linearGradient id="paint4_linear" x1="-298152" y1="412712" x2="-298368" y2="413887" gradientUnits="userSpaceOnUse">
<stop stop-color="#750900"/>
<stop offset="0.1" stop-color="#8D1C00"/>
<stop offset="0.32" stop-color="#CA4B00"/>
<stop offset="0.34" stop-color="#CE4E00"/>
<stop offset="0.55" stop-color="#EA9226"/>
<stop offset="0.58" stop-color="#E99A2E"/>
<stop offset="0.65" stop-color="#E7AF41"/>
<stop offset="0.74" stop-color="#E6BE4F"/>
<stop offset="0.84" stop-color="#E5C657"/>
<stop offset="0.99" stop-color="#E5C959"/>
</linearGradient>
</defs>
</svg>
